<svg width="32" height="32" viewBox="0 0 32 32" fill="none" xmlns="http://www.w3.org/2000/svg">
<rect width="32" height="32" rx="3" fill="#2D1CD1"/>
<path d="M17.0332 20.047C17.0703 19.9033 17.2541 19.6708 17.3447 19.6531C17.4925 19.6242 17.6673 19.6344 17.7639 19.6775C17.9539 19.7623 18.1092 19.8655 18.1092 19.9071C18.1092 19.948 18.1668 20.0278 18.299 20.1702C18.3441 20.2188 18.3675 20.2822 18.3678 20.3566C18.368 20.4187 18.389 20.5294 18.4145 20.6027C18.4443 20.6886 18.4563 20.8043 18.4482 20.9279C18.4414 21.0335 18.4467 21.1311 18.4601 21.1449C18.4736 21.1587 18.4919 21.2502 18.5007 21.3482C18.5096 21.4462 18.5287 21.5421 18.5432 21.5614C18.5577 21.5806 18.5664 21.6443 18.5625 21.703C18.5586 21.7616 18.568 21.8249 18.5833 21.8437C18.5997 21.8638 18.6002 21.9076 18.5846 21.95C18.5662 21.9999 18.57 22.0317 18.5969 22.0529C18.6268 22.0765 18.6292 22.1251 18.6072 22.2606C18.5914 22.3579 18.5889 22.4538 18.6016 22.4738C18.6339 22.5244 18.6314 23.1649 18.5989 23.1649C18.5844 23.1649 18.5894 23.1854 18.6101 23.2104C18.6308 23.2354 18.6407 23.2931 18.632 23.3387C18.6214 23.3944 18.6326 23.4336 18.6664 23.4588C18.7124 23.4931 18.7115 23.5002 18.6558 23.5456C18.6177 23.5767 18.6079 23.6006 18.6295 23.6098C18.653 23.6198 18.656 23.66 18.6388 23.7363C18.6226 23.8084 18.6254 23.8623 18.6467 23.8879C18.6648 23.9099 18.671 23.9365 18.6604 23.9471C18.6498 23.9577 18.6561 23.9845 18.6744 24.0066C18.6979 24.035 18.6985 24.0735 18.6764 24.1371C18.6534 24.2033 18.6545 24.2308 18.6808 24.2403C18.7075 24.2501 18.7065 24.2704 18.6766 24.3211C18.6426 24.3786 18.6438 24.394 18.6844 24.424C18.7215 24.4515 18.726 24.4804 18.7048 24.5542C18.6898 24.6064 18.6863 24.6634 18.697 24.6809C18.7077 24.6983 18.7165 24.7959 18.7165 24.8978C18.7165 25.0254 18.7293 25.0879 18.7576 25.0988C18.7802 25.1075 18.7913 25.1341 18.7822 25.1578C18.7731 25.1816 18.7828 25.2153 18.8037 25.2327C18.8315 25.2559 18.8685 25.24 18.9405 25.174C18.9947 25.1243 19.028 25.0832 19.0145 25.0828C19.0009 25.0822 19.0137 25.0679 19.0429 25.0508C19.0995 25.0178 19.1845 24.8487 19.2659 24.6074C19.2934 24.526 19.3601 24.3702 19.4142 24.2613C19.4682 24.1525 19.5215 24.0257 19.5325 23.9796C19.5436 23.9335 19.5661 23.8959 19.5825 23.8959C19.5989 23.8959 19.6123 23.8705 19.6123 23.8395C19.6123 23.8085 19.6464 23.7187 19.6882 23.6399C19.7299 23.5611 19.7641 23.4761 19.7641 23.451C19.7641 23.4259 19.7983 23.3549 19.84 23.2933C19.8818 23.2316 19.9159 23.1687 19.9159 23.1533C19.9159 23.138 19.9603 23.0554 20.0146 22.9698C20.1697 22.7251 20.1846 22.7002 20.2539 22.571C20.3414 22.4076 20.659 22.1108 20.7772 22.0818C20.916 22.0478 21.1602 22.0427 21.1791 22.0734C21.1881 22.088 21.2065 22.093 21.2201 22.0846C21.2336 22.0762 21.3112 22.135 21.3926 22.2152C21.4739 22.2953 21.5646 22.3701 21.5941 22.3814C21.6561 22.4051 21.703 22.5138 21.7197 22.6726C21.7262 22.734 21.7455 22.8285 21.7628 22.8828C21.78 22.937 21.7832 22.9881 21.7699 22.9963C21.7461 23.011 21.7169 23.1209 21.6885 23.3019C21.6807 23.3522 21.666 23.4139 21.6559 23.439C21.6459 23.4641 21.6327 23.5121 21.6268 23.5456C21.6133 23.621 21.5229 23.805 21.4729 23.8587C21.4524 23.8807 21.414 23.9495 21.3874 24.0115C21.2903 24.2384 21.2638 24.2768 21.1978 24.2863C21.1567 24.2923 21.1305 24.3175 21.1305 24.3511C21.1305 24.3814 21.1094 24.4237 21.0836 24.4452C21.0578 24.4667 21.0436 24.5023 21.052 24.5243C21.0604 24.5463 21.0497 24.575 21.0282 24.588C20.969 24.6238 20.8961 24.7742 20.8418 24.9728C20.8072 25.0989 20.7756 25.1558 20.734 25.1667C20.7011 25.1753 20.6751 25.2084 20.6751 25.2415C20.6751 25.2742 20.6409 25.3459 20.5991 25.4008C20.5574 25.4557 20.5232 25.5164 20.5232 25.5358C20.5232 25.5552 20.5106 25.571 20.4952 25.571C20.4798 25.571 20.4519 25.6176 20.4331 25.6746C20.4143 25.7316 20.3647 25.8154 20.3228 25.8608C20.2428 25.9474 20.2451 26.0037 20.3259 25.9365C20.3517 25.9149 20.3802 25.9046 20.3891 25.9136C20.398 25.9225 20.3635 25.9597 20.3124 25.9961C20.2042 26.0735 20.1962 26.106 20.2803 26.128C20.3137 26.1368 20.341 26.1666 20.341 26.1943C20.341 26.222 20.3547 26.2361 20.3715 26.2258C20.3918 26.2131 20.3918 26.188 20.3715 26.1498C20.3285 26.0693 20.3337 26.0278 20.3866 26.0278C20.4116 26.0278 20.4321 26.0484 20.4321 26.0735C20.4321 26.0987 20.4473 26.1192 20.4658 26.1192C20.4865 26.1192 20.4928 26.0869 20.4822 26.0355C20.4727 25.9894 20.4723 25.9688 20.4814 25.9898C20.4905 26.0107 20.5207 26.0281 20.5485 26.0283C20.5885 26.0287 20.5905 26.0343 20.5579 26.0549C20.5353 26.0694 20.5286 26.0885 20.5431 26.0975C20.5576 26.1065 20.5966 26.0939 20.6297 26.0696C20.6814 26.0317 20.6835 26.0214 20.6445 25.9967C20.6058 25.972 20.6068 25.9678 20.6513 25.9674C20.6868 25.9671 20.6975 25.9512 20.6847 25.9177C20.6695 25.8779 20.6792 25.8728 20.7356 25.8907C20.7957 25.9099 20.8031 25.9042 20.7889 25.8496C20.7798 25.8148 20.7834 25.7892 20.7968 25.7928C20.8102 25.7965 20.9421 25.6759 21.0897 25.5249C21.3736 25.2348 21.4989 25.1298 21.6856 25.0258C21.8272 24.9469 21.862 24.9464 22.0086 25.0215C22.0726 25.0543 22.1325 25.0736 22.1415 25.0646C22.17 25.036 22.3755 25.1495 22.3755 25.1937C22.3755 25.217 22.4013 25.236 22.4328 25.236C22.4684 25.236 22.5091 25.2763 22.5405 25.3426C22.5682 25.4012 22.605 25.4492 22.6224 25.4492C22.6397 25.4492 22.648 25.4663 22.6408 25.4872C22.6336 25.5082 22.6407 25.5664 22.6565 25.6167C22.6723 25.6669 22.6835 25.7478 22.6814 25.7964C22.6774 25.8867 22.5306 26.18 22.4894 26.1801C22.4768 26.1801 22.4666 26.2059 22.4666 26.2373C22.4666 26.2688 22.4461 26.3115 22.421 26.3324C22.396 26.3533 22.3751 26.3926 22.3745 26.4199C22.3734 26.4769 22.3058 26.5752 22.2659 26.5779C22.251 26.5788 22.2041 26.6508 22.1616 26.7378C22.1191 26.8247 22.0713 26.8934 22.0553 26.8904C22.0069 26.8813 21.92 26.9777 21.92 27.0405C21.92 27.073 21.8953 27.106 21.8651 27.1139C21.8061 27.1294 21.6651 27.3619 21.682 27.416C21.6877 27.434 21.6445 27.4957 21.586 27.553C21.5276 27.6104 21.4339 27.7293 21.3779 27.8172C21.3219 27.9051 21.2623 27.9771 21.2456 27.9771C21.2288 27.9771 21.2225 27.9964 21.2315 28.0199C21.2501 28.0686 21.1484 28.1745 21.1075 28.1491C21.0927 28.14 21.0582 28.1587 21.0309 28.1908C21.0001 28.2268 20.9928 28.2563 21.0117 28.2681C21.0506 28.2922 20.988 28.373 20.9305 28.373C20.8652 28.373 20.8156 28.4902 20.8589 28.5425C20.8875 28.5771 20.8858 28.5862 20.8505 28.5862C20.826 28.5862 20.7812 28.6136 20.751 28.6471C20.7041 28.6991 20.703 28.7081 20.7434 28.7081C20.7759 28.7081 20.7858 28.7273 20.775 28.769C20.7554 28.8439 20.7134 28.8484 20.6997 28.777C20.6922 28.7381 20.6696 28.7563 20.6145 28.8455C20.5732 28.9123 20.5265 28.9875 20.5108 29.0126C20.4859 29.0523 20.4889 29.0527 20.5339 29.0158C20.5809 28.9772 20.585 28.9827 20.5786 29.0767C20.5684 29.228 20.4238 29.4451 20.2367 29.5898C20.1466 29.6595 20.0661 29.7344 20.0578 29.7562C20.0417 29.7981 19.9287 29.8291 19.7034 29.8533C19.6282 29.8614 19.5121 29.875 19.4453 29.8837C19.2519 29.9087 19.0609 29.9127 19.0482 29.8921C19.0306 29.8636 18.8756 29.8685 18.8171 29.8994C18.7882 29.9147 18.7586 29.9149 18.7495 29.9C18.7405 29.8855 18.7003 29.8799 18.6601 29.8876C18.6199 29.8953 18.5774 29.8859 18.5655 29.8668C18.5495 29.8408 18.5333 29.841 18.5013 29.8677C18.4719 29.8921 18.4465 29.8936 18.4205 29.8724C18.3974 29.8536 18.3251 29.8504 18.2361 29.8642C18.0962 29.8859 17.8969 29.867 17.8303 29.8257C17.8131 29.815 17.7534 29.8194 17.6976 29.8354C17.6251 29.8563 17.5898 29.8545 17.5741 29.8289C17.5576 29.802 17.5403 29.803 17.5042 29.833C17.4779 29.8549 17.4564 29.8598 17.4564 29.8438C17.4564 29.811 17.3673 29.8113 17.3142 29.8442C17.295 29.8561 17.2748 29.852 17.2692 29.8351C17.2625 29.8151 17.2248 29.8142 17.1607 29.8326C17.1067 29.8482 17.011 29.8539 16.9482 29.8453C16.8853 29.8367 16.7997 29.8279 16.758 29.8257C16.7162 29.8235 16.6724 29.8078 16.6607 29.7908C16.647 29.7709 16.5503 29.7899 16.3898 29.8441C16.2453 29.8929 16.1328 29.9162 16.1226 29.8995C16.101 29.8645 15.8205 29.865 15.7989 29.9001C15.7904 29.9138 15.7602 29.9126 15.7318 29.8973C15.7033 29.882 15.5946 29.852 15.4902 29.8307C15.3752 29.8072 15.3005 29.7764 15.3005 29.7525C15.3005 29.7309 15.2868 29.7131 15.2701 29.7131C15.2534 29.7131 15.2397 29.6917 15.2397 29.6654C15.2397 29.6325 15.2219 29.6233 15.1826 29.6359C15.1162 29.657 15.0176 29.5139 14.9814 29.3438C14.9693 29.2873 14.9492 29.2273 14.9368 29.2106C14.9145 29.1807 14.8769 29.0556 14.8547 28.9378C14.8485 28.905 14.8328 28.8708 14.8197 28.8616C14.8067 28.8526 14.7783 28.7971 14.7567 28.7385C14.6774 28.5232 14.4646 28.1004 14.4351 28.0996C14.4184 28.0991 14.3786 28.0336 14.3467 27.9541C14.3149 27.8746 14.2653 27.7867 14.2367 27.7587C14.2081 27.7307 14.1385 27.6113 14.0821 27.4934C14.0258 27.3755 13.9651 27.2785 13.9473 27.2778C13.9095 27.2764 13.7822 27.1112 13.7822 27.0637C13.7822 27.0457 13.7617 27.0231 13.7367 27.0135C13.7116 27.0038 13.6911 26.9768 13.6911 26.9535C13.6911 26.9302 13.68 26.9111 13.6664 26.9111C13.6528 26.9111 13.5956 26.8494 13.5393 26.774C13.483 26.6987 13.4275 26.637 13.416 26.637C13.4045 26.637 13.3421 26.5882 13.2774 26.5285C13.2127 26.4688 13.1119 26.3973 13.0535 26.3696C12.995 26.3419 12.9207 26.2947 12.8883 26.2649C12.8559 26.235 12.811 26.2106 12.7883 26.2106C12.7658 26.2106 12.7307 26.1966 12.7106 26.1795C12.5452 26.0394 12.4875 25.9974 12.4605 25.9974C12.4434 25.9974 12.3907 25.9532 12.3435 25.8993C12.263 25.8073 12.2589 25.7897 12.2781 25.6176C12.3036 25.3879 12.4225 25.1216 12.5425 25.0257C12.687 24.9102 13.2207 24.797 13.267 24.8721C13.2778 24.8895 13.3431 24.906 13.4121 24.9088C13.4816 24.9116 13.5443 24.9311 13.5525 24.9526C13.5607 24.9738 13.585 24.9846 13.6065 24.9765C13.628 24.9684 13.6934 24.9923 13.7519 25.0296C13.8103 25.067 13.9057 25.112 13.9639 25.1295C14.0239 25.1477 14.0853 25.1929 14.1058 25.234C14.1256 25.2738 14.1736 25.3101 14.2125 25.3146C14.3257 25.3276 14.511 25.4161 14.511 25.4572C14.5111 25.5108 14.8082 25.8146 14.8605 25.8146C14.8845 25.8146 14.9254 25.8558 14.9513 25.906C14.9772 25.9563 15.0185 25.9974 15.0432 25.9974C15.0678 25.9974 15.0895 26.0214 15.0914 26.0507C15.0948 26.1015 15.0956 26.1015 15.1088 26.0507C15.1165 26.0214 15.1333 25.9974 15.1462 25.9974C15.1851 25.9974 15.2717 26.1075 15.2499 26.1293C15.2388 26.1405 15.2447 26.1497 15.2632 26.1497C15.3112 26.1497 15.3376 26.0966 15.301 26.0738C15.2546 26.0451 15.2638 25.9974 15.3157 25.9974C15.3407 25.9974 15.3623 25.9734 15.3637 25.9441C15.3651 25.9148 15.3704 25.8565 15.3754 25.8146C15.387 25.719 15.3194 25.4465 15.2608 25.3526C15.2365 25.3136 15.2075 25.2206 15.1964 25.1461C15.1854 25.0716 15.1649 24.9962 15.1509 24.9786C15.091 24.9033 14.9361 24.5833 14.9361 24.5349C14.9361 24.5058 14.9165 24.4657 14.8925 24.4457C14.8685 24.4257 14.8403 24.3702 14.8298 24.3223C14.8193 24.2743 14.7911 24.2188 14.7671 24.1988C14.7432 24.1788 14.7235 24.1467 14.7235 24.1273C14.7235 24.0601 14.538 23.728 14.4667 23.6674C14.4272 23.6339 14.3797 23.5489 14.361 23.4784C14.3424 23.408 14.3105 23.3326 14.29 23.3109C14.2696 23.2892 14.2121 23.2098 14.1622 23.1344C14.1124 23.0591 14.0087 22.922 13.9318 22.8299C13.6793 22.5272 13.5493 22.2369 13.5803 22.0452C13.6071 21.8791 13.7215 21.671 13.803 21.6399C13.8437 21.6244 13.8696 21.5997 13.8606 21.5851C13.814 21.5095 14.1804 21.2766 14.346 21.2766C14.4014 21.2766 14.4551 21.2903 14.4654 21.307C14.4758 21.3238 14.509 21.3375 14.5394 21.3375C14.5698 21.3375 14.6116 21.358 14.6324 21.3832C14.6532 21.4083 14.6908 21.4288 14.716 21.4288C14.7616 21.4288 15.0866 21.6371 15.1859 21.73C15.3602 21.893 15.4548 21.9996 15.4716 22.0521C15.4822 22.0849 15.5847 22.2066 15.6993 22.3225C15.814 22.4385 15.9078 22.5452 15.9078 22.5598C15.9078 22.5743 15.9283 22.5862 15.9533 22.5862C15.9784 22.5862 15.9989 22.6047 15.9989 22.6272C15.9989 22.6913 16.0909 22.8603 16.1258 22.8603C16.1431 22.8603 16.1497 22.8799 16.1405 22.9038C16.1314 22.9277 16.1458 22.9654 16.1726 22.9875C16.1994 23.0097 16.247 23.0861 16.2785 23.1573C16.31 23.2285 16.3499 23.2867 16.3672 23.2867C16.3845 23.2867 16.3925 23.3039 16.3849 23.3248C16.3774 23.3457 16.3884 23.3834 16.4095 23.4085C16.4567 23.4649 16.5938 23.8149 16.6212 23.9492C16.6347 24.0155 16.6589 24.0481 16.6946 24.0481C16.7698 24.0481 16.7936 24.0812 16.7534 24.1298C16.726 24.1629 16.7298 24.1672 16.7719 24.151C16.8027 24.1391 16.8352 24.1475 16.8497 24.1709C16.8909 24.2379 16.9949 24.237 17.0162 24.1695C17.0267 24.1363 17.0519 24.1091 17.0721 24.1091C17.1182 24.1091 17.208 24.0056 17.2437 23.9114C17.2686 23.8457 17.247 23.7288 17.1846 23.5913C17.1732 23.5662 17.174 23.4977 17.1863 23.4391C17.1987 23.3806 17.198 23.2744 17.1847 23.2031C17.1695 23.1213 17.1717 23.0735 17.1907 23.0735C17.2074 23.0735 17.2042 23.0533 17.1834 23.0282C17.1628 23.0033 17.1539 22.9622 17.1636 22.9369C17.1733 22.9115 17.1689 22.8908 17.1539 22.8908C17.118 22.8908 17.1186 22.3455 17.1546 22.278C17.1718 22.2459 17.1716 22.2218 17.1542 22.2156C17.1386 22.21 17.1113 22.089 17.0936 21.9466C17.0759 21.8042 17.0478 21.6832 17.0312 21.6776C16.9919 21.6644 16.9919 21.5598 17.0313 21.5354C17.0814 21.5043 17.0655 21.4593 17.0044 21.4593C16.9562 21.4593 16.9472 21.436 16.9472 21.3116C16.9472 21.2303 16.9335 21.1378 16.9167 21.106C16.8652 21.0081 16.879 20.6312 16.9428 20.3907C16.9758 20.2665 17.0165 20.1118 17.0332 20.047Z" fill="#F70808"/>
<path d="M18.8532 25.2055C18.8365 25.2055 18.8228 25.1918 18.8228 25.1751C18.8228 25.1583 18.8365 25.1446 18.8532 25.1446C18.8699 25.1446 18.8835 25.1583 18.8835 25.1751C18.8835 25.1918 18.8699 25.2055 18.8532 25.2055Z" fill="#F70808"/>
<path d="M22.0015 27.0082C21.9918 27.0325 21.9846 27.0252 21.9831 26.9898C21.9818 26.9577 21.989 26.9397 21.9991 26.9498C22.0092 26.9599 22.0103 26.9862 22.0015 27.0082Z" fill="#F70808"/>
<path d="M20.5941 28.972C20.5852 28.9631 20.5869 28.9411 20.5979 28.9233C20.6226 28.8831 20.6751 28.8805 20.6751 28.9195C20.6751 28.9554 20.6158 28.9938 20.5941 28.972Z" fill="#F70808"/>
<path fill-rule="evenodd" clip-rule="evenodd" d="M15.4877 2.23144C15.4168 2.24032 15.3202 2.25368 15.2729 2.26112C15.2257 2.26855 15.1484 2.28016 15.1011 2.28692C14.8724 2.3197 14.5488 2.42638 14.4646 2.49682C14.4291 2.52654 14.3882 2.55085 14.3738 2.55085C14.3371 2.55085 14.176 2.70846 14.1157 2.80325C14.0881 2.84669 14.0496 2.89541 14.03 2.91152C13.9626 2.96717 13.9422 3.03155 13.8342 3.53033C13.8055 3.66287 13.7708 4.04198 13.7646 4.28999C13.7637 4.3252 13.756 4.53165 13.7474 4.74878C13.7388 4.9659 13.7328 5.21557 13.734 5.3036C13.7353 5.39162 13.7402 5.81542 13.7449 6.24536C13.7496 6.67528 13.7593 7.03653 13.7665 7.04809C13.7737 7.05966 13.7662 7.1206 13.7498 7.18351C13.7324 7.24988 13.7274 7.3118 13.7378 7.33105C13.7476 7.34927 13.7559 7.4647 13.7563 7.58757C13.7567 7.71042 13.7608 7.84455 13.7654 7.88563C13.77 7.92671 13.7632 7.96753 13.7503 7.97632C13.734 7.98751 13.7353 7.99775 13.755 8.01036C13.7725 8.02161 13.778 8.04828 13.7697 8.08129C13.7609 8.11631 13.7677 8.14356 13.7899 8.16191C13.8084 8.17715 13.8235 8.19921 13.8235 8.21095C13.8235 8.22286 13.8093 8.22053 13.7913 8.20572C13.7541 8.17503 13.7507 8.19102 13.7577 8.36576C13.7675 8.60933 13.7422 9.29097 13.7206 9.36781C13.7092 9.40822 13.7126 9.45811 13.73 9.50651C13.7632 9.59865 13.7673 9.74214 13.7369 9.74214C13.7225 9.74214 13.7216 9.75528 13.7344 9.77948C13.7454 9.80001 13.7556 9.89845 13.7572 9.99821C13.7627 10.3343 13.7548 10.4316 13.7203 10.4534C13.6982 10.4674 13.6978 10.4777 13.7185 10.5024C13.7527 10.5434 13.7513 11.0124 13.7169 11.0536C13.7035 11.0696 13.7012 11.088 13.7117 11.0944C13.731 11.1063 13.7286 11.2569 13.7056 11.4706C13.6987 11.5352 13.6891 11.653 13.6844 11.7325C13.6797 11.812 13.6709 11.8936 13.6649 11.9139C13.6589 11.9342 13.6482 12.0071 13.6411 12.076C13.6198 12.2849 13.5337 12.4372 13.3108 12.6603C13.2024 12.7688 13.1006 12.8577 13.0847 12.8577C13.0688 12.8577 13.0433 12.8726 13.028 12.8909C12.9908 12.9355 12.8781 12.9823 12.6962 13.0288C12.5603 13.0635 12.5423 13.064 12.5087 13.0342C12.4786 13.0075 12.4654 13.0062 12.4392 13.0278C12.4214 13.0425 12.3925 13.049 12.3751 13.0424C12.3576 13.0357 12.3374 13.0396 12.3303 13.0511C12.3231 13.0626 12.2986 13.0502 12.2756 13.0235C12.2527 12.9968 12.2365 12.9882 12.2396 13.0044C12.2427 13.0205 12.2332 13.0381 12.2184 13.0435C12.2037 13.0489 12.1916 13.0432 12.1916 13.0308C12.1916 13.0034 12.1281 13.0252 12.0852 13.0674C12.0638 13.0884 12.0514 13.0904 12.0458 13.0739C12.0362 13.0453 11.9769 13.041 11.9769 13.0689C11.9769 13.0973 11.7867 13.102 11.4615 13.0817C11.3611 13.0754 11.2609 13.0699 11.2389 13.0695C11.2169 13.0691 11.1745 13.0529 11.1448 13.0336C11.115 13.0142 11.0634 13.0005 11.0301 13.003C10.9882 13.0062 10.9623 12.9943 10.9463 12.9646C10.9336 12.941 10.9053 12.9217 10.8834 12.9217C10.8173 12.9217 10.6146 12.7041 10.5412 12.5544C10.5041 12.4787 10.4738 12.3963 10.4738 12.3711C10.4738 12.346 10.4564 12.294 10.4351 12.2555C10.3925 12.1784 10.3421 12.0232 10.3328 11.9401C10.3165 11.7963 10.2821 11.5619 10.2716 11.524C10.249 11.4417 10.2254 11.074 10.2079 10.5317C10.1902 9.98494 10.1683 9.78994 10.1084 9.64611C10.0986 9.62264 10.085 9.55578 10.078 9.49753C10.071 9.43927 10.0459 9.35462 10.0222 9.3094C9.9985 9.26418 9.984 9.21931 9.98999 9.20966C9.99599 9.20004 9.98673 9.18049 9.96942 9.16622C9.95214 9.15194 9.9134 9.09085 9.88338 9.03044C9.78156 8.82558 9.67258 8.69102 9.51143 8.5712C9.45418 8.52862 9.3909 8.47735 9.3708 8.45727C9.34158 8.42805 9.32266 8.42509 9.27656 8.44252C9.22936 8.46034 9.21367 8.45729 9.1902 8.42571C9.17444 8.40447 9.14684 8.39009 9.12891 8.39374C9.11098 8.39739 9.0818 8.3884 9.06407 8.37377C9.04118 8.3549 9.02758 8.35396 9.01728 8.37054C9.00927 8.38341 8.92546 8.40012 8.83102 8.40772C8.69164 8.4189 8.631 8.41324 8.50906 8.37763C8.35031 8.33126 8.20837 8.32059 8.18793 8.35345C8.18119 8.36429 8.1452 8.3798 8.10797 8.38794C8.02482 8.40607 7.85968 8.49179 7.79936 8.54811C7.77479 8.57105 7.7449 8.58982 7.73297 8.58982C7.67052 8.58982 7.46748 8.89534 7.39258 9.10196C7.36067 9.18999 7.3313 9.30097 7.32732 9.34858C7.32333 9.39619 7.30074 9.51622 7.27712 9.61532C7.2535 9.71442 7.22507 9.88671 7.21395 9.99821C7.19003 10.2377 7.1987 10.7875 7.22924 10.9691C7.24107 11.0396 7.24953 11.15 7.248 11.2145C7.24293 11.4314 7.3217 12.148 7.38019 12.4172C7.3926 12.4743 7.39707 12.5301 7.39013 12.5412C7.3832 12.5524 7.39709 12.6067 7.42099 12.662C7.44491 12.7172 7.46919 12.8032 7.47495 12.853C7.48727 12.9597 7.57971 13.2713 7.64407 13.4231C7.66893 13.4818 7.69112 13.562 7.69335 13.6013C7.69558 13.6406 7.70844 13.6796 7.72191 13.6878C7.73539 13.6961 7.77048 13.7732 7.7999 13.8592C7.82931 13.9451 7.86404 14.0282 7.87705 14.0438C7.89006 14.0594 7.89515 14.081 7.88836 14.092C7.88158 14.1029 7.8904 14.1237 7.90799 14.1382C7.92558 14.1527 7.93996 14.1782 7.93996 14.1948C7.93996 14.2114 7.97378 14.275 8.01512 14.3359C8.05645 14.397 8.09027 14.459 8.09027 14.4738C8.09027 14.4886 8.09963 14.5008 8.11108 14.5008C8.1289 14.5008 8.23985 14.6517 8.31784 14.782C8.35052 14.8366 8.49471 14.9837 8.62772 15.0983C8.68906 15.1511 8.75507 15.212 8.77442 15.2337C8.85393 15.3226 9.2284 15.5488 9.31253 15.5587C9.34111 15.562 9.40392 15.5842 9.4521 15.608C9.57415 15.6683 9.80232 15.7411 9.90473 15.7525C9.95197 15.7577 10.0272 15.7716 10.072 15.7833C10.1168 15.795 10.2376 15.8143 10.3404 15.8263C10.4433 15.8382 10.5661 15.8528 10.6133 15.8586C10.6606 15.8645 10.7814 15.872 10.8817 15.8752C11.0404 15.8804 11.4579 15.9419 11.48 15.9633C11.4843 15.9675 11.5268 15.9554 11.5744 15.9365C11.6509 15.9061 11.6636 15.9058 11.6847 15.934C11.701 15.9559 11.7385 15.9639 11.8051 15.9596C11.9209 15.9522 12.114 15.9872 12.2004 16.0313C12.2364 16.0496 12.3292 16.0646 12.4191 16.0665C12.5449 16.0692 12.585 16.0786 12.625 16.1148C12.6524 16.1396 12.6868 16.1554 12.7015 16.1501C12.7163 16.1447 12.734 16.1549 12.7409 16.1728C12.7478 16.1906 12.7662 16.2003 12.7819 16.1944C12.8245 16.1781 13.42 16.4718 13.4809 16.5391C13.5099 16.5711 13.5546 16.6198 13.5803 16.6473C13.6059 16.6748 13.6329 16.716 13.6402 16.7388C13.6474 16.7616 13.6675 16.7918 13.6848 16.8061C13.702 16.8203 13.7162 16.8602 13.7162 16.8948C13.7162 16.9293 13.7277 16.9785 13.7419 17.0042C13.756 17.0298 13.7705 17.1516 13.774 17.2749C13.7776 17.3981 13.7837 17.619 13.7878 17.7657C13.7918 17.9124 13.8026 18.0493 13.8118 18.07C13.8214 18.0919 13.8176 18.1205 13.8027 18.1383C13.7886 18.1552 13.7829 18.1874 13.7901 18.2099C13.8096 18.2711 13.8069 18.8471 13.7864 18.9827C13.7488 19.232 13.5399 19.4674 13.2728 19.5614C13.094 19.6243 13.0385 19.6295 12.8911 19.5973C12.7827 19.5736 12.7449 19.5526 12.6676 19.4728C12.6165 19.42 12.5557 19.3336 12.5327 19.2807C12.5096 19.2279 12.4814 19.168 12.47 19.1477C12.4586 19.1273 12.449 19.0889 12.4488 19.0623C12.4485 19.0357 12.4292 18.9721 12.4058 18.921C12.3825 18.8698 12.3634 18.8014 12.3634 18.769C12.3634 18.7365 12.3477 18.6679 12.3285 18.6166C12.3093 18.5652 12.295 18.4992 12.2967 18.4699C12.2984 18.4405 12.2909 18.3973 12.2799 18.3738C12.2419 18.2927 12.2279 18.2457 12.2319 18.2123C12.2341 18.1939 12.1921 18.1139 12.1386 18.0346C12.0433 17.8934 12.0329 17.8657 12.0401 17.7738C12.0422 17.7462 12.0285 17.7246 12.0049 17.7185C11.9836 17.7129 11.9437 17.6636 11.9163 17.609C11.8699 17.5163 11.828 17.4698 11.8558 17.5416C11.8626 17.5592 11.8588 17.5736 11.8474 17.5736C11.8359 17.5736 11.8265 17.5547 11.8265 17.5317C11.8265 17.4862 11.7678 17.4455 11.7245 17.4609C11.7098 17.4662 11.6977 17.4601 11.6977 17.4473C11.6977 17.4346 11.7094 17.4242 11.7238 17.4242C11.7637 17.4242 11.6902 17.3586 11.6418 17.351C11.6176 17.3473 11.6036 17.3306 11.6074 17.3098C11.6114 17.2874 11.5989 17.2749 11.5724 17.2749C11.5498 17.2749 11.5196 17.261 11.5055 17.2441C11.4914 17.2272 11.4661 17.2186 11.4492 17.2251C11.4305 17.2322 11.4186 17.2234 11.4186 17.2025C11.4186 17.1824 11.4007 17.1682 11.3756 17.1682C11.352 17.1682 11.3327 17.1593 11.3327 17.1484C11.3327 17.1376 11.2723 17.128 11.1985 17.1273C11.1247 17.1265 10.987 17.1241 10.8925 17.1219C10.7676 17.1191 10.702 17.1277 10.6523 17.1536C10.6146 17.1732 10.5684 17.1833 10.5495 17.1761C10.5305 17.1688 10.4965 17.1797 10.4736 17.2003C10.446 17.2251 10.3995 17.237 10.3348 17.2357C10.2813 17.2346 10.2376 17.243 10.2376 17.2543C10.2376 17.2656 10.2242 17.2749 10.208 17.2749C10.1917 17.2749 10.1668 17.2888 10.1525 17.3058C10.1303 17.3325 10.0787 17.3655 9.84802 17.5008C9.78083 17.5402 9.72221 17.6002 9.72221 17.6295C9.72221 17.6449 9.70507 17.6666 9.68414 17.6777C9.64521 17.6984 9.50344 17.9471 9.47587 18.0431C9.46745 18.0724 9.44158 18.1366 9.41839 18.1857C9.3809 18.265 9.3789 18.2895 9.40027 18.4066C9.41347 18.479 9.41893 18.5436 9.4124 18.5501C9.40585 18.5566 9.41216 18.5759 9.42642 18.593C9.44068 18.6101 9.45453 18.6911 9.45717 18.773C9.45983 18.8549 9.46737 18.9474 9.47392 18.9786C9.49262 19.0676 9.49631 19.3323 9.47924 19.3597C9.47076 19.3733 9.47469 19.3911 9.48796 19.3993C9.50248 19.4082 9.50741 19.445 9.50033 19.4915C9.49354 19.536 9.50194 19.6051 9.52006 19.6542C9.53739 19.7011 9.55758 19.8047 9.5649 19.8843C9.57224 19.9639 9.58605 20.0338 9.5956 20.0396C9.60516 20.0455 9.60733 20.0649 9.60044 20.0828C9.59354 20.1007 9.60232 20.1508 9.62 20.1941C9.63765 20.2375 9.66745 20.3258 9.68622 20.3904C9.79388 20.7606 9.84804 20.8958 9.92083 20.9759C9.94151 20.9986 9.95841 21.0389 9.95841 21.0655C9.95841 21.1119 10.0465 21.2972 10.0884 21.3389C10.0996 21.35 10.1087 21.3813 10.1087 21.4083C10.1087 21.4352 10.1184 21.4573 10.1302 21.4573C10.142 21.4573 10.1517 21.4707 10.1517 21.4871C10.1517 21.5034 10.1641 21.5215 10.1792 21.5273C10.1944 21.5331 10.2258 21.5772 10.249 21.6254C10.2722 21.6735 10.301 21.713 10.3131 21.7132C10.3251 21.7133 10.3685 21.7626 10.4097 21.8228C10.4508 21.883 10.505 21.9622 10.5301 21.9989C10.5863 22.081 10.8275 22.3109 10.8576 22.3109C10.8697 22.3109 10.9033 22.3325 10.9322 22.3589C10.9612 22.3853 11.0173 22.4221 11.0568 22.4406C11.2513 22.5319 11.2836 22.5452 11.3434 22.5583C11.3788 22.5661 11.4416 22.5892 11.483 22.6096C11.6413 22.6878 11.6732 22.6997 11.7375 22.7048C11.7738 22.7076 11.816 22.7197 11.8312 22.7316C11.8463 22.7435 11.8732 22.7538 11.891 22.7546C11.9087 22.7554 11.9811 22.7713 12.052 22.79C12.1229 22.8086 12.205 22.8289 12.2345 22.835C12.2641 22.8411 12.3043 22.8509 12.324 22.8568C12.3437 22.8626 12.366 22.8574 12.3736 22.8452C12.3828 22.8304 12.4006 22.8299 12.4263 22.8436C12.4476 22.8549 12.4712 22.8581 12.4787 22.8507C12.4861 22.8433 12.4922 22.852 12.4922 22.87C12.4922 22.8907 12.519 22.9071 12.5649 22.9145C12.6049 22.921 12.6922 22.951 12.7588 22.9814C12.8255 23.0116 12.8887 23.0364 12.8993 23.0364C12.9342 23.0364 13.1879 23.2135 13.2933 23.3114C13.3924 23.4035 13.5014 23.5929 13.5014 23.673C13.5014 23.6937 13.5112 23.7204 13.5231 23.7323C13.535 23.7441 13.5489 23.7964 13.5539 23.8486C13.5675 23.9873 13.5803 24.0504 13.6042 24.0954C13.6158 24.1174 13.6254 24.1594 13.6253 24.1887C13.6253 24.2181 13.6371 24.2853 13.6515 24.3381C13.6814 24.4475 13.6923 24.7358 13.6712 24.8571C13.6634 24.9019 13.6657 24.9774 13.6765 25.0248C13.6872 25.0722 13.7012 25.3381 13.7076 25.6155C13.7213 26.2093 13.7218 26.2176 13.7471 26.2574C13.7599 26.2774 13.7579 26.291 13.7414 26.2965C13.7131 26.3059 13.7102 26.4316 13.735 26.5807C13.7439 26.6347 13.7446 26.6971 13.7364 26.7194C13.7282 26.7418 13.7311 26.7721 13.7429 26.7868C13.7575 26.8049 13.7556 26.8239 13.7369 26.8463C13.709 26.8797 13.6987 27.387 13.7251 27.4294C13.7319 27.4403 13.728 27.4985 13.7165 27.5588C13.7013 27.6384 13.7032 27.7019 13.7235 27.7904C13.7424 27.8727 13.7454 27.9402 13.7326 27.9978C13.7222 28.0447 13.7194 28.1167 13.7265 28.1578C13.7336 28.1989 13.7436 28.3717 13.7487 28.5419C13.7539 28.7121 13.7607 28.9378 13.764 29.0434C13.7672 29.149 13.7779 29.2479 13.7878 29.2631C13.7978 29.2784 13.8026 29.3364 13.7986 29.392C13.7917 29.488 13.7973 29.5001 13.9077 29.6263C14.1069 29.8539 14.2153 29.8998 14.5429 29.8951C14.9654 29.8891 15.0791 29.88 15.1155 29.8492C15.1434 29.8255 15.1613 29.8242 15.1968 29.8431C15.254 29.8735 15.3293 29.8641 15.3635 29.8223C15.3865 29.7941 15.3897 29.7944 15.3903 29.825C15.3907 29.8441 15.4073 29.8729 15.4273 29.889C15.459 29.9146 15.4617 29.9137 15.4495 29.8812C15.4393 29.8541 15.4454 29.8456 15.4723 29.8498C15.4926 29.853 15.5212 29.863 15.536 29.8722C15.5531 29.8828 15.5628 29.8768 15.5628 29.8555C15.5628 29.8373 15.5725 29.8223 15.5843 29.8223C15.5961 29.8223 15.6058 29.8346 15.6058 29.8497C15.6058 29.8648 15.6251 29.8771 15.6487 29.8771C15.6723 29.8771 15.6917 29.8696 15.6917 29.8604C15.6917 29.8319 15.74 29.8419 15.7812 29.8789C15.8028 29.8984 15.8205 29.9056 15.8205 29.8949C15.8205 29.8843 15.8664 29.8783 15.9225 29.8815C15.9786 29.8848 16.1066 29.8903 16.207 29.8938C16.3074 29.8974 16.3992 29.9037 16.411 29.9078C16.4656 29.927 16.6177 29.855 16.6574 29.7911C16.6802 29.7544 16.7187 29.7017 16.7429 29.674C16.767 29.6463 16.7868 29.6108 16.7868 29.595C16.7868 29.5791 16.8013 29.5662 16.819 29.5662C16.8367 29.5662 16.8512 29.5489 16.8512 29.5278C16.8512 29.4801 16.8992 29.3745 16.921 29.3743C16.9298 29.3742 16.9371 29.3597 16.9371 29.3421C16.9371 29.3245 16.9472 29.3101 16.9596 29.3101C16.9837 29.3101 17.0361 29.2002 17.0523 29.1157C17.0577 29.0877 17.0688 29.0479 17.077 29.0274C17.086 29.0049 17.0822 28.9901 17.0675 28.9901C17.0499 28.9901 17.0492 28.9784 17.0652 28.9488C17.0774 28.9261 17.0874 28.8812 17.0874 28.8491C17.0874 28.817 17.1027 28.7739 17.1214 28.7534C17.14 28.7329 17.1659 28.6479 17.1789 28.5646C17.1919 28.4813 17.2087 28.4231 17.2163 28.4353C17.2238 28.4475 17.229 28.3413 17.2277 28.1994C17.2264 28.0575 17.2325 27.937 17.2413 27.9315C17.2501 27.9261 17.2522 27.9086 17.246 27.8926C17.2398 27.8765 17.2456 27.8568 17.2587 27.8487C17.2754 27.8384 17.2759 27.8258 17.2605 27.8073C17.248 27.7923 17.2368 27.6555 17.235 27.4945C17.2332 27.337 17.2226 27.1966 17.2114 27.1825C17.2002 27.1683 17.1969 27.1474 17.204 27.136C17.2111 27.1245 17.2069 27.109 17.1947 27.1015C17.1826 27.094 17.1771 27.0807 17.1825 27.0719C17.188 27.0631 17.1976 26.9606 17.2039 26.844C17.2102 26.7274 17.2252 26.5985 17.2373 26.5574C17.2524 26.5059 17.2523 26.4804 17.2368 26.4753C17.2217 26.4703 17.2222 26.4586 17.2384 26.4392C17.2563 26.4177 17.2534 26.3916 17.2266 26.3356C17.207 26.2945 17.197 26.2509 17.2045 26.2389C17.2263 26.2039 17.2333 25.981 17.213 25.9686C17.2029 25.9624 17.2063 25.9363 17.2206 25.9106C17.2503 25.857 17.2446 25.7861 17.2086 25.7621C17.1912 25.7505 17.1943 25.7397 17.2191 25.7251C17.2463 25.7091 17.2526 25.6789 17.2468 25.5921C17.2379 25.4574 17.2291 25.4007 17.2126 25.3727C17.2059 25.3612 17.204 25.3325 17.2086 25.309C17.2132 25.2856 17.2163 25.252 17.2156 25.2344C17.2115 25.1277 17.2297 24.4347 17.2372 24.4128C17.2412 24.4011 17.2364 24.3728 17.2265 24.3501C17.2148 24.3231 17.2173 24.3057 17.2338 24.3003C17.2478 24.2957 17.2592 24.2644 17.2592 24.2309C17.2592 24.1974 17.269 24.1639 17.281 24.1565C17.293 24.1491 17.2966 24.1331 17.2889 24.1208C17.2813 24.1085 17.2735 23.9915 17.2717 23.8608C17.2699 23.7302 17.261 23.6113 17.2518 23.5966C17.2427 23.5819 17.243 23.5699 17.2525 23.5699C17.2621 23.5699 17.2701 23.4523 17.2703 23.3085C17.2706 23.102 17.2639 23.042 17.2387 23.0226C17.213 23.0029 17.2067 22.9347 17.2062 22.6705C17.2058 22.4903 17.1973 22.3303 17.1873 22.3149C17.1759 22.2974 17.1819 22.2728 17.2031 22.2495C17.2293 22.2207 17.2313 22.2064 17.2116 22.1868C17.192 22.1673 17.1951 22.1615 17.2253 22.1615C17.2585 22.1615 17.2602 22.1564 17.2363 22.1279C17.214 22.1012 17.2138 22.0909 17.2351 22.0778C17.2649 22.0595 17.2604 21.9034 17.2295 21.8811C17.219 21.8736 17.2258 21.8458 17.2444 21.8193C17.266 21.7887 17.2738 21.7487 17.2659 21.7094C17.2568 21.6644 17.264 21.6399 17.2922 21.6195C17.3274 21.5939 17.3283 21.5822 17.3024 21.4903C17.2783 21.4046 17.2785 21.3864 17.3041 21.3703C17.3207 21.3598 17.3247 21.351 17.3128 21.3506C17.301 21.3503 17.3059 21.3407 17.3236 21.3293C17.3511 21.3116 17.3503 21.3086 17.3182 21.3083C17.2713 21.3079 17.2701 21.2788 17.3153 21.2339C17.3472 21.2021 17.3472 21.1963 17.3143 21.1602C17.2814 21.1241 17.2813 21.1183 17.3134 21.0864C17.3325 21.0674 17.3571 21.0519 17.3681 21.0519C17.3978 21.0519 17.3921 20.9931 17.3612 20.9806C17.341 20.9725 17.3423 20.9643 17.3665 20.9475C17.4084 20.9186 17.4087 20.8532 17.367 20.8347C17.3399 20.8226 17.3407 20.8199 17.3719 20.8187C17.3926 20.8178 17.4095 20.8039 17.4095 20.7878C17.4095 20.7716 17.4234 20.7469 17.4404 20.7328C17.4574 20.7188 17.4665 20.6949 17.4606 20.6796C17.4548 20.6644 17.465 20.6462 17.4834 20.6392C17.5018 20.6322 17.5168 20.6084 17.5168 20.5864C17.5168 20.5644 17.5551 20.4876 17.6019 20.4157C17.6486 20.3438 17.7028 20.2535 17.7223 20.215C17.7419 20.1765 17.7763 20.1258 17.799 20.1023C18.0046 19.889 18.1042 19.7798 18.1325 19.7369C18.1509 19.709 18.1761 19.6862 18.1885 19.6862C18.2009 19.6862 18.2711 19.631 18.3446 19.5635C18.5266 19.3962 18.5167 19.4023 18.6978 19.3457C18.7864 19.3181 18.8734 19.2833 18.8911 19.2684C18.9476 19.2209 19.348 19.0675 19.4279 19.0628C19.4456 19.0618 19.465 19.0547 19.4709 19.0472C19.4842 19.0302 19.8284 18.918 19.8672 18.918C19.8827 18.918 19.9231 18.9036 19.9569 18.8861C19.9907 18.8686 20.0329 18.8541 20.0506 18.854C20.0684 18.8538 20.1076 18.8409 20.1378 18.8252C20.168 18.8095 20.2357 18.79 20.2881 18.7818C20.3811 18.7673 20.5765 18.7157 20.6626 18.6829C20.6862 18.674 20.749 18.655 20.8022 18.6408C20.8553 18.6266 20.9133 18.6029 20.931 18.588C20.9487 18.5731 20.9922 18.5544 21.0277 18.5465C21.1039 18.5294 21.164 18.5026 21.5762 18.3019C21.7479 18.2182 21.9043 18.1498 21.9236 18.1498C21.943 18.1498 21.965 18.1305 21.9725 18.1069C21.9851 18.0674 22.1416 17.9791 22.1989 17.9791C22.2125 17.9791 22.2498 17.9526 22.2819 17.9204C22.3583 17.8434 22.5664 17.6644 22.7082 17.5537C22.7703 17.5052 22.8428 17.4323 22.8692 17.3918C22.8956 17.3512 22.9294 17.3179 22.9441 17.3178C22.9589 17.3177 22.9709 17.307 22.9709 17.2941C22.9709 17.2813 22.9927 17.2405 23.0193 17.2036C23.0458 17.1666 23.0855 17.1027 23.1075 17.0616C23.1295 17.0204 23.1606 16.9719 23.1767 16.9538C23.2211 16.9036 23.3054 16.7387 23.3233 16.6667C23.3321 16.6315 23.3523 16.5883 23.3682 16.5707C23.3841 16.5531 23.4208 16.4686 23.4498 16.383C23.4788 16.2974 23.5085 16.2214 23.5158 16.2141C23.5232 16.2068 23.5295 16.1808 23.5299 16.1563C23.5303 16.1319 23.5448 16.0932 23.5621 16.0705C23.5795 16.0477 23.5937 16.0099 23.5937 15.9866C23.5937 15.9633 23.6031 15.9147 23.6147 15.8787C23.6262 15.8426 23.6544 15.7555 23.6774 15.6851C23.7004 15.6147 23.7258 15.4946 23.7339 15.4184C23.7421 15.3421 23.7585 15.2677 23.7705 15.253C23.7824 15.2383 23.785 15.2263 23.7762 15.2263C23.7674 15.2263 23.7714 15.2129 23.785 15.1965C23.7987 15.1802 23.8084 15.1586 23.8066 15.1485C23.7941 15.0796 23.8134 14.9256 23.8374 14.9017C23.8623 14.877 23.9095 14.6382 23.9255 14.4563C23.9281 14.4259 23.9359 14.392 23.9428 14.381C23.9497 14.37 23.9563 14.2796 23.9575 14.1801C23.9586 14.0807 23.9639 13.9129 23.9692 13.8072C24.0054 13.0766 24.0071 12.9651 23.9877 12.5376C23.9805 12.3791 23.9765 12.1432 23.9787 12.0134C23.9832 11.754 23.9313 11.3207 23.8816 11.2025C23.8642 11.1611 23.8519 11.1156 23.8543 11.1015C23.8585 11.0775 23.8287 10.996 23.7846 10.9108C23.7741 10.8904 23.7654 10.8548 23.7654 10.8318C23.7654 10.8087 23.7533 10.7822 23.7384 10.7728C23.7235 10.7634 23.6933 10.7029 23.6712 10.6384C23.6491 10.5738 23.6193 10.5114 23.6051 10.4997C23.5909 10.4879 23.5544 10.4399 23.5241 10.393C23.4938 10.346 23.4294 10.2648 23.381 10.2125C23.3326 10.1601 23.293 10.1097 23.293 10.1004C23.293 10.0912 23.2737 10.0836 23.2501 10.0836C23.2265 10.0836 23.2071 10.074 23.2071 10.0622C23.2071 10.0505 23.1902 10.0408 23.1696 10.0408C23.1489 10.0407 23.1076 10.028 23.0777 10.0125C22.9054 9.92312 22.525 9.90286 22.3146 9.9719C22.0399 10.0621 21.8943 10.1682 21.7393 10.3915C21.5896 10.6072 21.5368 10.7117 21.5234 10.8193C21.5185 10.8587 21.5006 10.923 21.4837 10.9621C21.4372 11.0693 21.3791 11.2489 21.3729 11.3042C21.3699 11.3312 21.3564 11.3869 21.3429 11.4279C21.3295 11.469 21.3131 11.5458 21.3066 11.5986C21.3002 11.6515 21.286 11.7619 21.2752 11.844C21.2643 11.9262 21.2506 12.0894 21.2447 12.2068C21.2388 12.3242 21.2234 12.4626 21.2104 12.5145C21.1975 12.5663 21.1917 12.6213 21.1976 12.6366C21.2035 12.6519 21.1996 12.6911 21.1889 12.7237C21.1782 12.7563 21.164 12.8934 21.1573 13.0284C21.1423 13.334 21.1314 13.4427 21.1048 13.5512C21.0811 13.6475 21.0563 13.8565 21.0478 14.0313C21.0417 14.1549 20.9738 14.4314 20.9175 14.5621C20.8991 14.6046 20.8795 14.6683 20.8738 14.7035C20.8461 14.8751 20.596 15.2508 20.3566 15.4804C20.271 15.5625 20.2009 15.638 20.2009 15.6481C20.2009 15.6583 20.1642 15.6871 20.1193 15.7122C20.0744 15.7372 20.0201 15.777 19.9987 15.8005C19.9771 15.8243 19.9179 15.8495 19.8654 15.8573C19.8134 15.8651 19.7658 15.8796 19.7596 15.8897C19.7533 15.8998 19.7124 15.9243 19.6686 15.9442C19.6248 15.9641 19.5755 15.9908 19.559 16.0035C19.4884 16.0578 19.2572 16.0857 18.8589 16.0881C18.4218 16.0907 18.2215 16.0672 18.0731 15.9959C18.0225 15.9717 17.9699 15.9518 17.9562 15.9518C17.9106 15.9518 17.6571 15.7493 17.6285 15.69C17.613 15.6579 17.5912 15.6317 17.5801 15.6317C17.5689 15.6317 17.5598 15.6173 17.5598 15.5997C17.5598 15.5821 17.5501 15.5677 17.5383 15.5677C17.5265 15.5677 17.5168 15.5555 17.5168 15.5406C17.5168 15.5256 17.4892 15.48 17.4555 15.4392C17.3888 15.3586 17.3553 15.2792 17.3636 15.2218C17.3666 15.2017 17.3575 15.164 17.3435 15.138C17.3067 15.0697 17.2643 14.8757 17.2489 14.7051C17.2416 14.6238 17.2316 14.5508 17.2267 14.543C17.2188 14.5303 17.1911 13.7252 17.1901 13.4765C17.1882 13.0558 17.2421 12.1753 17.2768 12.0574C17.2872 12.0222 17.2961 11.8858 17.2967 11.7542C17.2977 11.4818 17.3177 11.2288 17.3443 11.1505C17.3543 11.1212 17.379 11.0252 17.3991 10.9371C17.4192 10.8491 17.448 10.7531 17.4629 10.7237C17.4779 10.6944 17.4997 10.6464 17.5113 10.617C17.5552 10.5068 17.5918 10.4337 17.6342 10.3716C17.6582 10.3364 17.6984 10.2644 17.7234 10.2116C17.7484 10.1588 17.7991 10.0783 17.8361 10.0326C17.8731 9.98698 17.9034 9.94258 17.9034 9.93394C17.9034 9.90158 18.0903 9.72483 18.3532 9.5086C18.4662 9.41567 18.8058 9.23 18.8628 9.23C18.9868 9.23 19.6144 8.64236 19.7269 8.42082C19.7483 8.3788 19.8009 8.28013 19.8438 8.20156C19.8867 8.12299 19.9218 8.03417 19.9218 8.00417C19.9218 7.97419 19.9323 7.94965 19.9451 7.94965C19.9579 7.94965 19.9641 7.93764 19.9589 7.92298C19.9537 7.90832 19.958 7.87343 19.9684 7.84547C20.0191 7.70924 20.0208 7.06866 19.9705 7.00582C19.9586 6.9909 19.9373 6.94031 19.9231 6.89336C19.8905 6.78543 19.8565 6.71102 19.8193 6.66606C19.8032 6.64666 19.7932 6.61529 19.7969 6.59632C19.8007 6.57682 19.7812 6.5504 19.7518 6.53555C19.7233 6.52108 19.6847 6.47819 19.666 6.44023C19.6472 6.40224 19.6161 6.36594 19.5967 6.35952C19.5774 6.3531 19.5372 6.32655 19.5075 6.30052C19.3737 6.18322 19.3093 6.13582 19.2837 6.13582C19.2686 6.13582 19.2561 6.12622 19.2561 6.11448C19.2561 6.10275 19.2432 6.09314 19.2273 6.09314C19.2114 6.09314 19.1806 6.0736 19.1588 6.04972C19.1371 6.02582 19.1062 6.01127 19.0903 6.01735C19.0743 6.02343 19.0558 6.01417 19.049 5.99676C19.0423 5.97934 19.0137 5.96511 18.9854 5.96511C18.9572 5.96511 18.934 5.9566 18.934 5.94618C18.934 5.92623 18.8578 5.90734 18.6978 5.88773C18.5581 5.8706 17.9956 5.87335 17.9663 5.89132C17.9527 5.89971 17.8774 5.90948 17.799 5.91306C17.6131 5.92156 17.5186 5.93709 17.4852 5.96464C17.4484 5.99501 17.4007 5.93684 17.4157 5.87986C17.4219 5.85632 17.4182 5.83708 17.4075 5.83708C17.3968 5.83708 17.388 5.8486 17.388 5.86268C17.388 5.88161 17.3817 5.88204 17.3639 5.86435C17.3507 5.85118 17.3278 5.84501 17.3131 5.85063C17.2983 5.85624 17.2811 5.84109 17.2747 5.81695C17.2677 5.79028 17.2455 5.77306 17.2182 5.77306C17.1935 5.77306 17.1733 5.76345 17.1733 5.75172C17.1733 5.73998 17.1854 5.73023 17.2001 5.73006C17.219 5.72982 17.2199 5.72507 17.203 5.71405C17.1898 5.70543 17.1718 5.67436 17.163 5.64502C17.1542 5.61568 17.1234 5.5666 17.0946 5.53596C17.0558 5.49482 17.0457 5.46624 17.0556 5.42674C17.0662 5.38486 17.0565 5.36335 17.0109 5.32775C16.9691 5.295 16.9626 5.28226 16.9879 5.28226C17.0402 5.28226 17.0331 5.18243 16.9786 5.15348C16.9444 5.13529 16.9398 5.1233 16.9584 5.10105C16.9722 5.08453 16.978 5.03272 16.9719 4.97984C16.966 4.92905 16.9606 4.86051 16.9599 4.82754C16.9591 4.79457 16.9502 4.77274 16.9399 4.77902C16.9295 4.78546 16.9294 4.74763 16.9398 4.69234C16.9595 4.58739 16.9441 4.43554 16.9117 4.41565C16.9004 4.40868 16.9023 4.39122 16.9164 4.37438C16.93 4.3581 16.9331 4.33301 16.9235 4.3176C16.9139 4.30241 16.9031 4.26598 16.8995 4.23664C16.8801 4.08195 16.8709 3.97769 16.8656 3.85206C16.8624 3.7755 16.8515 3.69962 16.8415 3.68344C16.8168 3.64386 16.8126 3.50648 16.835 3.47581C16.8633 3.43715 16.8301 3.34379 16.7719 3.29829C16.7374 3.27134 16.7231 3.24347 16.7309 3.21859C16.7582 3.13161 16.6282 2.85081 16.5427 2.8121C16.5075 2.79616 16.4796 2.75822 16.4633 2.704C16.4472 2.65078 16.4259 2.62137 16.4045 2.62299C16.3855 2.62445 16.3653 2.60255 16.3578 2.57219C16.3493 2.538 16.3295 2.51884 16.3026 2.51884C16.2708 2.51884 16.259 2.50172 16.2539 2.44818C16.2497 2.40489 16.2372 2.38111 16.2216 2.38679C16.2077 2.39187 16.1769 2.37941 16.1533 2.35907C16.1051 2.31752 15.7497 2.22632 15.704 2.24375C15.6878 2.24994 15.6681 2.24476 15.6603 2.23221C15.6525 2.21968 15.6395 2.21074 15.6313 2.21234C15.6232 2.21394 15.5585 2.22254 15.4877 2.23144ZM16.3251 2.46549C16.3324 2.47723 16.3426 2.48683 16.3478 2.48683C16.3531 2.48683 16.3573 2.47723 16.3573 2.46549C16.3573 2.45375 16.3471 2.44415 16.3346 2.44415C16.3221 2.44415 16.3178 2.45375 16.3251 2.46549ZM17.431 5.92243C17.431 5.93417 17.4412 5.94377 17.4537 5.94377C17.4662 5.94377 17.4705 5.93417 17.4632 5.92243C17.4559 5.9107 17.4456 5.90109 17.4404 5.90109C17.4352 5.90109 17.431 5.9107 17.431 5.92243ZM17.3528 5.95444C17.3596 5.97205 17.3568 5.98645 17.3467 5.98645C17.3365 5.98645 17.3226 5.97205 17.3158 5.95444C17.309 5.93684 17.3118 5.92243 17.322 5.92243C17.3321 5.92243 17.346 5.93684 17.3528 5.95444ZM11.483 17.1682C11.483 17.1799 11.4932 17.1895 11.5057 17.1895C11.5182 17.1895 11.5225 17.1799 11.5152 17.1682C11.5079 17.1564 11.4977 17.1468 11.4924 17.1468C11.4872 17.1468 11.483 17.1564 11.483 17.1682ZM11.6977 17.3389C11.6977 17.3506 11.7074 17.3602 11.7192 17.3602C11.731 17.3602 11.7407 17.3506 11.7407 17.3389C11.7407 17.3271 11.731 17.3175 11.7192 17.3175C11.7074 17.3175 11.6977 17.3271 11.6977 17.3389ZM11.8158 17.5949C11.8231 17.6067 11.8194 17.6163 11.8076 17.6163C11.7958 17.6163 11.7802 17.6067 11.7729 17.5949C11.7656 17.5832 11.7693 17.5736 11.7811 17.5736C11.7929 17.5736 11.8085 17.5832 11.8158 17.5949ZM11.9983 17.659C11.9983 17.6707 12.0086 17.6803 12.0211 17.6803C12.0336 17.6803 12.0378 17.6707 12.0305 17.659C12.0232 17.6472 12.013 17.6376 12.0078 17.6376C12.0026 17.6376 11.9983 17.6472 11.9983 17.659ZM17.3236 21.1172C17.3236 21.1296 17.3332 21.1338 17.3451 21.1266C17.3569 21.1193 17.3665 21.1092 17.3665 21.104C17.3665 21.0988 17.3569 21.0946 17.3451 21.0946C17.3332 21.0946 17.3236 21.1047 17.3236 21.1172Z" fill="#FAFDFF"/>
<path d="M12.1992 24.0463C12.2213 23.9607 12.3312 23.8222 12.3853 23.8117C12.4736 23.7945 12.578 23.8006 12.6358 23.8263C12.7493 23.8767 12.8421 23.9382 12.8421 23.963C12.8421 23.9873 12.8765 24.0349 12.9554 24.1197C12.9824 24.1486 12.9964 24.1863 12.9965 24.2307C12.9967 24.2676 13.0092 24.3336 13.0244 24.3772C13.0423 24.4283 13.0494 24.4972 13.0446 24.5709C13.0405 24.6337 13.0437 24.6918 13.0517 24.7001C13.0598 24.7083 13.0707 24.7628 13.076 24.8211C13.0813 24.8795 13.0927 24.9366 13.1013 24.9481C13.11 24.9596 13.1152 24.9975 13.1129 25.0324C13.1105 25.0673 13.1161 25.105 13.1253 25.1162C13.1351 25.1282 13.1354 25.1543 13.1261 25.1795C13.1151 25.2092 13.1174 25.2282 13.1334 25.2408C13.1513 25.2548 13.1527 25.2838 13.1396 25.3645C13.1301 25.4224 13.1286 25.4795 13.1362 25.4914C13.1555 25.5216 13.154 25.903 13.1347 25.903C13.1259 25.903 13.1289 25.9152 13.1413 25.9301C13.1537 25.945 13.1596 25.9794 13.1544 26.0065C13.148 26.0397 13.1548 26.063 13.1749 26.078C13.2024 26.0984 13.2019 26.1027 13.1686 26.1297C13.1458 26.1482 13.14 26.1624 13.1529 26.1679C13.1669 26.1739 13.1687 26.1978 13.1585 26.2433C13.1488 26.2862 13.1505 26.3183 13.1632 26.3336C13.174 26.3466 13.1777 26.3625 13.1714 26.3688C13.165 26.3751 13.1688 26.3911 13.1798 26.4042C13.1938 26.4211 13.1941 26.4441 13.1809 26.4819C13.1672 26.5213 13.1679 26.5377 13.1835 26.5434C13.1995 26.5492 13.1989 26.5613 13.181 26.5915C13.1607 26.6257 13.1614 26.6349 13.1857 26.6528C13.2079 26.6692 13.2106 26.6864 13.1979 26.7303C13.1889 26.7614 13.1868 26.7953 13.1932 26.8057C13.1997 26.8161 13.2049 26.8743 13.2049 26.9349C13.2049 27.0109 13.2125 27.0481 13.2295 27.0546C13.243 27.0598 13.2496 27.0756 13.2441 27.0898C13.2387 27.1039 13.2445 27.124 13.257 27.1344C13.2736 27.1482 13.2957 27.1387 13.3387 27.0994C13.3711 27.0698 13.391 27.0454 13.3829 27.0451C13.3748 27.0448 13.3824 27.0362 13.3999 27.0261C13.4337 27.0064 13.4845 26.9057 13.5331 26.762C13.5495 26.7135 13.5894 26.6208 13.6217 26.5559C13.654 26.4911 13.6858 26.4156 13.6924 26.3882C13.6991 26.3607 13.7125 26.3383 13.7223 26.3383C13.7321 26.3383 13.7401 26.3232 13.7401 26.3047C13.7401 26.2862 13.7605 26.2328 13.7854 26.1859C13.8104 26.1389 13.8308 26.0883 13.8308 26.0734C13.8308 26.0584 13.8512 26.0161 13.8761 25.9794C13.9011 25.9427 13.9215 25.9052 13.9215 25.8961C13.9215 25.887 13.948 25.8378 13.9804 25.7868C14.0731 25.6411 14.082 25.6263 14.1234 25.5493C14.1757 25.452 14.3654 25.2753 14.4361 25.258C14.519 25.2378 14.6649 25.2347 14.6762 25.253C14.6816 25.2617 14.6926 25.2647 14.7007 25.2597C14.7087 25.2547 14.7551 25.2897 14.8037 25.3374C14.8523 25.3852 14.9065 25.4297 14.9241 25.4364C14.9612 25.4506 14.9892 25.5153 14.9992 25.6099C15.003 25.6464 15.0146 25.7027 15.0249 25.735C15.0352 25.7673 15.0371 25.7977 15.0291 25.8026C15.0149 25.8114 14.9975 25.8768 14.9805 25.9846C14.9758 26.0145 14.9671 26.0513 14.961 26.0662C14.955 26.0812 14.9472 26.1097 14.9436 26.1297C14.9356 26.1746 14.8816 26.2842 14.8517 26.3162C14.8395 26.3293 14.8165 26.3702 14.8006 26.4071C14.7426 26.5423 14.7268 26.5651 14.6874 26.5708C14.6628 26.5743 14.6472 26.5893 14.6472 26.6094C14.6472 26.6274 14.6345 26.6526 14.6191 26.6654C14.6037 26.6782 14.5952 26.6994 14.6002 26.7125C14.6052 26.7256 14.5989 26.7427 14.586 26.7504C14.5506 26.7718 14.5071 26.8613 14.4746 26.9796C14.454 27.0547 14.4351 27.0885 14.4102 27.0951C14.3906 27.1002 14.375 27.1199 14.375 27.1396C14.375 27.1591 14.3546 27.2017 14.3297 27.2344C14.3047 27.2671 14.2843 27.3033 14.2843 27.3148C14.2843 27.3264 14.2768 27.3358 14.2676 27.3358C14.2584 27.3358 14.2417 27.3636 14.2305 27.3975C14.2193 27.4315 14.1896 27.4814 14.1646 27.5084C14.1168 27.56 14.1181 27.5935 14.1664 27.5535C14.1819 27.5406 14.1988 27.5345 14.2042 27.5398C14.2095 27.5452 14.1889 27.5673 14.1584 27.589C14.0937 27.635 14.089 27.6544 14.1392 27.6675C14.1591 27.6727 14.1755 27.6905 14.1755 27.707C14.1755 27.7235 14.1837 27.7319 14.1937 27.7257C14.2058 27.7182 14.2058 27.7032 14.1937 27.6805C14.168 27.6326 14.1711 27.6079 14.2027 27.6079C14.2177 27.6079 14.2299 27.6201 14.2299 27.6351C14.2299 27.65 14.2389 27.6623 14.25 27.6623C14.2624 27.6623 14.2661 27.643 14.2598 27.6124C14.2541 27.585 14.2539 27.5727 14.2593 27.5852C14.2648 27.5977 14.2828 27.608 14.2994 27.6081C14.3233 27.6084 14.3245 27.6117 14.3051 27.624C14.2915 27.6326 14.2875 27.644 14.2962 27.6493C14.3049 27.6547 14.3281 27.6472 14.3479 27.6328C14.3788 27.6102 14.3801 27.604 14.3568 27.5893C14.3336 27.5746 14.3342 27.5721 14.3609 27.5719C14.3821 27.5717 14.3884 27.5622 14.3808 27.5423C14.3717 27.5186 14.3775 27.5155 14.4112 27.5262C14.4471 27.5376 14.4515 27.5342 14.443 27.5017C14.4376 27.481 14.4397 27.4658 14.4478 27.4679C14.4558 27.4701 14.5345 27.3983 14.6228 27.3084C14.7924 27.1356 14.8672 27.0731 14.9788 27.0112C15.0634 26.9642 15.0841 26.9639 15.1717 27.0086C15.21 27.0281 15.2458 27.0396 15.2512 27.0342C15.2682 27.0172 15.391 27.0848 15.391 27.1112C15.391 27.125 15.4064 27.1363 15.4252 27.1363C15.4465 27.1363 15.4708 27.1603 15.4895 27.1998C15.5061 27.2347 15.5281 27.2633 15.5385 27.2633C15.5488 27.2633 15.5537 27.2735 15.5495 27.2859C15.5452 27.2984 15.5494 27.3331 15.5589 27.363C15.5683 27.3929 15.575 27.4411 15.5737 27.47C15.5713 27.5238 15.4836 27.6985 15.459 27.6985C15.4515 27.6986 15.4454 27.7139 15.4454 27.7326C15.4454 27.7513 15.4331 27.7768 15.4182 27.7892C15.4032 27.8017 15.3907 27.8251 15.3904 27.8413C15.3897 27.8753 15.3493 27.9338 15.3255 27.9354C15.3166 27.936 15.2886 27.9788 15.2632 28.0306C15.2378 28.0824 15.2092 28.1233 15.1997 28.1215C15.1707 28.1161 15.1188 28.1735 15.1188 28.2109C15.1188 28.2302 15.1041 28.2499 15.0861 28.2546C15.0508 28.2639 14.9666 28.4023 14.9766 28.4345C14.98 28.4452 14.9542 28.482 14.9193 28.5161C14.8844 28.5503 14.8284 28.6211 14.7949 28.6735C14.7615 28.7258 14.7259 28.7686 14.7159 28.7686C14.7059 28.7686 14.7021 28.7801 14.7075 28.7941C14.7186 28.8231 14.6579 28.8862 14.6334 28.8711C14.6246 28.8656 14.604 28.8768 14.5876 28.8959C14.5692 28.9174 14.5649 28.9349 14.5762 28.9419C14.5994 28.9563 14.562 29.0044 14.5277 29.0044C14.4886 29.0044 14.459 29.0742 14.4848 29.1053C14.502 29.126 14.5009 29.1314 14.4798 29.1314C14.4652 29.1314 14.4384 29.1477 14.4204 29.1677C14.3924 29.1986 14.3917 29.2039 14.4159 29.2039C14.4353 29.2039 14.4412 29.2154 14.4347 29.2402C14.423 29.2848 14.398 29.2875 14.3898 29.245C14.3853 29.2218 14.3718 29.2327 14.3388 29.2858C14.3142 29.3256 14.2863 29.3703 14.2769 29.3853C14.262 29.4089 14.2638 29.4092 14.2907 29.3872C14.3188 29.3642 14.3212 29.3675 14.3174 29.4235C14.3113 29.5135 14.2249 29.6428 14.1132 29.729C14.0593 29.7705 14.0112 29.8151 14.0062 29.8281C13.9966 29.8531 13.9291 29.8715 13.7945 29.8859C13.7496 29.8907 13.6802 29.8989 13.6403 29.904C13.5248 29.9189 13.4107 29.9213 13.4031 29.909C13.3926 29.892 13.3 29.895 13.265 29.9134C13.2477 29.9225 13.2301 29.9226 13.2246 29.9138C13.2192 29.9051 13.1952 29.9018 13.1712 29.9063C13.1472 29.9109 13.1218 29.9054 13.1147 29.894C13.1051 29.8785 13.0954 29.8786 13.0763 29.8945C13.0587 29.909 13.0435 29.9099 13.028 29.8973C13.0142 29.8861 12.971 29.8842 12.9178 29.8924C12.8343 29.9053 12.7152 29.8941 12.6754 29.8695C12.6651 29.8631 12.6295 29.8657 12.5961 29.8753C12.5528 29.8877 12.5318 29.8866 12.5224 29.8714C12.5125 29.8554 12.5021 29.856 12.4806 29.8739C12.4649 29.8869 12.452 29.8898 12.452 29.8803C12.452 29.8607 12.3988 29.8609 12.3671 29.8805C12.3556 29.8876 12.3435 29.8851 12.3402 29.8751C12.3362 29.8632 12.3137 29.8627 12.2754 29.8736C12.2431 29.8829 12.186 29.8863 12.1484 29.8812C12.1108 29.876 12.0597 29.8708 12.0348 29.8695C12.0098 29.8682 11.9837 29.8588 11.9767 29.8487C11.9684 29.8368 11.9107 29.8482 11.8148 29.8804C11.7285 29.9095 11.6613 29.9234 11.6551 29.9134C11.6422 29.8926 11.4747 29.8929 11.4617 29.9138C11.4567 29.922 11.4386 29.9212 11.4216 29.9121C11.4047 29.903 11.3397 29.8852 11.2774 29.8725C11.2086 29.8585 11.164 29.8401 11.164 29.8259C11.164 29.813 11.1558 29.8025 11.1458 29.8025C11.1358 29.8025 11.1277 29.7897 11.1277 29.774C11.1277 29.7544 11.1171 29.749 11.0935 29.7564C11.0539 29.769 10.995 29.6838 10.9733 29.5825C10.9661 29.5489 10.9541 29.5132 10.9467 29.5032C10.9334 29.4854 10.9109 29.4109 10.8976 29.3407C10.8939 29.3212 10.8845 29.3008 10.8767 29.2954C10.8689 29.29 10.852 29.257 10.8391 29.2221C10.7917 29.0938 10.6645 28.8421 10.6469 28.8416C10.637 28.8413 10.6132 28.8023 10.5942 28.755C10.5751 28.7076 10.5455 28.6552 10.5284 28.6386C10.5113 28.6219 10.4698 28.5508 10.4361 28.4806C10.4024 28.4104 10.3661 28.3526 10.3555 28.3522C10.333 28.3514 10.2569 28.253 10.2569 28.2247C10.2569 28.214 10.2446 28.2006 10.2297 28.1948C10.2147 28.1891 10.2025 28.173 10.2025 28.1591C10.2025 28.1452 10.1958 28.1338 10.1877 28.1338C10.1796 28.1338 10.1454 28.0971 10.1118 28.0522C10.0781 28.0073 10.045 27.9706 10.0381 27.9706C10.0312 27.9706 9.99396 27.9415 9.9553 27.906C9.91662 27.8704 9.85641 27.8279 9.82149 27.8114C9.78656 27.7949 9.74217 27.7668 9.72281 27.749C9.70348 27.7312 9.67661 27.7167 9.66309 27.7167C9.64959 27.7167 9.62868 27.7084 9.61663 27.6982C9.5178 27.6148 9.48335 27.5898 9.46724 27.5898C9.45699 27.5898 9.42551 27.5634 9.39732 27.5313C9.34924 27.4765 9.34679 27.466 9.35822 27.3635C9.37346 27.2268 9.44454 27.0682 9.5162 27.0111C9.60252 26.9423 9.92143 26.8749 9.94908 26.9196C9.9555 26.93 9.9945 26.9398 10.0358 26.9415C10.0773 26.9431 10.1148 26.9548 10.1197 26.9675C10.1245 26.9802 10.139 26.9866 10.1519 26.9818C10.1647 26.977 10.2038 26.9912 10.2387 27.0134C10.2737 27.0357 10.3307 27.0625 10.3654 27.0729C10.4013 27.0837 10.438 27.1107 10.4502 27.1351C10.462 27.1588 10.4907 27.1805 10.514 27.1831C10.5816 27.1909 10.6923 27.2436 10.6923 27.268C10.6923 27.3 10.8698 27.4809 10.9011 27.4809C10.9155 27.4809 10.9399 27.5054 10.9553 27.5353C10.9708 27.5652 10.9955 27.5897 11.0102 27.5897C11.0249 27.5897 11.0379 27.604 11.0391 27.6215C11.0411 27.6517 11.0416 27.6517 11.0495 27.6215C11.054 27.604 11.0641 27.5897 11.0718 27.5897C11.0951 27.5897 11.1468 27.6553 11.1338 27.6683C11.1271 27.675 11.1307 27.6804 11.1417 27.6804C11.1704 27.6804 11.1862 27.6488 11.1643 27.6353C11.1366 27.6182 11.1421 27.5897 11.173 27.5897C11.188 27.5897 11.2009 27.5755 11.2018 27.558C11.2026 27.5405 11.2057 27.5058 11.2088 27.4809C11.2157 27.4239 11.1753 27.2617 11.1403 27.2058C11.1257 27.1825 11.1084 27.1272 11.1018 27.0828C11.0952 27.0384 11.083 26.9935 11.0746 26.983C11.0388 26.9382 10.9463 26.7477 10.9463 26.7188C10.9463 26.7015 10.9345 26.6776 10.9202 26.6657C10.9059 26.6538 10.889 26.6207 10.8828 26.5922C10.8765 26.5636 10.8596 26.5306 10.8453 26.5187C10.831 26.5068 10.8193 26.4876 10.8193 26.4761C10.8193 26.4361 10.7084 26.2383 10.6658 26.2022C10.6422 26.1823 10.6138 26.1317 10.6027 26.0897C10.5916 26.0478 10.5725 26.0029 10.5603 25.99C10.5481 25.977 10.5137 25.9297 10.4839 25.8848C10.4541 25.84 10.3922 25.7583 10.3463 25.7035C10.1954 25.5233 10.1177 25.3504 10.1362 25.2362C10.1523 25.1373 10.2206 25.0134 10.2693 24.9949C10.2936 24.9856 10.3091 24.9709 10.3037 24.9622C10.2759 24.9172 10.4948 24.7785 10.5937 24.7785C10.6268 24.7785 10.6589 24.7866 10.6651 24.7966C10.6712 24.8066 10.6911 24.8148 10.7093 24.8148C10.7274 24.8148 10.7524 24.827 10.7648 24.842C10.7773 24.8569 10.7997 24.8692 10.8148 24.8692C10.842 24.8692 11.0362 24.9932 11.0955 25.0485C11.1997 25.1456 11.2561 25.209 11.2662 25.2403C11.2725 25.2598 11.3338 25.3323 11.4023 25.4014C11.4708 25.4704 11.5268 25.534 11.5268 25.5426C11.5268 25.5513 11.539 25.5584 11.554 25.5584C11.569 25.5584 11.5812 25.5694 11.5812 25.5828C11.5812 25.621 11.6362 25.7216 11.6571 25.7216C11.6674 25.7216 11.6713 25.7333 11.6659 25.7475C11.6604 25.7617 11.669 25.7842 11.685 25.7974C11.701 25.8106 11.7295 25.856 11.7483 25.8985C11.7671 25.9409 11.7909 25.9755 11.8013 25.9755C11.8116 25.9755 11.8164 25.9857 11.8119 25.9982C11.8074 26.0107 11.814 26.0331 11.8265 26.0481C11.8548 26.0817 11.9367 26.29 11.953 26.37C11.9611 26.4095 11.9756 26.429 11.9969 26.429C12.0418 26.429 12.0561 26.4486 12.032 26.4776C12.0157 26.4973 12.0179 26.4999 12.0431 26.4902C12.0615 26.4832 12.0809 26.4881 12.0895 26.5021C12.1142 26.5419 12.1763 26.5414 12.1891 26.5012C12.1953 26.4814 12.2104 26.4652 12.2224 26.4652C12.25 26.4652 12.3036 26.4036 12.325 26.3475C12.3398 26.3084 12.327 26.2388 12.2896 26.1569C12.2828 26.1419 12.2833 26.1012 12.2907 26.0663C12.2981 26.0314 12.2976 25.9682 12.2897 25.9257C12.2806 25.8771 12.2819 25.8486 12.2933 25.8486C12.3033 25.8486 12.3013 25.8365 12.2889 25.8216C12.2766 25.8068 12.2713 25.7823 12.2771 25.7672C12.2829 25.7521 12.2803 25.7398 12.2713 25.7398C12.2499 25.7398 12.2502 25.4151 12.2717 25.3749C12.282 25.3557 12.2819 25.3414 12.2715 25.3377C12.2621 25.3344 12.2459 25.2623 12.2353 25.1775C12.2247 25.0927 12.2079 25.0206 12.198 25.0173C12.1745 25.0094 12.1745 24.9472 12.198 24.9327C12.228 24.9141 12.2185 24.8873 12.182 24.8873C12.1532 24.8873 12.1478 24.8734 12.1478 24.7993C12.1478 24.751 12.1396 24.6959 12.1296 24.6769C12.0988 24.6186 12.107 24.3942 12.1452 24.251C12.1649 24.177 12.1892 24.0849 12.1992 24.0463Z" fill="#F70808"/>
<path d="M13.2865 27.1182C13.2766 27.1182 13.2684 27.11 13.2684 27.1C13.2684 27.0901 13.2766 27.0819 13.2865 27.0819C13.2965 27.0819 13.3047 27.0901 13.3047 27.1C13.3047 27.11 13.2965 27.1182 13.2865 27.1182Z" fill="#F70808"/>
<path d="M15.1675 28.1917C15.1617 28.2061 15.1574 28.2018 15.1566 28.1807C15.1558 28.1616 15.1601 28.1509 15.1661 28.1569C15.1721 28.1629 15.1728 28.1786 15.1675 28.1917Z" fill="#F70808"/>
<path d="M14.3266 29.3611C14.3213 29.3558 14.3223 29.3427 14.3289 29.3321C14.3437 29.3082 14.375 29.3066 14.375 29.3298C14.375 29.3512 14.3397 29.3741 14.3266 29.3611Z" fill="#F70808"/>
</svg>
