<svg width="250" height="250" viewBox="0 0 250 250" fill="none" xmlns="http://www.w3.org/2000/svg">
<path d="M136.04 154.487C136.315 153.42 137.681 151.693 138.354 151.561C139.452 151.347 140.75 151.423 141.468 151.743C142.88 152.372 144.033 153.139 144.033 153.448C144.033 153.752 144.461 154.345 145.443 155.403C145.778 155.763 145.952 156.234 145.954 156.787C145.956 157.249 146.112 158.071 146.301 158.616C146.523 159.253 146.612 160.113 146.552 161.031C146.501 161.815 146.541 162.541 146.64 162.643C146.74 162.746 146.876 163.425 146.942 164.154C147.008 164.882 147.15 165.594 147.257 165.737C147.365 165.88 147.43 166.353 147.401 166.789C147.372 167.224 147.441 167.695 147.555 167.834C147.677 167.984 147.681 168.309 147.564 168.624C147.428 168.995 147.456 169.231 147.656 169.389C147.878 169.564 147.896 169.925 147.733 170.931C147.615 171.654 147.597 172.367 147.691 172.515C147.931 172.891 147.913 177.649 147.671 177.649C147.563 177.649 147.6 177.801 147.754 177.987C147.908 178.173 147.981 178.602 147.917 178.94C147.838 179.354 147.921 179.645 148.172 179.832C148.514 180.087 148.508 180.14 148.094 180.477C147.811 180.708 147.738 180.886 147.899 180.954C148.073 181.028 148.095 181.327 147.968 181.894C147.847 182.429 147.868 182.83 148.026 183.02C148.16 183.183 148.206 183.381 148.128 183.46C148.049 183.539 148.096 183.737 148.232 183.902C148.407 184.113 148.411 184.399 148.247 184.871C148.076 185.363 148.084 185.567 148.279 185.638C148.478 185.711 148.47 185.861 148.248 186.238C147.996 186.665 148.004 186.78 148.306 187.003C148.582 187.207 148.615 187.421 148.458 187.97C148.347 188.358 148.32 188.781 148.4 188.911C148.48 189.04 148.545 189.765 148.545 190.522C148.545 191.47 148.64 191.934 148.85 192.015C149.018 192.08 149.1 192.277 149.033 192.454C148.965 192.63 149.037 192.881 149.193 193.01C149.399 193.182 149.674 193.064 150.208 192.574C150.611 192.205 150.859 191.9 150.758 191.896C150.657 191.892 150.752 191.785 150.969 191.659C151.389 191.413 152.021 190.157 152.626 188.365C152.83 187.76 153.326 186.603 153.727 185.794C154.129 184.985 154.524 184.044 154.607 183.701C154.689 183.359 154.856 183.079 154.978 183.079C155.1 183.079 155.199 182.891 155.199 182.66C155.199 182.43 155.453 181.763 155.763 181.178C156.073 180.593 156.327 179.961 156.327 179.774C156.327 179.588 156.581 179.06 156.891 178.603C157.201 178.145 157.455 177.677 157.455 177.563C157.455 177.449 157.785 176.836 158.188 176.2C159.34 174.382 159.451 174.197 159.965 173.237C160.615 172.023 162.974 169.818 163.853 169.603C164.884 169.351 166.698 169.313 166.839 169.541C166.905 169.649 167.042 169.687 167.143 169.624C167.243 169.562 167.82 169.998 168.424 170.594C169.028 171.189 169.702 171.745 169.921 171.829C170.382 172.005 170.73 172.813 170.854 173.992C170.902 174.448 171.046 175.15 171.174 175.553C171.302 175.956 171.326 176.336 171.227 176.397C171.05 176.506 170.833 177.323 170.623 178.667C170.564 179.04 170.455 179.499 170.38 179.685C170.306 179.872 170.208 180.228 170.164 180.477C170.064 181.037 169.392 182.404 169.021 182.803C168.869 182.967 168.583 183.477 168.386 183.938C167.664 185.624 167.468 185.909 166.978 185.98C166.672 186.024 166.478 186.211 166.478 186.461C166.478 186.686 166.321 187 166.129 187.16C165.937 187.32 165.831 187.584 165.894 187.748C165.956 187.911 165.877 188.124 165.717 188.22C165.277 188.486 164.736 189.604 164.332 191.079C164.076 192.016 163.841 192.438 163.532 192.52C163.287 192.584 163.094 192.829 163.094 193.076C163.094 193.318 162.84 193.85 162.53 194.258C162.22 194.666 161.966 195.118 161.966 195.261C161.966 195.405 161.873 195.523 161.758 195.523C161.644 195.523 161.436 195.869 161.297 196.293C161.157 196.716 160.788 197.339 160.477 197.676C159.883 198.319 159.9 198.738 160.5 198.238C160.692 198.078 160.903 198.002 160.97 198.068C161.036 198.134 160.779 198.41 160.4 198.681C159.596 199.256 159.537 199.497 160.162 199.661C160.41 199.726 160.613 199.948 160.613 200.153C160.613 200.359 160.714 200.464 160.839 200.387C160.99 200.293 160.99 200.106 160.839 199.823C160.52 199.225 160.558 198.917 160.951 198.917C161.137 198.917 161.289 199.069 161.289 199.256C161.289 199.443 161.402 199.595 161.539 199.595C161.693 199.595 161.74 199.355 161.661 198.973C161.591 198.631 161.588 198.478 161.656 198.634C161.723 198.79 161.947 198.918 162.154 198.92C162.451 198.923 162.466 198.964 162.224 199.118C162.056 199.225 162.006 199.367 162.114 199.434C162.221 199.501 162.511 199.408 162.757 199.227C163.141 198.945 163.157 198.869 162.867 198.685C162.579 198.502 162.587 198.471 162.918 198.468C163.181 198.465 163.261 198.347 163.165 198.099C163.052 197.803 163.125 197.765 163.544 197.898C163.99 198.04 164.045 197.998 163.94 197.593C163.872 197.334 163.899 197.144 163.998 197.171C164.098 197.198 165.077 196.302 166.175 195.181C168.283 193.025 169.214 192.246 170.601 191.473C171.653 190.887 171.911 190.883 173 191.441C173.476 191.684 173.921 191.828 173.988 191.761C174.199 191.549 175.726 192.392 175.726 192.721C175.726 192.893 175.917 193.034 176.151 193.034C176.416 193.034 176.718 193.334 176.951 193.826C177.157 194.262 177.431 194.618 177.56 194.618C177.688 194.618 177.75 194.745 177.697 194.901C177.643 195.056 177.696 195.489 177.813 195.862C177.931 196.236 178.014 196.837 177.998 197.197C177.968 197.868 176.878 200.047 176.572 200.048C176.479 200.048 176.403 200.239 176.403 200.473C176.403 200.706 176.25 201.024 176.064 201.179C175.878 201.334 175.723 201.627 175.719 201.829C175.71 202.253 175.208 202.983 174.912 203.003C174.801 203.01 174.452 203.544 174.137 204.19C173.821 204.836 173.466 205.347 173.347 205.324C172.987 205.257 172.342 205.973 172.342 206.439C172.342 206.681 172.159 206.926 171.935 206.985C171.496 207.1 170.449 208.827 170.574 209.228C170.616 209.362 170.295 209.821 169.861 210.247C169.427 210.673 168.731 211.556 168.315 212.209C167.899 212.862 167.456 213.397 167.332 213.397C167.208 213.397 167.161 213.54 167.228 213.715C167.366 214.077 166.611 214.864 166.306 214.675C166.197 214.607 165.94 214.746 165.737 214.984C165.508 215.252 165.454 215.471 165.595 215.558C165.884 215.737 165.418 216.338 164.992 216.338C164.506 216.338 164.138 217.209 164.459 217.597C164.672 217.854 164.659 217.922 164.397 217.922C164.215 217.922 163.882 218.126 163.658 218.374C163.31 218.761 163.301 218.827 163.602 218.827C163.843 218.827 163.917 218.97 163.836 219.279C163.691 219.836 163.379 219.869 163.277 219.339C163.222 219.05 163.054 219.185 162.644 219.848C162.337 220.344 161.99 220.903 161.873 221.089C161.689 221.384 161.711 221.387 162.045 221.113C162.395 220.826 162.425 220.867 162.378 221.566C162.302 222.689 161.227 224.302 159.838 225.377C159.169 225.895 158.57 226.451 158.509 226.613C158.389 226.924 157.549 227.155 155.876 227.334C155.317 227.394 154.455 227.496 153.958 227.56C152.522 227.746 151.103 227.776 151.009 227.622C150.878 227.411 149.727 227.447 149.292 227.677C149.077 227.79 148.858 227.792 148.79 227.682C148.723 227.574 148.424 227.532 148.125 227.589C147.827 227.646 147.511 227.577 147.423 227.435C147.304 227.242 147.184 227.243 146.946 227.441C146.728 227.623 146.539 227.634 146.346 227.477C146.174 227.337 145.637 227.313 144.976 227.415C143.936 227.577 142.456 227.436 141.962 227.129C141.834 227.05 141.39 227.083 140.975 227.202C140.437 227.357 140.175 227.343 140.058 227.153C139.935 226.954 139.807 226.961 139.539 227.184C139.344 227.347 139.184 227.383 139.184 227.264C139.184 227.02 138.522 227.022 138.128 227.267C137.985 227.355 137.835 227.325 137.793 227.199C137.744 227.051 137.463 227.044 136.988 227.181C136.586 227.297 135.876 227.339 135.409 227.275C134.942 227.211 134.306 227.146 133.996 227.129C133.685 227.113 133.36 226.997 133.273 226.87C133.171 226.722 132.453 226.863 131.261 227.266C130.187 227.628 129.352 227.802 129.275 227.678C129.115 227.418 127.031 227.421 126.871 227.682C126.808 227.784 126.584 227.775 126.372 227.661C126.161 227.548 125.354 227.325 124.578 227.167C123.723 226.992 123.168 226.763 123.168 226.586C123.168 226.425 123.067 226.293 122.943 226.293C122.819 226.293 122.717 226.134 122.717 225.939C122.717 225.694 122.585 225.626 122.292 225.719C121.8 225.876 121.067 224.813 120.798 223.549C120.708 223.13 120.559 222.685 120.466 222.56C120.301 222.338 120.022 221.408 119.857 220.534C119.811 220.29 119.694 220.036 119.597 219.968C119.5 219.9 119.289 219.489 119.129 219.053C118.54 217.454 116.959 214.313 116.74 214.307C116.616 214.303 116.32 213.817 116.083 213.226C115.847 212.636 115.479 211.982 115.266 211.774C115.054 211.566 114.537 210.68 114.118 209.804C113.699 208.928 113.248 208.207 113.117 208.202C112.836 208.191 111.89 206.965 111.89 206.611C111.89 206.478 111.738 206.31 111.552 206.239C111.365 206.167 111.213 205.967 111.213 205.793C111.213 205.62 111.131 205.478 111.03 205.478C110.929 205.478 110.504 205.02 110.085 204.46C109.667 203.9 109.255 203.442 109.17 203.442C109.084 203.442 108.621 203.079 108.14 202.636C107.659 202.192 106.911 201.661 106.476 201.455C106.042 201.249 105.49 200.899 105.249 200.678C105.009 200.456 104.675 200.274 104.507 200.274C104.339 200.274 104.079 200.17 103.929 200.043C102.7 199.003 102.272 198.691 102.072 198.691C101.944 198.691 101.553 198.362 101.202 197.962C100.605 197.278 100.574 197.147 100.716 195.869C100.906 194.163 101.789 192.185 102.68 191.472C103.754 190.614 107.719 189.773 108.063 190.331C108.143 190.461 108.628 190.583 109.141 190.604C109.657 190.624 110.123 190.77 110.184 190.929C110.244 191.087 110.425 191.167 110.584 191.107C110.744 191.046 111.23 191.224 111.664 191.502C112.099 191.779 112.808 192.113 113.24 192.244C113.685 192.378 114.142 192.714 114.293 193.019C114.44 193.315 114.797 193.585 115.086 193.618C115.927 193.715 117.304 194.372 117.304 194.677C117.304 195.076 119.511 197.333 119.9 197.333C120.079 197.333 120.382 197.638 120.574 198.012C120.767 198.385 121.074 198.69 121.257 198.69C121.44 198.69 121.601 198.869 121.616 199.086C121.64 199.464 121.647 199.464 121.745 199.086C121.802 198.869 121.926 198.69 122.022 198.69C122.312 198.69 122.955 199.508 122.793 199.67C122.71 199.754 122.754 199.822 122.892 199.822C123.248 199.822 123.444 199.427 123.172 199.258C122.828 199.045 122.896 198.69 123.281 198.69C123.467 198.69 123.628 198.512 123.638 198.295C123.649 198.077 123.688 197.644 123.725 197.333C123.811 196.622 123.309 194.598 122.874 193.901C122.693 193.611 122.478 192.92 122.396 192.367C122.313 191.813 122.161 191.253 122.057 191.122C121.612 190.563 120.462 188.186 120.462 187.826C120.462 187.61 120.316 187.312 120.138 187.164C119.96 187.015 119.75 186.603 119.672 186.247C119.594 185.89 119.384 185.478 119.206 185.33C119.028 185.181 118.883 184.942 118.883 184.799C118.883 184.299 117.505 181.832 116.974 181.382C116.681 181.133 116.328 180.502 116.19 179.978C116.051 179.455 115.814 178.895 115.662 178.734C115.511 178.573 115.083 177.983 114.713 177.423C114.342 176.863 113.572 175.845 113.001 175.16C111.125 172.912 110.159 170.755 110.39 169.331C110.589 168.097 111.439 166.551 112.044 166.321C112.346 166.205 112.539 166.022 112.472 165.914C112.126 165.352 114.848 163.621 116.078 163.621C116.489 163.621 116.889 163.723 116.965 163.848C117.042 163.972 117.289 164.074 117.515 164.074C117.741 164.074 118.051 164.227 118.206 164.413C118.36 164.6 118.64 164.753 118.826 164.753C119.166 164.753 121.579 166.3 122.318 166.99C123.612 168.201 124.314 168.992 124.44 169.382C124.518 169.626 125.279 170.53 126.131 171.392C126.983 172.253 127.68 173.046 127.68 173.154C127.68 173.262 127.832 173.35 128.018 173.35C128.204 173.35 128.356 173.487 128.356 173.655C128.356 174.131 129.04 175.386 129.299 175.386C129.428 175.386 129.477 175.532 129.409 175.709C129.341 175.887 129.448 176.167 129.647 176.332C129.846 176.496 130.2 177.063 130.434 177.592C130.668 178.121 130.964 178.554 131.093 178.554C131.221 178.554 131.28 178.681 131.224 178.837C131.168 178.992 131.25 179.272 131.407 179.459C131.758 179.878 132.776 182.477 132.979 183.475C133.08 183.968 133.26 184.21 133.525 184.21C134.084 184.21 134.26 184.456 133.962 184.817C133.758 185.063 133.786 185.095 134.099 184.974C134.328 184.886 134.569 184.948 134.677 185.122C134.983 185.62 135.756 185.613 135.914 185.112C135.992 184.865 136.179 184.663 136.329 184.663C136.671 184.663 137.339 183.894 137.604 183.194C137.789 182.706 137.629 181.838 137.165 180.817C137.08 180.63 137.086 180.121 137.178 179.686C137.27 179.251 137.264 178.462 137.166 177.933C137.053 177.325 137.069 176.97 137.21 176.97C137.334 176.97 137.31 176.82 137.156 176.634C137.003 176.449 136.936 176.143 137.009 175.955C137.081 175.767 137.048 175.613 136.937 175.613C136.67 175.613 136.675 171.562 136.942 171.061C137.07 170.822 137.069 170.643 136.939 170.597C136.823 170.556 136.621 169.657 136.489 168.599C136.358 167.541 136.149 166.642 136.025 166.6C135.733 166.502 135.734 165.726 136.026 165.545C136.398 165.314 136.28 164.979 135.826 164.979C135.468 164.979 135.401 164.806 135.401 163.882C135.401 163.278 135.299 162.591 135.175 162.354C134.792 161.627 134.894 158.828 135.369 157.041C135.614 156.118 135.916 154.969 136.04 154.487Z" fill="#749070"/>
<path d="M149.56 192.808C149.436 192.808 149.334 192.706 149.334 192.582C149.334 192.457 149.436 192.355 149.56 192.355C149.684 192.355 149.785 192.457 149.785 192.582C149.785 192.706 149.684 192.808 149.56 192.808Z" fill="#749070"/>
<path d="M172.947 206.199C172.876 206.38 172.822 206.326 172.811 206.062C172.802 205.824 172.855 205.69 172.93 205.766C173.005 205.841 173.013 206.036 172.947 206.199Z" fill="#749070"/>
<path d="M162.492 220.788C162.426 220.721 162.439 220.558 162.521 220.426C162.705 220.127 163.094 220.108 163.094 220.397C163.094 220.664 162.654 220.95 162.492 220.788Z" fill="#749070"/>
<path fill-rule="evenodd" clip-rule="evenodd" d="M124.564 22.1433C124.038 22.2092 123.32 22.3084 122.969 22.3638C122.618 22.4189 122.044 22.5052 121.693 22.5554C119.994 22.7989 117.59 23.5913 116.964 24.1146C116.7 24.3354 116.397 24.516 116.289 24.516C116.017 24.516 114.82 25.6868 114.373 26.3909C114.168 26.7137 113.881 27.0756 113.736 27.1953C113.235 27.6087 113.084 28.087 112.282 31.7922C112.068 32.7768 111.81 35.593 111.764 37.4353C111.758 37.6969 111.7 39.2306 111.636 40.8435C111.573 42.4565 111.528 44.3111 111.537 44.965C111.547 45.6189 111.583 48.7671 111.618 51.961C111.653 55.1547 111.725 57.8383 111.779 57.9242C111.832 58.0101 111.776 58.4628 111.654 58.9302C111.525 59.4231 111.488 59.8832 111.565 60.0262C111.638 60.1615 111.7 61.019 111.703 61.9317C111.705 62.8443 111.736 63.8408 111.77 64.1459C111.804 64.4511 111.754 64.7543 111.658 64.8196C111.537 64.9027 111.547 64.9788 111.693 65.0725C111.823 65.156 111.864 65.3542 111.802 65.5994C111.736 65.8595 111.787 66.062 111.952 66.1983C112.09 66.3115 112.202 66.4754 112.202 66.5626C112.202 66.651 112.096 66.6337 111.963 66.5237C111.686 66.2958 111.661 66.4145 111.713 67.7126C111.786 69.522 111.598 74.5856 111.437 75.1564C111.353 75.4566 111.378 75.8273 111.507 76.1868C111.754 76.8713 111.785 77.9372 111.558 77.9372C111.451 77.9372 111.445 78.0348 111.54 78.2146C111.621 78.3671 111.697 79.0983 111.71 79.8394C111.75 82.3359 111.692 83.0588 111.436 83.2208C111.271 83.3248 111.268 83.4012 111.421 83.5851C111.676 83.8894 111.666 87.3734 111.41 87.6798C111.311 87.7985 111.293 87.9348 111.371 87.9827C111.515 88.0708 111.497 89.1897 111.326 90.7773C111.274 91.2568 111.204 92.1323 111.168 92.7228C111.133 93.3133 111.068 93.9196 111.023 94.0702C110.979 94.2208 110.9 94.7628 110.847 95.2748C110.688 96.8262 110.049 97.9576 108.393 99.6147C107.588 100.421 106.832 101.081 106.714 101.081C106.595 101.081 106.406 101.192 106.292 101.328C106.016 101.659 105.179 102.007 103.828 102.352C102.818 102.61 102.684 102.614 102.435 102.392C102.211 102.194 102.113 102.185 101.918 102.345C101.786 102.454 101.572 102.503 101.442 102.453C101.312 102.404 101.162 102.433 101.109 102.518C101.056 102.603 100.874 102.511 100.703 102.313C100.533 102.115 100.412 102.051 100.436 102.171C100.459 102.291 100.388 102.421 100.278 102.461C100.169 102.501 100.079 102.459 100.079 102.367C100.079 102.164 99.6071 102.326 99.2886 102.639C99.1299 102.795 99.0374 102.81 98.996 102.687C98.9249 102.475 98.4839 102.443 98.4839 102.651C98.4839 102.861 97.0714 102.896 94.6555 102.745C93.9098 102.699 93.1657 102.658 93.0019 102.655C92.8382 102.652 92.5235 102.532 92.3027 102.388C92.0818 102.244 91.6985 102.142 91.4506 102.161C91.1392 102.184 90.947 102.096 90.8283 101.876C90.7337 101.7 90.5234 101.557 90.3607 101.557C89.8698 101.557 88.3639 99.94 87.8188 98.8282C87.5433 98.2662 87.3179 97.6537 87.3179 97.467C87.3179 97.2804 87.1887 96.8937 87.0307 96.6076C86.7143 96.0352 86.3403 94.8823 86.2706 94.2647C86.1498 93.1969 85.8941 91.4557 85.8164 91.1736C85.6485 90.5626 85.4729 87.8307 85.3429 83.8024C85.2117 79.7408 85.0492 78.2922 84.6041 77.2238C84.5314 77.0494 84.4298 76.5528 84.378 76.12C84.3263 75.6873 84.1398 75.0584 83.9637 74.7225C83.7874 74.3866 83.6798 74.0533 83.7243 73.9816C83.7688 73.9101 83.7 73.7649 83.5715 73.6589C83.4431 73.5528 83.1553 73.099 82.9323 72.6502C82.1759 71.1284 81.3664 70.1288 80.1692 69.2387C79.744 68.9224 79.2739 68.5415 79.1246 68.3924C78.9075 68.1753 78.7669 68.1533 78.4245 68.2828C78.0739 68.4152 77.9573 68.3925 77.7829 68.1579C77.6658 68.0002 77.4609 67.8933 77.3277 67.9204C77.1945 67.9476 76.9777 67.8808 76.8459 67.7721C76.6759 67.6319 76.5749 67.625 76.4983 67.7481C76.4389 67.8437 75.8163 67.9678 75.1147 68.0243C74.0793 68.1073 73.6289 68.0653 72.723 67.8008C71.5437 67.4563 70.4893 67.377 70.3375 67.6212C70.2874 67.7017 70.0201 67.8169 69.7435 67.8773C69.1258 68.0121 67.899 68.6488 67.4509 69.0672C67.2685 69.2376 67.0464 69.3771 66.9577 69.3771C66.4939 69.3771 64.9855 71.6466 64.4291 73.1816C64.1921 73.8355 63.9739 74.6599 63.9444 75.0136C63.9147 75.3672 63.7469 76.2589 63.5714 76.9951C63.396 77.7312 63.1848 79.0111 63.1022 79.8394C62.9245 81.6186 62.9889 85.7029 63.2157 87.052C63.3036 87.5752 63.3665 88.3955 63.3551 88.875C63.3175 90.4861 63.9026 95.8092 64.3371 97.8094C64.4293 98.2331 64.4625 98.6476 64.411 98.7305C64.3594 98.8134 64.4626 99.2168 64.6402 99.6273C64.8179 100.038 64.9983 100.676 65.041 101.047C65.1326 101.839 65.8193 104.154 66.2974 105.282C66.4821 105.718 66.6468 106.313 66.6634 106.605C66.68 106.897 66.7756 107.187 66.8756 107.248C66.9758 107.31 67.2364 107.882 67.4549 108.521C67.6735 109.159 67.9314 109.776 68.0281 109.892C68.1247 110.008 68.1625 110.169 68.1121 110.25C68.0617 110.331 68.1273 110.486 68.2579 110.594C68.3886 110.701 68.4954 110.891 68.4954 111.014C68.4954 111.138 68.7467 111.61 69.0537 112.063C69.3608 112.516 69.612 112.977 69.612 113.087C69.612 113.197 69.6816 113.287 69.7666 113.287C69.899 113.287 70.7232 114.408 71.3025 115.376C71.5453 115.782 72.6164 116.875 73.6045 117.726C74.0602 118.118 74.5505 118.571 74.6943 118.731C75.2849 119.392 78.0667 121.073 78.6917 121.146C78.904 121.171 79.3705 121.336 79.7285 121.512C80.6352 121.96 82.3301 122.501 83.0909 122.585C83.4418 122.625 84.001 122.728 84.3336 122.814C84.6662 122.901 85.5635 123.045 86.3275 123.134C87.0916 123.222 88.0039 123.33 88.3548 123.374C88.7057 123.418 89.603 123.473 90.3487 123.497C91.5276 123.536 94.6289 123.992 94.7932 124.152C94.8251 124.183 95.1404 124.093 95.4939 123.952C96.0623 123.726 96.157 123.724 96.3132 123.934C96.4349 124.097 96.7133 124.156 97.2077 124.124C98.068 124.069 99.5026 124.329 100.144 124.657C100.412 124.793 101.101 124.904 101.769 124.918C102.704 124.938 103.002 125.008 103.299 125.277C103.502 125.461 103.758 125.579 103.867 125.539C103.977 125.499 104.108 125.575 104.16 125.708C104.211 125.84 104.348 125.912 104.464 125.868C104.781 125.747 109.204 127.929 109.657 128.429C109.872 128.667 110.205 129.029 110.395 129.233C110.586 129.437 110.786 129.743 110.84 129.912C110.894 130.082 111.043 130.307 111.171 130.412C111.299 130.518 111.404 130.814 111.404 131.071C111.404 131.328 111.491 131.693 111.596 131.884C111.701 132.074 111.808 132.979 111.834 133.895C111.861 134.81 111.907 136.451 111.937 137.541C111.967 138.63 112.047 139.648 112.115 139.802C112.186 139.964 112.158 140.176 112.047 140.309C111.942 140.435 111.9 140.674 111.954 140.841C112.099 141.295 112.078 145.574 111.926 146.582C111.647 148.434 110.095 150.182 108.111 150.88C106.783 151.348 106.37 151.387 105.276 151.147C104.47 150.971 104.189 150.815 103.615 150.222C103.235 149.83 102.784 149.188 102.613 148.796C102.441 148.403 102.232 147.958 102.147 147.807C102.062 147.656 101.992 147.37 101.99 147.173C101.988 146.976 101.844 146.503 101.671 146.123C101.497 145.743 101.355 145.235 101.355 144.994C101.355 144.753 101.238 144.243 101.096 143.862C100.953 143.48 100.847 142.99 100.86 142.772C100.873 142.554 100.816 142.233 100.735 142.058C100.453 141.456 100.349 141.106 100.379 140.859C100.395 140.722 100.083 140.128 99.6853 139.538C98.9777 138.49 98.8998 138.284 98.9534 137.601C98.9694 137.396 98.8675 137.236 98.6919 137.19C98.5336 137.149 98.2376 136.783 98.034 136.377C97.689 135.688 97.3784 135.343 97.5845 135.876C97.6349 136.007 97.6067 136.114 97.5218 136.114C97.4368 136.114 97.3673 135.974 97.3673 135.802C97.3673 135.465 96.9308 135.162 96.6096 135.277C96.5 135.316 96.4102 135.27 96.4102 135.176C96.4102 135.081 96.4973 135.004 96.6038 135.004C96.9005 135.004 96.3542 134.516 95.995 134.461C95.815 134.433 95.7114 134.308 95.7393 134.154C95.7693 133.988 95.6761 133.895 95.4796 133.895C95.3111 133.895 95.0873 133.792 94.9824 133.666C94.8776 133.541 94.6893 133.477 94.5641 133.525C94.4252 133.578 94.3365 133.512 94.3365 133.357C94.3365 133.208 94.2041 133.102 94.0175 133.102C93.842 133.102 93.6985 133.036 93.6985 132.955C93.6985 132.875 93.2499 132.804 92.7015 132.798C92.1533 132.792 91.1303 132.775 90.4284 132.759C89.501 132.737 89.0134 132.802 88.644 132.994C88.3645 133.139 88.0208 133.214 87.8804 133.161C87.7394 133.107 87.4872 133.188 87.3168 133.341C87.112 133.525 86.7663 133.613 86.2859 133.604C85.8885 133.596 85.5633 133.658 85.5633 133.742C85.5633 133.826 85.4644 133.895 85.3435 133.895C85.2227 133.895 85.0374 133.998 84.9318 134.125C84.7664 134.323 84.3836 134.568 82.6696 135.573C82.1705 135.866 81.735 136.311 81.735 136.529C81.735 136.643 81.6077 136.805 81.4522 136.887C81.163 137.041 80.1099 138.888 79.9051 139.601C79.8425 139.819 79.6503 140.296 79.4781 140.661C79.1995 141.25 79.1847 141.432 79.3434 142.302C79.4415 142.84 79.482 143.32 79.4335 143.368C79.3849 143.416 79.4318 143.56 79.5377 143.687C79.6436 143.813 79.7465 144.415 79.7661 145.024C79.7859 145.632 79.8419 146.32 79.8906 146.551C80.0295 147.212 80.0569 149.178 79.9301 149.382C79.8671 149.483 79.8963 149.616 79.9949 149.676C80.1027 149.743 80.1394 150.016 80.0868 150.361C80.0363 150.691 80.0987 151.205 80.2333 151.57C80.3621 151.918 80.512 152.687 80.5664 153.279C80.621 153.87 80.7235 154.39 80.7945 154.433C80.8655 154.477 80.8816 154.621 80.8304 154.754C80.7792 154.886 80.8444 155.259 80.9757 155.581C81.1068 155.903 81.3282 156.559 81.4677 157.039C82.2675 159.789 82.6697 160.793 83.2105 161.388C83.3641 161.557 83.4896 161.856 83.4896 162.053C83.4896 162.398 84.1438 163.775 84.455 164.085C84.5383 164.167 84.6062 164.399 84.6062 164.6C84.6062 164.8 84.678 164.965 84.7657 164.965C84.8535 164.965 84.9252 165.064 84.9252 165.185C84.9252 165.307 85.0174 165.441 85.1299 165.484C85.2425 165.527 85.4759 165.855 85.6483 166.213C85.8209 166.571 86.035 166.864 86.1241 166.865C86.2133 166.866 86.5363 167.232 86.842 167.68C87.1476 168.126 87.55 168.715 87.7363 168.987C88.1538 169.598 89.9459 171.305 90.1691 171.305C90.2589 171.305 90.5085 171.466 90.7239 171.662C90.9392 171.858 91.3555 172.131 91.6492 172.269C93.0939 172.947 93.3338 173.046 93.7782 173.143C94.0414 173.201 94.508 173.373 94.815 173.524C95.9908 174.105 96.2285 174.194 96.7054 174.231C96.9758 174.252 97.2891 174.342 97.4017 174.43C97.5143 174.519 97.7142 174.596 97.8458 174.602C97.9774 174.607 98.5157 174.726 99.0421 174.864C99.5685 175.003 100.179 175.153 100.398 175.198C100.617 175.244 100.916 175.317 101.063 175.36C101.209 175.404 101.375 175.365 101.431 175.274C101.499 175.165 101.632 175.161 101.822 175.262C101.981 175.347 102.156 175.371 102.211 175.316C102.267 175.261 102.312 175.325 102.312 175.459C102.312 175.613 102.511 175.735 102.852 175.79C103.149 175.837 103.798 176.061 104.293 176.286C104.788 176.511 105.257 176.695 105.336 176.695C105.596 176.695 107.48 178.011 108.263 178.738C109 179.422 109.809 180.829 109.809 181.424C109.809 181.578 109.882 181.776 109.97 181.864C110.058 181.952 110.162 182.341 110.199 182.728C110.3 183.758 110.395 184.228 110.573 184.562C110.659 184.725 110.73 185.037 110.73 185.255C110.73 185.473 110.817 185.972 110.924 186.365C111.146 187.177 111.227 189.319 111.07 190.22C111.012 190.553 111.03 191.113 111.11 191.466C111.189 191.818 111.293 193.793 111.341 195.854C111.442 200.265 111.446 200.326 111.634 200.622C111.729 200.771 111.715 200.872 111.592 200.913C111.381 200.983 111.36 201.916 111.544 203.024C111.611 203.425 111.615 203.888 111.554 204.055C111.494 204.221 111.516 204.446 111.603 204.555C111.712 204.69 111.697 204.831 111.559 204.997C111.352 205.245 111.275 209.014 111.471 209.329C111.521 209.409 111.492 209.842 111.407 210.29C111.294 210.881 111.308 211.353 111.459 212.011C111.599 212.622 111.621 213.123 111.526 213.551C111.449 213.9 111.429 214.435 111.482 214.74C111.534 215.045 111.609 216.329 111.647 217.593C111.685 218.857 111.735 220.534 111.759 221.318C111.784 222.103 111.863 222.838 111.937 222.951C112.011 223.064 112.046 223.495 112.017 223.908C111.965 224.621 112.007 224.711 112.827 225.648C114.307 227.339 115.113 227.68 117.546 227.645C120.684 227.601 121.529 227.533 121.799 227.304C122.007 227.129 122.14 227.119 122.404 227.259C122.829 227.485 123.388 227.415 123.642 227.104C123.813 226.895 123.837 226.897 123.841 227.125C123.844 227.266 123.967 227.48 124.115 227.6C124.351 227.79 124.372 227.783 124.281 227.542C124.205 227.341 124.25 227.278 124.45 227.309C124.601 227.332 124.814 227.407 124.923 227.475C125.051 227.554 125.122 227.509 125.122 227.351C125.122 227.216 125.194 227.104 125.282 227.104C125.37 227.104 125.442 227.196 125.442 227.308C125.442 227.42 125.585 227.512 125.761 227.512C125.936 227.512 126.08 227.456 126.08 227.387C126.08 227.175 126.439 227.25 126.745 227.525C126.905 227.669 127.037 227.723 127.037 227.644C127.037 227.565 127.378 227.52 127.794 227.544C128.211 227.568 129.162 227.61 129.908 227.636C130.654 227.662 131.336 227.709 131.423 227.74C131.829 227.882 132.959 227.347 133.254 226.873C133.423 226.6 133.709 226.209 133.889 226.003C134.068 225.797 134.215 225.533 134.215 225.416C134.215 225.298 134.322 225.202 134.454 225.202C134.586 225.202 134.693 225.074 134.693 224.917C134.693 224.562 135.05 223.778 135.212 223.777C135.278 223.776 135.331 223.668 135.331 223.538C135.331 223.407 135.407 223.3 135.499 223.3C135.678 223.3 136.067 222.483 136.187 221.856C136.227 221.647 136.31 221.352 136.371 221.199C136.438 221.033 136.409 220.922 136.3 220.922C136.169 220.922 136.164 220.835 136.283 220.615C136.374 220.447 136.448 220.114 136.448 219.875C136.448 219.636 136.561 219.316 136.7 219.164C136.839 219.012 137.031 218.381 137.128 217.762C137.224 217.143 137.349 216.71 137.405 216.801C137.461 216.891 137.5 216.103 137.49 215.049C137.48 213.994 137.526 213.099 137.591 213.059C137.657 213.019 137.672 212.888 137.626 212.769C137.58 212.65 137.623 212.503 137.721 212.443C137.845 212.367 137.849 212.273 137.734 212.136C137.641 212.024 137.558 211.008 137.545 209.812C137.531 208.642 137.453 207.6 137.369 207.494C137.286 207.389 137.261 207.234 137.314 207.149C137.367 207.064 137.336 206.949 137.245 206.893C137.155 206.837 137.114 206.738 137.155 206.673C137.195 206.608 137.267 205.846 137.313 204.98C137.36 204.114 137.472 203.156 137.561 202.851C137.674 202.468 137.673 202.279 137.558 202.241C137.445 202.204 137.449 202.117 137.57 201.973C137.703 201.813 137.681 201.62 137.482 201.203C137.336 200.898 137.262 200.574 137.318 200.485C137.48 200.225 137.532 198.569 137.381 198.477C137.306 198.431 137.331 198.237 137.437 198.046C137.658 197.648 137.616 197.121 137.349 196.943C137.219 196.857 137.242 196.776 137.427 196.668C137.628 196.549 137.675 196.325 137.632 195.68C137.566 194.679 137.501 194.259 137.378 194.05C137.328 193.964 137.315 193.752 137.348 193.577C137.382 193.403 137.406 193.153 137.401 193.023C137.37 192.23 137.505 187.082 137.561 186.92C137.591 186.832 137.555 186.623 137.481 186.453C137.394 186.253 137.413 186.124 137.536 186.084C137.639 186.049 137.724 185.817 137.724 185.568C137.724 185.319 137.797 185.07 137.886 185.016C137.975 184.961 138.002 184.841 137.945 184.75C137.888 184.659 137.831 183.79 137.817 182.819C137.804 181.848 137.737 180.965 137.669 180.856C137.601 180.747 137.604 180.658 137.675 180.658C137.746 180.658 137.805 179.784 137.806 178.716C137.809 177.182 137.759 176.736 137.572 176.592C137.381 176.446 137.334 175.939 137.33 173.977C137.327 172.638 137.264 171.449 137.19 171.335C137.106 171.205 137.15 171.022 137.307 170.849C137.502 170.635 137.517 170.529 137.371 170.384C137.225 170.239 137.248 170.196 137.472 170.196C137.719 170.196 137.731 170.158 137.554 169.946C137.389 169.747 137.387 169.671 137.545 169.574C137.766 169.438 137.733 168.279 137.503 168.113C137.426 168.057 137.476 167.85 137.614 167.654C137.775 167.426 137.833 167.129 137.774 166.837C137.707 166.503 137.76 166.321 137.969 166.169C138.231 165.979 138.237 165.892 138.045 165.209C137.866 164.573 137.868 164.438 138.058 164.318C138.181 164.24 138.211 164.175 138.123 164.172C138.035 164.169 138.071 164.098 138.203 164.013C138.407 163.882 138.401 163.859 138.163 163.857C137.814 163.854 137.806 163.638 138.141 163.305C138.378 163.069 138.378 163.025 138.134 162.757C137.889 162.489 137.889 162.446 138.127 162.209C138.269 162.068 138.452 161.953 138.533 161.953C138.754 161.953 138.712 161.516 138.482 161.423C138.332 161.363 138.342 161.302 138.522 161.177C138.833 160.962 138.835 160.477 138.525 160.339C138.323 160.25 138.33 160.229 138.561 160.22C138.715 160.214 138.841 160.111 138.841 159.991C138.841 159.871 138.944 159.687 139.07 159.583C139.197 159.478 139.264 159.301 139.221 159.187C139.177 159.074 139.253 158.939 139.39 158.887C139.526 158.835 139.638 158.658 139.638 158.495C139.638 158.331 139.922 157.76 140.27 157.226C140.617 156.692 141.02 156.021 141.165 155.736C141.31 155.45 141.566 155.073 141.734 154.899C143.261 153.314 144.002 152.503 144.212 152.184C144.348 151.977 144.536 151.807 144.628 151.807C144.72 151.807 145.242 151.397 145.787 150.896C147.139 149.654 147.066 149.698 148.411 149.278C149.069 149.073 149.715 148.814 149.847 148.704C150.267 148.351 153.241 147.212 153.835 147.177C153.966 147.169 154.11 147.117 154.154 147.061C154.253 146.934 156.81 146.101 157.098 146.101C157.213 146.101 157.513 145.994 157.765 145.864C158.016 145.734 158.329 145.626 158.461 145.625C158.592 145.624 158.884 145.528 159.108 145.411C159.333 145.295 159.835 145.15 160.225 145.089C160.916 144.981 162.367 144.598 163.007 144.355C163.182 144.288 163.649 144.147 164.044 144.042C164.438 143.936 164.869 143.76 165.001 143.649C165.132 143.539 165.455 143.4 165.719 143.341C166.285 143.214 166.731 143.015 169.793 141.524C171.069 140.902 172.231 140.394 172.375 140.394C172.518 140.394 172.682 140.251 172.737 140.076C172.831 139.782 173.993 139.126 174.419 139.126C174.52 139.126 174.798 138.93 175.036 138.69C175.603 138.118 177.149 136.788 178.202 135.966C178.664 135.606 179.202 135.064 179.399 134.763C179.595 134.462 179.845 134.215 179.955 134.214C180.065 134.213 180.154 134.134 180.154 134.038C180.154 133.943 180.316 133.64 180.513 133.365C180.711 133.09 181.006 132.616 181.169 132.31C181.332 132.005 181.563 131.644 181.683 131.509C182.013 131.137 182.639 129.912 182.772 129.377C182.838 129.115 182.988 128.794 183.106 128.663C183.224 128.533 183.496 127.905 183.712 127.27C183.927 126.634 184.148 126.069 184.202 126.015C184.257 125.96 184.304 125.767 184.307 125.586C184.31 125.404 184.417 125.117 184.546 124.948C184.675 124.778 184.78 124.498 184.78 124.325C184.78 124.152 184.851 123.791 184.936 123.523C185.022 123.255 185.232 122.608 185.402 122.085C185.573 121.562 185.762 120.67 185.822 120.103C185.883 119.537 186.005 118.984 186.094 118.875C186.182 118.766 186.202 118.677 186.136 118.677C186.071 118.677 186.1 118.577 186.202 118.456C186.303 118.334 186.376 118.174 186.362 118.099C186.27 117.587 186.413 116.443 186.591 116.266C186.776 116.082 187.127 114.308 187.245 112.956C187.265 112.731 187.323 112.479 187.374 112.397C187.425 112.315 187.474 111.644 187.483 110.905C187.492 110.166 187.531 108.92 187.57 108.135C187.839 102.708 187.851 101.879 187.707 98.7032C187.654 97.5262 187.624 95.774 187.641 94.8094C187.674 92.8821 187.288 89.6637 186.919 88.7856C186.79 88.4779 186.699 88.1403 186.717 88.0353C186.748 87.8568 186.526 87.2515 186.199 86.6183C186.121 86.4669 186.056 86.2028 186.056 86.0316C186.056 85.8604 185.966 85.6634 185.856 85.5937C185.745 85.5239 185.52 85.0745 185.356 84.595C185.192 84.1155 184.971 83.6518 184.865 83.5646C184.76 83.4774 184.489 83.1207 184.264 82.772C184.039 82.4233 183.56 81.8198 183.201 81.4309C182.841 81.0421 182.547 80.6677 182.547 80.5987C182.547 80.5299 182.404 80.4735 182.228 80.4735C182.053 80.4735 181.909 80.4021 181.909 80.3149C181.909 80.2278 181.784 80.156 181.63 80.1555C181.476 80.1548 181.169 80.0604 180.948 79.9454C179.668 79.2816 176.842 79.1311 175.279 79.6439C173.238 80.3138 172.157 81.1025 171.005 82.7612C169.893 84.3634 169.501 85.1398 169.401 85.9389C169.365 86.2319 169.232 86.7092 169.106 86.9996C168.761 87.7963 168.329 89.1302 168.284 89.5408C168.261 89.7413 168.161 90.1551 168.061 90.4602C167.96 90.7654 167.839 91.336 167.791 91.7284C167.743 92.1207 167.638 92.9411 167.557 93.5514C167.477 94.1617 167.375 95.3743 167.331 96.2462C167.287 97.118 167.173 98.1465 167.076 98.5317C166.98 98.9168 166.937 99.325 166.981 99.4386C167.025 99.5524 166.996 99.8436 166.916 100.086C166.837 100.328 166.731 101.347 166.682 102.349C166.57 104.62 166.489 105.427 166.291 106.233C166.116 106.949 165.931 108.501 165.868 109.8C165.823 110.718 165.319 112.772 164.9 113.742C164.764 114.059 164.618 114.531 164.576 114.793C164.37 116.068 162.512 118.859 160.734 120.564C160.098 121.174 159.577 121.735 159.577 121.81C159.577 121.886 159.304 122.1 158.971 122.286C158.637 122.472 158.234 122.768 158.075 122.942C157.914 123.119 157.475 123.306 157.085 123.364C156.699 123.422 156.345 123.53 156.298 123.605C156.252 123.68 155.948 123.862 155.623 124.01C155.297 124.158 154.931 124.356 154.809 124.45C154.284 124.853 152.567 125.061 149.608 125.079C146.361 125.098 144.873 124.924 143.77 124.394C143.395 124.214 143.004 124.066 142.902 124.066C142.563 124.066 140.68 122.562 140.467 122.121C140.353 121.883 140.191 121.689 140.108 121.689C140.025 121.689 139.957 121.582 139.957 121.451C139.957 121.32 139.885 121.213 139.798 121.213C139.71 121.213 139.638 121.122 139.638 121.011C139.638 120.9 139.433 120.562 139.182 120.258C138.687 119.66 138.438 119.07 138.5 118.643C138.522 118.494 138.454 118.214 138.35 118.021C138.077 117.513 137.762 116.072 137.648 114.805C137.593 114.201 137.519 113.659 137.482 113.6C137.424 113.506 137.219 107.526 137.211 105.678C137.197 102.553 137.597 96.0121 137.855 95.1366C137.932 94.875 137.999 93.8614 138.003 92.8843C138.01 90.8602 138.159 88.9807 138.356 88.3995C138.431 88.1815 138.614 87.4682 138.764 86.8143C138.913 86.1604 139.127 85.447 139.238 85.2291C139.349 85.0111 139.511 84.6544 139.597 84.4365C139.923 83.6177 140.195 83.0746 140.51 82.6135C140.688 82.3519 140.987 81.8169 141.173 81.4246C141.359 81.0322 141.735 80.434 142.01 80.0949C142.285 79.756 142.509 79.4261 142.509 79.3619C142.509 79.1216 143.898 77.8086 145.851 76.2023C146.691 75.512 149.213 74.1327 149.637 74.1327C150.558 74.1327 155.22 69.7674 156.056 68.1216C156.215 67.8095 156.605 67.0765 156.924 66.4928C157.243 65.9091 157.504 65.2494 157.504 65.0265C157.504 64.8038 157.581 64.6215 157.676 64.6215C157.771 64.6215 157.818 64.5322 157.779 64.4233C157.74 64.3144 157.772 64.0553 157.85 63.8476C158.227 62.8356 158.239 58.077 157.866 57.6102C157.777 57.4994 157.619 57.1235 157.513 56.7748C157.271 55.973 157.019 55.4202 156.742 55.0862C156.623 54.9421 156.548 54.7091 156.576 54.5682C156.604 54.4233 156.459 54.227 156.241 54.1167C156.029 54.0092 155.742 53.6906 155.603 53.4086C155.464 53.1264 155.233 52.8568 155.089 52.8091C154.945 52.7614 154.647 52.5642 154.426 52.3708C153.432 51.4994 152.954 51.1473 152.764 51.1473C152.651 51.1473 152.559 51.076 152.559 50.9888C152.559 50.9016 152.462 50.8303 152.344 50.8303C152.226 50.8303 151.997 50.6851 151.836 50.5077C151.674 50.3301 151.445 50.222 151.326 50.2672C151.208 50.3124 151.07 50.2436 151.02 50.1142C150.97 49.9849 150.758 49.8791 150.548 49.8791C150.338 49.8791 150.166 49.8159 150.166 49.7385C150.166 49.5903 149.599 49.45 148.411 49.3044C147.373 49.1771 143.195 49.1975 142.977 49.331C142.876 49.3933 142.316 49.4659 141.734 49.4925C140.353 49.5556 139.651 49.671 139.403 49.8757C139.13 50.1012 138.775 49.6691 138.887 49.2459C138.933 49.071 138.905 48.928 138.826 48.928C138.746 48.928 138.681 49.0136 138.681 49.1183C138.681 49.2589 138.634 49.262 138.502 49.1306C138.404 49.0328 138.234 48.987 138.124 49.0287C138.015 49.0704 137.887 48.9578 137.84 48.7785C137.787 48.5804 137.623 48.4525 137.42 48.4525C137.236 48.4525 137.086 48.3811 137.086 48.2939C137.086 48.2068 137.176 48.1343 137.285 48.1331C137.425 48.1313 137.432 48.096 137.307 48.0142C137.209 47.9501 137.075 47.7193 137.01 47.5013C136.944 47.2834 136.715 46.9188 136.501 46.6912C136.214 46.3855 136.138 46.1733 136.212 45.8798C136.291 45.5687 136.219 45.4089 135.88 45.1445C135.569 44.9011 135.521 44.8065 135.709 44.8065C136.098 44.8065 136.044 44.065 135.64 43.8498C135.386 43.7148 135.352 43.6257 135.49 43.4604C135.592 43.3377 135.635 42.9528 135.59 42.56C135.546 42.1827 135.506 41.6735 135.501 41.4286C135.495 41.1837 135.429 41.0215 135.353 41.0681C135.275 41.116 135.274 40.835 135.351 40.4242C135.498 39.6446 135.384 38.5166 135.143 38.3689C135.059 38.317 135.073 38.1874 135.178 38.0623C135.279 37.9413 135.302 37.7549 135.23 37.6405C135.159 37.5276 135.079 37.257 135.052 37.039C134.908 35.8899 134.84 35.1154 134.8 34.1822C134.777 33.6134 134.696 33.0497 134.621 32.9296C134.438 32.6355 134.406 31.615 134.573 31.3872C134.783 31.0999 134.537 30.4064 134.104 30.0684C133.848 29.8682 133.742 29.6612 133.799 29.4764C134.002 28.8303 133.037 26.7443 132.402 26.4567C132.14 26.3383 131.933 26.0565 131.812 25.6537C131.692 25.2583 131.534 25.0399 131.375 25.0519C131.234 25.0627 131.084 24.9001 131.028 24.6745C130.965 24.4205 130.818 24.2782 130.618 24.2782C130.382 24.2782 130.294 24.1511 130.256 23.7533C130.225 23.4317 130.132 23.2551 130.017 23.2973C129.913 23.335 129.685 23.2424 129.509 23.0914C129.151 22.7827 126.511 22.1052 126.172 22.2347C126.051 22.2807 125.905 22.2422 125.847 22.149C125.789 22.0559 125.692 21.9895 125.631 22.0014C125.571 22.0133 125.091 22.0771 124.564 22.1433ZM130.785 23.8819C130.839 23.9691 130.915 24.0404 130.954 24.0404C130.993 24.0404 131.024 23.9691 131.024 23.8819C131.024 23.7947 130.948 23.7234 130.856 23.7234C130.763 23.7234 130.731 23.7947 130.785 23.8819ZM139 49.5621C139 49.6493 139.076 49.7206 139.169 49.7206C139.262 49.7206 139.294 49.6493 139.239 49.5621C139.185 49.4749 139.109 49.4036 139.07 49.4036C139.032 49.4036 139 49.4749 139 49.5621ZM138.42 49.7999C138.47 49.9307 138.45 50.0377 138.374 50.0377C138.299 50.0377 138.195 49.9307 138.145 49.7999C138.094 49.6691 138.115 49.5621 138.19 49.5621C138.266 49.5621 138.369 49.6691 138.42 49.7999ZM94.815 133.102C94.815 133.189 94.8911 133.261 94.984 133.261C95.0768 133.261 95.1086 133.189 95.0543 133.102C95.0001 133.015 94.9242 132.944 94.8854 132.944C94.8466 132.944 94.815 133.015 94.815 133.102ZM96.4102 134.37C96.4102 134.457 96.482 134.529 96.5697 134.529C96.6574 134.529 96.7292 134.457 96.7292 134.37C96.7292 134.283 96.6574 134.212 96.5697 134.212C96.482 134.212 96.4102 134.283 96.4102 134.37ZM97.2875 136.272C97.3417 136.36 97.3143 136.431 97.2266 136.431C97.1388 136.431 97.0227 136.36 96.9685 136.272C96.9142 136.185 96.9417 136.114 97.0294 136.114C97.1171 136.114 97.2333 136.185 97.2875 136.272ZM98.6434 136.748C98.6434 136.835 98.7194 136.907 98.8123 136.907C98.9051 136.907 98.9369 136.835 98.8826 136.748C98.8284 136.661 98.7525 136.589 98.7137 136.589C98.6749 136.589 98.6434 136.661 98.6434 136.748ZM138.203 162.438C138.203 162.53 138.274 162.561 138.362 162.507C138.45 162.454 138.522 162.378 138.522 162.34C138.522 162.301 138.45 162.27 138.362 162.27C138.274 162.27 138.203 162.345 138.203 162.438Z" fill="#9CD893"/>
<path d="M100.134 184.197C100.298 183.561 101.114 182.532 101.516 182.454C102.172 182.326 102.948 182.372 103.377 182.562C104.22 182.937 104.91 183.394 104.91 183.578C104.91 183.759 105.165 184.112 105.752 184.742C105.952 184.956 106.056 185.237 106.057 185.566C106.058 185.841 106.151 186.331 106.264 186.655C106.397 187.035 106.45 187.547 106.414 188.093C106.384 188.56 106.407 188.992 106.467 189.053C106.527 189.114 106.608 189.519 106.647 189.953C106.686 190.386 106.771 190.811 106.836 190.896C106.9 190.981 106.939 191.263 106.921 191.522C106.904 191.781 106.946 192.062 107.014 192.145C107.086 192.234 107.089 192.427 107.019 192.615C106.938 192.836 106.955 192.977 107.074 193.07C107.207 193.174 107.217 193.389 107.12 193.989C107.05 194.419 107.038 194.844 107.095 194.932C107.238 195.156 107.227 197.989 107.083 197.989C107.018 197.989 107.041 198.08 107.133 198.191C107.224 198.301 107.268 198.557 107.23 198.758C107.183 199.005 107.232 199.178 107.382 199.289C107.587 199.441 107.583 199.473 107.335 199.674C107.166 199.811 107.123 199.917 107.219 199.957C107.323 200.002 107.336 200.18 107.26 200.517C107.188 200.836 107.2 201.074 107.295 201.188C107.375 201.285 107.403 201.403 107.356 201.45C107.309 201.497 107.337 201.615 107.418 201.713C107.522 201.838 107.525 202.009 107.427 202.29C107.325 202.583 107.33 202.704 107.446 202.747C107.565 202.79 107.56 202.88 107.428 203.104C107.277 203.358 107.282 203.427 107.462 203.559C107.627 203.681 107.647 203.809 107.553 204.135C107.486 204.366 107.471 204.618 107.518 204.696C107.566 204.773 107.605 205.205 107.605 205.655C107.605 206.219 107.662 206.496 107.787 206.544C107.888 206.583 107.937 206.7 107.896 206.806C107.856 206.911 107.899 207.06 107.992 207.137C108.115 207.239 108.279 207.169 108.599 206.877C108.84 206.657 108.987 206.476 108.927 206.473C108.867 206.471 108.924 206.408 109.053 206.332C109.304 206.186 109.682 205.438 110.043 204.371C110.165 204.01 110.461 203.321 110.701 202.84C110.941 202.358 111.177 201.797 111.227 201.593C111.276 201.39 111.376 201.223 111.448 201.223C111.521 201.223 111.581 201.111 111.581 200.974C111.581 200.836 111.732 200.439 111.917 200.091C112.103 199.742 112.254 199.366 112.254 199.255C112.254 199.144 112.406 198.83 112.591 198.557C112.777 198.285 112.928 198.006 112.928 197.938C112.928 197.87 113.125 197.505 113.366 197.126C114.054 196.044 114.121 195.934 114.428 195.362C114.817 194.639 116.226 193.326 116.751 193.198C117.367 193.048 118.451 193.025 118.535 193.161C118.574 193.225 118.656 193.248 118.716 193.211C118.776 193.173 119.121 193.433 119.482 193.788C119.843 194.143 120.245 194.474 120.376 194.523C120.652 194.628 120.86 195.109 120.934 195.812C120.962 196.083 121.048 196.501 121.125 196.741C121.201 196.981 121.216 197.207 121.156 197.244C121.051 197.309 120.921 197.795 120.795 198.596C120.76 198.818 120.695 199.091 120.651 199.202C120.606 199.313 120.548 199.525 120.521 199.673C120.462 200.007 120.06 200.821 119.838 201.059C119.748 201.156 119.577 201.46 119.459 201.734C119.028 202.738 118.91 202.908 118.618 202.95C118.435 202.976 118.319 203.088 118.319 203.237C118.319 203.371 118.225 203.558 118.11 203.653C117.996 203.748 117.933 203.906 117.97 204.003C118.008 204.1 117.96 204.227 117.865 204.285C117.602 204.443 117.278 205.108 117.037 205.987C116.884 206.545 116.744 206.796 116.559 206.845C116.413 206.883 116.297 207.029 116.297 207.176C116.297 207.32 116.146 207.637 115.96 207.88C115.775 208.123 115.624 208.392 115.624 208.477C115.624 208.563 115.568 208.633 115.499 208.633C115.431 208.633 115.307 208.839 115.224 209.092C115.14 209.344 114.92 209.714 114.734 209.915C114.379 210.298 114.389 210.547 114.748 210.25C114.862 210.155 114.988 210.109 115.028 210.149C115.068 210.188 114.914 210.353 114.688 210.514C114.207 210.856 114.172 211 114.545 211.097C114.694 211.136 114.815 211.268 114.815 211.391C114.815 211.513 114.876 211.576 114.95 211.53C115.04 211.474 115.04 211.362 114.95 211.194C114.759 210.838 114.782 210.654 115.017 210.654C115.128 210.654 115.219 210.745 115.219 210.856C115.219 210.967 115.286 211.058 115.369 211.058C115.46 211.058 115.488 210.915 115.441 210.688C115.399 210.484 115.398 210.393 115.438 210.486C115.478 210.578 115.612 210.655 115.736 210.656C115.913 210.658 115.922 210.683 115.778 210.774C115.677 210.838 115.647 210.922 115.712 210.962C115.776 211.002 115.949 210.947 116.096 210.839C116.325 210.671 116.335 210.626 116.162 210.516C115.99 210.407 115.994 210.389 116.192 210.387C116.35 210.385 116.397 210.315 116.34 210.167C116.273 209.991 116.316 209.968 116.566 210.048C116.833 210.132 116.866 210.107 116.803 209.866C116.762 209.712 116.778 209.599 116.838 209.615C116.897 209.631 117.482 209.097 118.138 208.43C119.398 207.146 119.954 206.682 120.782 206.221C121.411 205.872 121.565 205.87 122.216 206.202C122.5 206.347 122.766 206.433 122.806 206.393C122.932 206.266 123.844 206.769 123.844 206.964C123.844 207.067 123.959 207.151 124.098 207.151C124.257 207.151 124.437 207.33 124.576 207.623C124.699 207.882 124.863 208.094 124.94 208.094C125.017 208.094 125.054 208.17 125.022 208.263C124.99 208.355 125.021 208.613 125.092 208.835C125.162 209.058 125.211 209.415 125.202 209.63C125.184 210.03 124.533 211.327 124.35 211.328C124.294 211.328 124.249 211.442 124.249 211.581C124.249 211.72 124.158 211.909 124.046 212.002C123.935 212.094 123.842 212.268 123.84 212.388C123.835 212.641 123.535 213.076 123.358 213.087C123.292 213.092 123.084 213.41 122.895 213.795C122.706 214.179 122.494 214.483 122.423 214.47C122.208 214.43 121.823 214.856 121.823 215.134C121.823 215.278 121.713 215.424 121.579 215.459C121.317 215.527 120.692 216.556 120.766 216.795C120.792 216.875 120.6 217.147 120.34 217.401C120.081 217.655 119.665 218.181 119.417 218.57C119.168 218.959 118.904 219.277 118.829 219.277C118.755 219.277 118.727 219.362 118.767 219.467C118.85 219.682 118.398 220.151 118.217 220.038C118.151 219.998 117.998 220.081 117.877 220.223C117.74 220.382 117.708 220.512 117.792 220.564C117.964 220.671 117.686 221.029 117.431 221.029C117.141 221.029 116.921 221.547 117.113 221.778C117.24 221.931 117.232 221.972 117.076 221.972C116.967 221.972 116.768 222.093 116.634 222.241C116.426 222.471 116.421 222.511 116.601 222.511C116.745 222.511 116.789 222.596 116.741 222.78C116.654 223.112 116.468 223.132 116.407 222.816C116.374 222.644 116.273 222.724 116.028 223.119C115.845 223.414 115.638 223.747 115.568 223.858C115.458 224.033 115.471 224.035 115.671 223.872C115.88 223.701 115.897 223.726 115.869 224.142C115.824 224.811 115.182 225.771 114.352 226.411C113.952 226.72 113.595 227.051 113.558 227.147C113.487 227.333 112.985 227.47 111.985 227.577C111.651 227.613 111.136 227.673 110.839 227.711C109.981 227.822 109.133 227.84 109.077 227.748C108.999 227.622 108.311 227.644 108.051 227.781C107.923 227.848 107.792 227.85 107.751 227.784C107.711 227.719 107.533 227.695 107.354 227.729C107.176 227.763 106.987 227.721 106.935 227.637C106.864 227.522 106.792 227.523 106.65 227.641C106.519 227.749 106.406 227.755 106.291 227.662C106.188 227.578 105.868 227.564 105.472 227.625C104.852 227.721 103.967 227.637 103.672 227.455C103.595 227.408 103.33 227.427 103.083 227.498C102.761 227.59 102.604 227.582 102.535 227.469C102.461 227.35 102.384 227.355 102.224 227.487C102.108 227.584 102.012 227.606 102.012 227.535C102.012 227.39 101.617 227.391 101.381 227.537C101.296 227.589 101.206 227.571 101.181 227.496C101.152 227.408 100.984 227.404 100.7 227.486C100.46 227.554 100.036 227.579 99.7566 227.541C99.4777 227.503 99.0978 227.464 98.9124 227.455C98.7271 227.445 98.5328 227.376 98.4808 227.3C98.4197 227.212 97.9906 227.296 97.2785 227.536C96.6371 227.752 96.1379 227.855 96.0923 227.781C95.9965 227.626 94.7517 227.629 94.6557 227.784C94.6181 227.845 94.4842 227.839 94.3579 227.771C94.2316 227.704 93.7493 227.571 93.2859 227.477C92.7752 227.373 92.4437 227.237 92.4437 227.131C92.4437 227.035 92.383 226.957 92.3089 226.957C92.2348 226.957 92.1741 226.862 92.1741 226.746C92.1741 226.6 92.0951 226.56 91.9204 226.615C91.626 226.708 91.1884 226.075 91.0274 225.323C90.9739 225.073 90.8848 224.808 90.8294 224.734C90.7308 224.602 90.5637 224.048 90.4651 223.527C90.4378 223.382 90.368 223.23 90.31 223.19C90.2521 223.15 90.1262 222.905 90.0304 222.645C89.6782 221.693 88.7337 219.822 88.6028 219.819C88.5287 219.817 88.3523 219.527 88.2108 219.176C88.0693 218.824 87.8495 218.435 87.7225 218.311C87.5954 218.187 87.2867 217.659 87.0364 217.138C86.7862 216.616 86.5169 216.187 86.4382 216.184C86.2704 216.177 85.7053 215.447 85.7053 215.236C85.7053 215.157 85.6144 215.057 85.5032 215.014C85.392 214.972 85.301 214.852 85.301 214.749C85.301 214.646 85.2517 214.561 85.1913 214.561C85.1309 214.561 84.877 214.289 84.6272 213.955C84.3773 213.622 84.131 213.349 84.08 213.349C84.029 213.349 83.7522 213.133 83.465 212.869C83.1776 212.605 82.7304 212.289 82.4709 212.166C82.2115 212.043 81.8817 211.835 81.7379 211.703C81.5943 211.571 81.3947 211.463 81.2943 211.463C81.194 211.463 81.0386 211.401 80.9491 211.325C80.2149 210.706 79.959 210.52 79.8393 210.52C79.7632 210.52 79.5294 210.324 79.32 210.086C78.9628 209.678 78.9446 209.601 79.0295 208.839C79.1427 207.823 79.6707 206.645 80.2031 206.221C80.8443 205.71 83.2134 205.209 83.4187 205.542C83.4664 205.619 83.7562 205.692 84.0628 205.704C84.3711 205.716 84.6496 205.803 84.6859 205.897C84.7222 205.992 84.8299 206.039 84.9253 206.003C85.0207 205.967 85.3111 206.073 85.5706 206.238C85.83 206.404 86.2536 206.603 86.5118 206.68C86.7781 206.761 87.0506 206.961 87.1413 207.142C87.2291 207.319 87.4423 207.479 87.615 207.499C88.1175 207.557 88.9397 207.948 88.9399 208.13C88.9401 208.367 90.2587 209.711 90.491 209.711C90.5976 209.711 90.7789 209.893 90.8938 210.115C91.0088 210.338 91.1923 210.519 91.3016 210.519C91.4109 210.519 91.5073 210.625 91.5159 210.755C91.5307 210.98 91.5345 210.98 91.5931 210.755C91.6271 210.625 91.7016 210.519 91.7588 210.519C91.9318 210.519 92.316 211.006 92.2194 211.103C92.1698 211.153 92.1964 211.193 92.2784 211.193C92.4914 211.193 92.6086 210.958 92.4458 210.858C92.2403 210.731 92.281 210.519 92.511 210.519C92.6222 210.519 92.7182 210.413 92.7244 210.284C92.7306 210.154 92.754 209.896 92.7764 209.711C92.8276 209.288 92.5276 208.083 92.2676 207.667C92.1596 207.495 92.031 207.083 91.9819 206.754C91.9329 206.424 91.8419 206.09 91.7798 206.013C91.514 205.68 90.8265 204.264 90.8265 204.05C90.8265 203.921 90.7394 203.744 90.6329 203.655C90.5266 203.567 90.4014 203.321 90.3548 203.109C90.3081 202.897 90.1829 202.651 90.0766 202.563C89.9701 202.475 89.8831 202.332 89.8831 202.247C89.8831 201.95 89.0598 200.48 88.7431 200.212C88.5679 200.064 88.3569 199.688 88.2742 199.376C88.1916 199.065 88.0499 198.731 87.9592 198.635C87.8685 198.539 87.6131 198.188 87.3918 197.855C87.1705 197.521 86.7103 196.915 86.3692 196.507C85.2486 195.168 84.6714 193.884 84.809 193.036C84.9283 192.301 85.4358 191.381 85.7975 191.243C85.9781 191.175 86.0932 191.066 86.0532 191.001C85.8463 190.666 87.4725 189.636 88.2075 189.636C88.4532 189.636 88.6918 189.697 88.7376 189.771C88.7834 189.845 88.9311 189.905 89.066 189.905C89.2008 189.905 89.3865 189.996 89.4788 190.107C89.5711 190.219 89.7379 190.31 89.8495 190.31C90.0522 190.31 91.4944 191.231 91.9353 191.642C92.7089 192.363 93.1284 192.834 93.2033 193.066C93.2502 193.212 93.7049 193.75 94.2138 194.263C94.7227 194.776 95.139 195.248 95.139 195.312C95.139 195.377 95.23 195.429 95.3411 195.429C95.4523 195.429 95.5433 195.511 95.5433 195.611C95.5433 195.894 95.9518 196.642 96.1066 196.642C96.1833 196.642 96.2128 196.728 96.1721 196.834C96.1315 196.94 96.1956 197.107 96.3144 197.205C96.4333 197.303 96.6447 197.641 96.7844 197.956C96.9241 198.271 97.1012 198.528 97.178 198.528C97.2548 198.528 97.2903 198.604 97.2567 198.697C97.2231 198.789 97.2722 198.956 97.3656 199.067C97.5754 199.317 98.1836 200.865 98.3052 201.459C98.3653 201.752 98.4727 201.897 98.6312 201.897C98.965 201.897 99.0707 202.043 98.8922 202.258C98.7707 202.404 98.7874 202.423 98.9743 202.352C99.111 202.299 99.2553 202.336 99.3193 202.44C99.5025 202.736 99.9639 202.732 100.059 202.433C100.105 202.286 100.217 202.166 100.307 202.166C100.511 202.166 100.91 201.708 101.068 201.291C101.179 201.001 101.083 200.484 100.806 199.876C100.755 199.764 100.759 199.462 100.814 199.202C100.868 198.943 100.865 198.474 100.806 198.158C100.739 197.797 100.749 197.585 100.833 197.585C100.907 197.585 100.893 197.496 100.801 197.385C100.709 197.275 100.669 197.093 100.713 196.981C100.756 196.868 100.736 196.777 100.67 196.777C100.51 196.777 100.513 194.365 100.673 194.066C100.749 193.924 100.748 193.817 100.671 193.79C100.602 193.765 100.481 193.23 100.402 192.6C100.324 191.97 100.199 191.435 100.125 191.41C99.9506 191.352 99.9508 190.889 100.125 190.781C100.348 190.644 100.277 190.444 100.006 190.444C99.7922 190.444 99.7522 190.341 99.7522 189.791C99.7522 189.431 99.6913 189.022 99.617 188.881C99.3883 188.448 99.4494 186.781 99.7329 185.717C99.8793 185.168 100.06 184.483 100.134 184.197Z" fill="#749070"/>
<path d="M108.211 207.016C108.137 207.016 108.077 206.956 108.077 206.882C108.077 206.808 108.137 206.747 108.211 206.747C108.285 206.747 108.346 206.808 108.346 206.882C108.346 206.956 108.285 207.016 108.211 207.016Z" fill="#749070"/>
<path d="M122.184 214.991C122.141 215.098 122.109 215.066 122.103 214.909C122.097 214.767 122.129 214.688 122.174 214.733C122.218 214.777 122.223 214.894 122.184 214.991Z" fill="#749070"/>
<path d="M115.938 223.678C115.898 223.639 115.906 223.542 115.955 223.463C116.065 223.285 116.297 223.274 116.297 223.446C116.297 223.605 116.035 223.775 115.938 223.678Z" fill="#749070"/>
</svg>
