<svg width="250" height="250" viewBox="0 0 250 250" fill="none" xmlns="http://www.w3.org/2000/svg">
<path d="M135.243 154.638C135.518 153.57 136.883 151.843 137.556 151.712C138.654 151.497 139.953 151.573 140.671 151.893C142.082 152.523 143.236 153.29 143.236 153.598C143.236 153.902 143.664 154.495 144.646 155.553C144.981 155.914 145.154 156.385 145.157 156.938C145.159 157.399 145.315 158.222 145.504 158.766C145.725 159.404 145.814 160.263 145.754 161.182C145.703 161.966 145.743 162.691 145.843 162.794C145.943 162.896 146.078 163.576 146.144 164.304C146.21 165.032 146.352 165.745 146.46 165.888C146.568 166.031 146.632 166.504 146.603 166.939C146.574 167.375 146.644 167.845 146.758 167.985C146.879 168.134 146.883 168.46 146.767 168.775C146.631 169.145 146.659 169.382 146.859 169.539C147.081 169.714 147.098 170.075 146.935 171.082C146.818 171.805 146.799 172.517 146.894 172.665C147.133 173.042 147.115 177.8 146.874 177.8C146.766 177.8 146.803 177.952 146.957 178.138C147.111 178.324 147.184 178.752 147.119 179.091C147.04 179.504 147.124 179.796 147.375 179.983C147.717 180.238 147.71 180.29 147.296 180.628C147.013 180.859 146.941 181.036 147.101 181.105C147.276 181.179 147.298 181.478 147.17 182.044C147.05 182.58 147.07 182.98 147.228 183.171C147.363 183.334 147.409 183.532 147.33 183.61C147.252 183.689 147.299 183.888 147.435 184.053C147.609 184.263 147.613 184.549 147.449 185.022C147.278 185.513 147.287 185.718 147.482 185.789C147.681 185.861 147.673 186.012 147.451 186.388C147.198 186.816 147.207 186.931 147.509 187.153C147.784 187.357 147.818 187.572 147.661 188.12C147.549 188.508 147.523 188.932 147.603 189.061C147.682 189.191 147.747 189.916 147.747 190.673C147.747 191.62 147.842 192.085 148.053 192.166C148.221 192.231 148.303 192.428 148.235 192.605C148.168 192.781 148.24 193.032 148.395 193.161C148.602 193.333 148.876 193.215 149.411 192.725C149.814 192.356 150.061 192.05 149.961 192.047C149.86 192.043 149.955 191.936 150.172 191.81C150.592 191.564 151.224 190.308 151.829 188.516C152.033 187.91 152.528 186.754 152.93 185.945C153.331 185.136 153.727 184.194 153.809 183.852C153.892 183.51 154.059 183.23 154.18 183.23C154.302 183.23 154.402 183.041 154.402 182.811C154.402 182.581 154.655 181.913 154.966 181.328C155.276 180.743 155.53 180.112 155.53 179.925C155.53 179.738 155.783 179.211 156.094 178.753C156.404 178.295 156.657 177.828 156.657 177.714C156.657 177.6 156.987 176.986 157.391 176.35C158.542 174.533 158.653 174.348 159.168 173.388C159.818 172.174 162.177 169.969 163.056 169.754C164.086 169.501 165.901 169.464 166.041 169.692C166.108 169.8 166.245 169.837 166.345 169.775C166.446 169.712 167.023 170.149 167.627 170.744C168.231 171.34 168.905 171.896 169.124 171.979C169.585 172.156 169.933 172.963 170.057 174.143C170.105 174.599 170.249 175.301 170.377 175.704C170.505 176.107 170.529 176.486 170.43 176.548C170.253 176.657 170.036 177.473 169.825 178.818C169.767 179.191 169.658 179.649 169.583 179.836C169.508 180.023 169.411 180.379 169.367 180.628C169.267 181.188 168.595 182.555 168.224 182.954C168.072 183.117 167.786 183.628 167.589 184.089C166.867 185.774 166.671 186.059 166.18 186.13C165.875 186.174 165.68 186.362 165.68 186.612C165.68 186.837 165.523 187.151 165.332 187.311C165.14 187.47 165.034 187.735 165.097 187.898C165.159 188.062 165.08 188.275 164.92 188.371C164.48 188.637 163.939 189.755 163.535 191.23C163.278 192.167 163.044 192.589 162.734 192.67C162.49 192.734 162.297 192.98 162.297 193.226C162.297 193.469 162.043 194.001 161.733 194.409C161.423 194.817 161.169 195.268 161.169 195.412C161.169 195.556 161.075 195.674 160.961 195.674C160.846 195.674 160.639 196.02 160.499 196.444C160.36 196.867 159.991 197.489 159.68 197.826C159.085 198.47 159.102 198.888 159.703 198.389C159.895 198.229 160.106 198.152 160.172 198.219C160.238 198.285 159.982 198.561 159.603 198.832C158.799 199.406 158.74 199.648 159.364 199.812C159.612 199.877 159.815 200.098 159.815 200.304C159.815 200.51 159.917 200.615 160.042 200.538C160.193 200.444 160.193 200.257 160.042 199.974C159.722 199.375 159.761 199.068 160.154 199.068C160.34 199.068 160.492 199.22 160.492 199.407C160.492 199.594 160.605 199.746 160.742 199.746C160.896 199.746 160.943 199.506 160.864 199.124C160.793 198.782 160.791 198.629 160.858 198.785C160.926 198.94 161.15 199.069 161.357 199.071C161.654 199.074 161.668 199.115 161.427 199.269C161.258 199.376 161.209 199.518 161.316 199.585C161.424 199.651 161.714 199.558 161.96 199.378C162.344 199.096 162.359 199.019 162.07 198.836C161.782 198.653 161.789 198.621 162.121 198.618C162.384 198.616 162.463 198.498 162.368 198.25C162.255 197.954 162.327 197.916 162.747 198.049C163.193 198.191 163.248 198.149 163.142 197.743C163.075 197.485 163.101 197.295 163.201 197.322C163.301 197.349 164.28 196.453 165.377 195.332C167.486 193.176 168.416 192.397 169.804 191.624C170.856 191.038 171.114 191.034 172.203 191.591C172.679 191.835 173.123 191.979 173.191 191.912C173.402 191.699 174.929 192.542 174.929 192.871C174.929 193.044 175.12 193.185 175.354 193.185C175.619 193.185 175.921 193.484 176.154 193.977C176.36 194.412 176.634 194.769 176.763 194.769C176.891 194.769 176.953 194.896 176.899 195.052C176.846 195.207 176.899 195.64 177.016 196.013C177.134 196.386 177.217 196.987 177.201 197.348C177.171 198.019 176.081 200.198 175.775 200.199C175.681 200.199 175.605 200.39 175.605 200.624C175.605 200.857 175.453 201.175 175.267 201.33C175.081 201.485 174.926 201.777 174.921 201.98C174.913 202.403 174.411 203.134 174.114 203.153C174.004 203.161 173.655 203.695 173.34 204.341C173.024 204.987 172.669 205.498 172.55 205.475C172.19 205.408 171.545 206.124 171.545 206.59C171.545 206.831 171.362 207.077 171.137 207.136C170.699 207.251 169.652 208.978 169.777 209.379C169.819 209.513 169.498 209.971 169.064 210.398C168.63 210.824 167.934 211.707 167.518 212.36C167.102 213.013 166.659 213.548 166.535 213.548C166.41 213.548 166.364 213.691 166.431 213.866C166.569 214.227 165.813 215.015 165.509 214.826C165.399 214.758 165.143 214.897 164.94 215.135C164.711 215.403 164.657 215.622 164.798 215.709C165.086 215.888 164.621 216.489 164.194 216.489C163.709 216.489 163.341 217.36 163.662 217.748C163.875 218.005 163.862 218.073 163.6 218.073C163.418 218.073 163.085 218.277 162.861 218.525C162.512 218.912 162.504 218.978 162.804 218.978C163.046 218.978 163.12 219.121 163.039 219.43C162.894 219.987 162.582 220.02 162.48 219.49C162.424 219.201 162.256 219.336 161.847 219.999C161.54 220.495 161.193 221.054 161.076 221.24C160.891 221.535 160.914 221.538 161.248 221.264C161.597 220.977 161.627 221.018 161.58 221.717C161.504 222.84 160.43 224.453 159.041 225.528C158.371 226.046 157.773 226.602 157.711 226.764C157.592 227.076 156.752 227.306 155.078 227.486C154.52 227.545 153.657 227.647 153.161 227.711C151.724 227.897 150.306 227.927 150.211 227.774C150.081 227.562 148.929 227.598 148.494 227.828C148.28 227.941 148.06 227.943 147.992 227.833C147.925 227.725 147.627 227.683 147.328 227.74C147.029 227.798 146.714 227.728 146.626 227.586C146.507 227.393 146.386 227.394 146.148 227.592C145.93 227.774 145.741 227.785 145.548 227.628C145.377 227.488 144.84 227.464 144.178 227.567C143.139 227.728 141.659 227.587 141.164 227.28C141.036 227.201 140.593 227.234 140.178 227.353C139.639 227.508 139.378 227.494 139.261 227.305C139.138 227.105 139.009 227.112 138.742 227.335C138.546 227.498 138.386 227.534 138.386 227.415C138.386 227.171 137.724 227.174 137.33 227.418C137.188 227.506 137.037 227.476 136.996 227.35C136.946 227.202 136.666 227.195 136.19 227.332C135.789 227.448 135.078 227.49 134.611 227.426C134.144 227.362 133.508 227.297 133.198 227.281C132.888 227.264 132.563 227.148 132.476 227.021C132.373 226.873 131.655 227.014 130.463 227.417C129.39 227.779 128.554 227.953 128.478 227.829C128.317 227.569 126.234 227.572 126.073 227.833C126.01 227.935 125.786 227.926 125.575 227.812C125.363 227.699 124.556 227.476 123.781 227.318C122.926 227.143 122.371 226.914 122.371 226.737C122.371 226.576 122.269 226.444 122.145 226.444C122.021 226.444 121.92 226.285 121.92 226.09C121.92 225.845 121.787 225.777 121.495 225.87C121.002 226.027 120.27 224.964 120 223.701C119.911 223.281 119.762 222.836 119.669 222.711C119.504 222.489 119.224 221.559 119.059 220.685C119.013 220.441 118.896 220.187 118.799 220.119C118.702 220.051 118.492 219.64 118.331 219.204C117.742 217.605 116.161 214.464 115.942 214.458C115.818 214.454 115.523 213.968 115.286 213.377C115.049 212.787 114.681 212.133 114.469 211.925C114.256 211.717 113.739 210.831 113.32 209.955C112.901 209.079 112.451 208.358 112.319 208.353C112.038 208.342 111.092 207.116 111.092 206.762C111.092 206.629 110.94 206.461 110.754 206.39C110.568 206.318 110.415 206.117 110.415 205.944C110.415 205.771 110.333 205.629 110.232 205.629C110.131 205.629 109.706 205.171 109.288 204.611C108.869 204.051 108.457 203.593 108.372 203.593C108.286 203.593 107.823 203.23 107.342 202.786C106.861 202.343 106.113 201.812 105.678 201.606C105.244 201.4 104.692 201.05 104.452 200.828C104.211 200.607 103.877 200.425 103.709 200.425C103.541 200.425 103.281 200.321 103.131 200.194C101.902 199.154 101.474 198.842 101.274 198.841C101.146 198.841 100.755 198.513 100.404 198.113C99.8067 197.429 99.7762 197.298 99.9183 196.02C100.108 194.314 100.992 192.336 101.883 191.623C102.956 190.765 106.921 189.924 107.265 190.482C107.345 190.611 107.83 190.734 108.343 190.755C108.859 190.775 109.325 190.92 109.386 191.08C109.447 191.238 109.627 191.318 109.787 191.257C109.946 191.197 110.432 191.375 110.867 191.652C111.301 191.93 112.01 192.264 112.442 192.394C112.888 192.529 113.344 192.865 113.496 193.17C113.643 193.466 114 193.736 114.289 193.769C115.13 193.866 116.506 194.523 116.506 194.828C116.507 195.227 118.714 197.484 119.102 197.484C119.281 197.484 119.584 197.789 119.777 198.163C119.969 198.536 120.276 198.841 120.459 198.841C120.642 198.841 120.803 199.019 120.818 199.237C120.843 199.614 120.849 199.614 120.947 199.237C121.004 199.019 121.129 198.841 121.224 198.841C121.514 198.841 122.157 199.659 121.995 199.821C121.912 199.904 121.957 199.973 122.094 199.973C122.451 199.973 122.647 199.578 122.374 199.409C122.03 199.196 122.098 198.841 122.484 198.841C122.67 198.841 122.83 198.663 122.841 198.445C122.851 198.227 122.89 197.795 122.928 197.484C123.013 196.773 122.511 194.749 122.076 194.051C121.895 193.762 121.68 193.071 121.598 192.517C121.516 191.964 121.364 191.404 121.26 191.273C120.815 190.714 119.664 188.337 119.664 187.977C119.664 187.761 119.518 187.463 119.34 187.314C119.162 187.166 118.952 186.753 118.874 186.397C118.796 186.041 118.587 185.628 118.409 185.48C118.231 185.332 118.085 185.093 118.085 184.949C118.085 184.45 116.707 181.983 116.177 181.533C115.884 181.284 115.53 180.652 115.392 180.129C115.254 179.606 115.016 179.046 114.865 178.885C114.713 178.723 114.285 178.133 113.915 177.573C113.545 177.013 112.774 175.995 112.203 175.311C110.328 173.063 109.362 170.906 109.592 169.482C109.792 168.248 110.641 166.702 111.246 166.471C111.549 166.356 111.741 166.173 111.674 166.064C111.328 165.502 114.05 163.772 115.28 163.772C115.692 163.772 116.091 163.874 116.168 163.998C116.244 164.123 116.491 164.224 116.717 164.224C116.943 164.224 117.254 164.377 117.408 164.564C117.563 164.75 117.842 164.903 118.029 164.903C118.368 164.903 120.782 166.45 121.52 167.14C122.815 168.351 123.517 169.143 123.642 169.533C123.721 169.777 124.482 170.681 125.334 171.542C126.185 172.403 126.882 173.196 126.882 173.304C126.882 173.412 127.034 173.501 127.22 173.501C127.407 173.501 127.559 173.638 127.559 173.805C127.559 174.282 128.243 175.537 128.502 175.537C128.63 175.537 128.679 175.682 128.611 175.86C128.543 176.038 128.651 176.317 128.85 176.482C129.049 176.647 129.402 177.214 129.636 177.743C129.87 178.272 130.166 178.705 130.295 178.705C130.424 178.705 130.483 178.832 130.427 178.987C130.371 179.143 130.453 179.423 130.609 179.61C130.96 180.028 131.978 182.628 132.182 183.626C132.282 184.119 132.462 184.361 132.727 184.361C133.286 184.361 133.463 184.606 133.164 184.968C132.961 185.214 132.989 185.246 133.302 185.125C133.53 185.037 133.772 185.099 133.879 185.273C134.186 185.77 134.958 185.764 135.117 185.262C135.195 185.016 135.381 184.814 135.532 184.814C135.874 184.814 136.541 184.045 136.806 183.345C136.992 182.857 136.831 181.989 136.367 180.967C136.282 180.781 136.288 180.272 136.38 179.837C136.472 179.402 136.467 178.613 136.368 178.083C136.255 177.476 136.272 177.121 136.413 177.121C136.537 177.121 136.513 176.971 136.359 176.784C136.205 176.599 136.139 176.294 136.211 176.106C136.283 175.917 136.251 175.763 136.14 175.763C135.873 175.763 135.877 171.713 136.145 171.211C136.272 170.973 136.271 170.793 136.142 170.748C136.025 170.706 135.823 169.807 135.692 168.749C135.56 167.692 135.351 166.792 135.228 166.751C134.936 166.653 134.936 165.876 135.228 165.695C135.601 165.464 135.483 165.129 135.029 165.129C134.671 165.129 134.604 164.956 134.604 164.032C134.604 163.428 134.502 162.741 134.377 162.505C133.995 161.778 134.097 158.978 134.571 157.191C134.816 156.269 135.118 155.119 135.243 154.638Z" fill="#00CA0A"/>
<path d="M148.762 192.959C148.638 192.959 148.537 192.857 148.537 192.732C148.537 192.608 148.638 192.506 148.762 192.506C148.887 192.506 148.988 192.608 148.988 192.732C148.988 192.857 148.887 192.959 148.762 192.959Z" fill="#00CA0A"/>
<path d="M172.15 206.35C172.078 206.531 172.025 206.477 172.014 206.213C172.004 205.975 172.058 205.841 172.132 205.916C172.207 205.992 172.215 206.187 172.15 206.35Z" fill="#00CA0A"/>
<path d="M161.695 220.939C161.629 220.872 161.642 220.709 161.724 220.577C161.907 220.278 162.297 220.259 162.297 220.548C162.297 220.815 161.857 221.101 161.695 220.939Z" fill="#00CA0A"/>
<path fill-rule="evenodd" clip-rule="evenodd" d="M123.765 22.2924C123.239 22.3583 122.521 22.4576 122.17 22.5129C121.819 22.5681 121.245 22.6543 120.894 22.7045C119.194 22.948 116.791 23.7405 116.165 24.2638C115.901 24.4846 115.597 24.6651 115.49 24.6651C115.218 24.6651 114.021 25.836 113.573 26.5401C113.368 26.8629 113.082 27.2248 112.937 27.3445C112.436 27.7579 112.284 28.2361 111.482 31.9414C111.269 32.926 111.011 35.7423 110.965 37.5846C110.959 37.8462 110.901 39.3799 110.837 40.9928C110.773 42.6058 110.728 44.4605 110.738 45.1144C110.747 45.7683 110.784 48.9165 110.818 52.1104C110.853 55.3041 110.926 57.9877 110.979 58.0737C111.033 58.1596 110.977 58.6123 110.855 59.0796C110.726 59.5726 110.688 60.0327 110.766 60.1757C110.838 60.311 110.9 61.1685 110.903 62.0812C110.906 62.9938 110.936 63.9903 110.971 64.2955C111.005 64.6006 110.955 64.9039 110.859 64.9692C110.737 65.0522 110.748 65.1283 110.893 65.222C111.024 65.3056 111.065 65.5037 111.003 65.7489C110.937 66.0091 110.988 66.2115 111.153 66.3478C111.29 66.461 111.403 66.6249 111.403 66.7121C111.403 66.8006 111.297 66.7833 111.163 66.6733C110.887 66.4453 110.862 66.5641 110.914 67.8622C110.986 69.6716 110.798 74.7352 110.638 75.306C110.553 75.6063 110.579 75.9769 110.708 76.3364C110.954 77.0209 110.985 78.0868 110.759 78.0868C110.652 78.0868 110.646 78.1845 110.741 78.3642C110.822 78.5167 110.898 79.248 110.91 79.9891C110.951 82.4856 110.892 83.2085 110.636 83.3705C110.472 83.4745 110.469 83.5509 110.622 83.7348C110.876 84.0391 110.866 87.5231 110.61 87.8295C110.511 87.9483 110.494 88.0846 110.572 88.1325C110.715 88.2206 110.697 89.3394 110.527 90.927C110.475 91.4066 110.404 92.2821 110.369 92.8726C110.334 93.4631 110.269 94.0694 110.224 94.22C110.18 94.3706 110.1 94.9126 110.048 95.4246C109.889 96.9761 109.249 98.1074 107.594 99.7646C106.788 100.571 106.032 101.231 105.914 101.231C105.796 101.231 105.606 101.342 105.493 101.478C105.216 101.809 104.38 102.157 103.028 102.502C102.019 102.76 101.885 102.764 101.635 102.542C101.412 102.344 101.313 102.335 101.119 102.495C100.987 102.604 100.772 102.653 100.643 102.603C100.513 102.553 100.363 102.583 100.31 102.668C100.257 102.753 100.074 102.661 99.9037 102.463C99.7333 102.265 99.6129 102.201 99.6362 102.321C99.6593 102.441 99.5887 102.571 99.4789 102.611C99.3693 102.651 99.2795 102.609 99.2795 102.517C99.2795 102.313 98.8077 102.476 98.4891 102.789C98.3304 102.945 98.2379 102.96 98.1966 102.837C98.1254 102.625 97.6844 102.593 97.6844 102.8C97.6844 103.011 96.2719 103.046 93.856 102.895C93.1103 102.848 92.3662 102.808 92.2023 102.805C92.0387 102.802 91.724 102.682 91.5032 102.538C91.2823 102.394 90.8989 102.292 90.6511 102.31C90.3397 102.334 90.1475 102.246 90.0288 102.026C89.9342 101.85 89.7238 101.706 89.5611 101.706C89.0703 101.706 87.5643 100.09 87.0192 98.978C86.7438 98.4161 86.5184 97.8035 86.5184 97.6168C86.5184 97.4302 86.3892 97.0436 86.2311 96.7575C85.9148 96.185 85.5407 95.0321 85.471 94.4145C85.3502 93.3467 85.0945 91.6055 85.0169 91.3233C84.8489 90.7124 84.6733 87.9804 84.5433 83.9521C84.4121 79.8905 84.2496 78.4419 83.8045 77.3735C83.7318 77.1991 83.6302 76.7024 83.5784 76.2697C83.5267 75.8369 83.3402 75.2081 83.1641 74.8722C82.9878 74.5363 82.8802 74.2029 82.9247 74.1312C82.9692 74.0597 82.9004 73.9145 82.7718 73.8085C82.6434 73.7024 82.3557 73.2486 82.1327 72.7998C81.3763 71.278 80.5667 70.2784 79.3696 69.3883C78.9443 69.072 78.4742 68.6911 78.3249 68.5419C78.1078 68.3249 77.9673 68.3029 77.6248 68.4324C77.2742 68.5648 77.1576 68.5421 76.9832 68.3075C76.8662 68.1497 76.6612 68.0429 76.528 68.07C76.3948 68.0971 76.178 68.0304 76.0463 67.9216C75.8762 67.7815 75.7752 67.7745 75.6987 67.8977C75.6392 67.9933 75.0166 68.1174 74.315 68.1738C73.2796 68.2569 72.8292 68.2149 71.9233 67.9503C70.744 67.6059 69.6896 67.5266 69.5378 67.7707C69.4877 67.8513 69.2203 67.9665 68.9437 68.0269C68.3261 68.1616 67.0993 68.7984 66.6512 69.2168C66.4687 69.3872 66.2467 69.5267 66.158 69.5267C65.6941 69.5267 64.1857 71.7962 63.6293 73.3312C63.3923 73.9851 63.1741 74.8095 63.1446 75.1632C63.1149 75.5169 62.9471 76.4085 62.7716 77.1447C62.5962 77.8809 62.385 79.1608 62.3023 79.9891C62.1246 81.7683 62.1891 85.8526 62.4159 87.2018C62.5038 87.7249 62.5667 88.5453 62.5553 89.0248C62.5177 90.6358 63.1028 95.959 63.5373 97.9592C63.6295 98.3829 63.6627 98.7975 63.6112 98.8804C63.5596 98.9633 63.6628 99.3667 63.8404 99.7771C64.0181 100.188 64.1985 100.826 64.2412 101.197C64.3328 101.989 65.0195 104.304 65.4976 105.432C65.6823 105.868 65.8471 106.463 65.8637 106.755C65.8803 107.047 65.9758 107.337 66.0758 107.398C66.176 107.46 66.4366 108.032 66.6552 108.671C66.8737 109.309 67.1316 109.926 67.2283 110.042C67.325 110.158 67.3628 110.319 67.3124 110.4C67.262 110.481 67.3275 110.636 67.4582 110.744C67.5888 110.851 67.6957 111.041 67.6957 111.164C67.6957 111.288 67.9469 111.76 68.254 112.213C68.561 112.666 68.8123 113.127 68.8123 113.237C68.8123 113.347 68.8818 113.437 68.9668 113.437C69.0992 113.437 69.9235 114.558 70.5028 115.526C70.7456 115.932 71.8167 117.025 72.8048 117.876C73.2605 118.268 73.7508 118.721 73.8946 118.881C74.4852 119.543 77.267 121.223 77.892 121.296C78.1043 121.321 78.5709 121.486 78.9288 121.662C79.8355 122.11 81.5305 122.651 82.2912 122.735C82.6422 122.775 83.2014 122.878 83.534 122.965C83.8666 123.052 84.7639 123.195 85.5279 123.284C86.292 123.372 87.2043 123.48 87.5552 123.524C87.9061 123.568 88.8034 123.623 89.5491 123.648C90.7281 123.686 93.8294 124.142 93.9937 124.302C94.0256 124.333 94.3409 124.243 94.6944 124.103C95.2628 123.876 95.3575 123.874 95.5137 124.084C95.6354 124.247 95.9138 124.306 96.4083 124.275C97.2685 124.219 98.7032 124.479 99.3449 124.807C99.6121 124.943 100.302 125.054 100.97 125.068C101.904 125.089 102.202 125.158 102.499 125.427C102.703 125.611 102.958 125.729 103.068 125.689C103.178 125.649 103.309 125.725 103.36 125.858C103.411 125.99 103.548 126.062 103.665 126.018C103.981 125.897 108.405 128.079 108.857 128.579C109.073 128.817 109.405 129.179 109.596 129.383C109.786 129.587 109.986 129.893 110.041 130.062C110.095 130.232 110.244 130.457 110.372 130.562C110.5 130.668 110.605 130.965 110.605 131.221C110.605 131.478 110.691 131.844 110.796 132.034C110.901 132.225 111.009 133.129 111.035 134.045C111.061 134.96 111.107 136.601 111.137 137.691C111.167 138.781 111.247 139.798 111.315 139.952C111.387 140.114 111.359 140.327 111.248 140.459C111.143 140.585 111.101 140.824 111.154 140.991C111.299 141.445 111.279 145.724 111.127 146.732C110.848 148.584 109.296 150.332 107.312 151.031C105.983 151.498 105.571 151.537 104.476 151.298C103.67 151.122 103.39 150.965 102.816 150.373C102.436 149.98 101.985 149.338 101.813 148.946C101.642 148.553 101.432 148.109 101.348 147.957C101.263 147.806 101.192 147.521 101.19 147.323C101.188 147.126 101.045 146.653 100.871 146.273C100.698 145.893 100.556 145.385 100.556 145.144C100.556 144.903 100.439 144.393 100.296 144.012C100.154 143.63 100.048 143.14 100.061 142.922C100.073 142.704 100.017 142.383 99.9353 142.209C99.6534 141.606 99.5496 141.257 99.5792 141.009C99.5955 140.872 99.2835 140.278 98.8858 139.689C98.1782 138.64 98.1004 138.434 98.154 137.751C98.1699 137.546 98.068 137.386 97.8924 137.34C97.7341 137.299 97.4381 136.933 97.2345 136.527C96.8895 135.839 96.5789 135.493 96.785 136.026C96.8354 136.157 96.8072 136.264 96.7223 136.264C96.6373 136.264 96.5678 136.124 96.5678 135.953C96.5678 135.615 96.1313 135.312 95.8101 135.427C95.7005 135.466 95.6107 135.421 95.6107 135.326C95.6107 135.232 95.6978 135.154 95.8043 135.154C96.101 135.154 95.5547 134.667 95.1955 134.611C95.0155 134.583 94.9119 134.459 94.9398 134.304C94.9698 134.138 94.8766 134.045 94.6801 134.045C94.5116 134.045 94.2878 133.942 94.1829 133.816C94.0781 133.691 93.8898 133.627 93.7646 133.675C93.6257 133.728 93.537 133.662 93.537 133.507C93.537 133.358 93.4046 133.252 93.218 133.252C93.0425 133.252 92.8989 133.186 92.8989 133.106C92.8989 133.025 92.4504 132.954 91.902 132.948C91.3537 132.943 90.3308 132.925 89.6289 132.909C88.7015 132.888 88.2138 132.952 87.8444 133.144C87.5649 133.289 87.2212 133.365 87.0808 133.311C86.9398 133.257 86.6876 133.338 86.5172 133.491C86.3124 133.675 85.9668 133.763 85.4863 133.754C85.089 133.746 84.7637 133.808 84.7637 133.892C84.7637 133.976 84.6648 134.045 84.5439 134.045C84.4231 134.045 84.2378 134.148 84.1322 134.275C83.9668 134.473 83.5839 134.718 81.87 135.723C81.3708 136.016 80.9354 136.462 80.9354 136.679C80.9354 136.794 80.8081 136.955 80.6525 137.037C80.3633 137.191 79.3102 139.039 79.1054 139.752C79.0429 139.97 78.8507 140.446 78.6784 140.811C78.3999 141.4 78.3851 141.582 78.5438 142.452C78.6419 142.99 78.6824 143.47 78.6339 143.518C78.5852 143.567 78.6321 143.71 78.7381 143.837C78.844 143.964 78.9469 144.565 78.9665 145.174C78.9863 145.783 79.0423 146.47 79.0909 146.702C79.2298 147.363 79.2573 149.329 79.1305 149.532C79.0675 149.634 79.0966 149.766 79.1952 149.827C79.3031 149.893 79.3397 150.166 79.2871 150.511C79.2367 150.842 79.2991 151.355 79.4337 151.72C79.5624 152.069 79.7124 152.838 79.7668 153.429C79.8213 154.021 79.9239 154.54 79.9949 154.583C80.0659 154.627 80.082 154.771 80.0308 154.904C79.9796 155.037 80.0448 155.409 80.1761 155.731C80.3072 156.053 80.5286 156.709 80.668 157.189C81.4678 159.939 81.8701 160.943 82.4109 161.539C82.5645 161.708 82.69 162.007 82.69 162.204C82.69 162.549 83.3442 163.925 83.6554 164.235C83.7387 164.318 83.8066 164.55 83.8066 164.75C83.8066 164.951 83.8784 165.115 83.9661 165.115C84.0539 165.115 84.1256 165.214 84.1256 165.336C84.1256 165.457 84.2178 165.592 84.3303 165.635C84.4429 165.678 84.6763 166.005 84.8487 166.363C85.0213 166.721 85.2354 167.014 85.3246 167.016C85.4137 167.016 85.7367 167.383 86.0424 167.83C86.348 168.277 86.7505 168.865 86.9368 169.138C87.3542 169.748 89.1464 171.456 89.3695 171.456C89.4593 171.456 89.709 171.616 89.9243 171.813C90.1397 172.009 90.556 172.282 90.8497 172.42C92.2944 173.098 92.5343 173.196 92.9787 173.294C93.2419 173.352 93.7085 173.523 94.0155 173.675C95.1913 174.255 95.429 174.344 95.9059 174.382C96.1763 174.403 96.4896 174.492 96.6022 174.581C96.7148 174.669 96.9147 174.746 97.0463 174.752C97.1779 174.758 97.7163 174.876 98.2427 175.015C98.7691 175.153 99.3792 175.304 99.5985 175.349C99.8179 175.394 100.117 175.467 100.263 175.511C100.409 175.555 100.575 175.516 100.632 175.425C100.7 175.315 100.832 175.311 101.023 175.413C101.182 175.497 101.357 175.521 101.412 175.466C101.467 175.411 101.513 175.476 101.513 175.609C101.513 175.763 101.711 175.885 102.053 175.94C102.35 175.988 102.998 176.211 103.493 176.436C103.988 176.661 104.458 176.846 104.537 176.846C104.796 176.846 106.681 178.161 107.464 178.889C108.2 179.572 109.01 180.979 109.01 181.574C109.01 181.729 109.082 181.927 109.171 182.015C109.259 182.102 109.362 182.491 109.4 182.879C109.501 183.909 109.596 184.378 109.773 184.712C109.86 184.876 109.931 185.188 109.93 185.406C109.93 185.624 110.018 186.123 110.125 186.515C110.347 187.328 110.428 189.47 110.271 190.37C110.213 190.703 110.231 191.264 110.31 191.617C110.39 191.969 110.494 193.944 110.541 196.005C110.643 200.416 110.647 200.477 110.835 200.773C110.93 200.922 110.915 201.023 110.793 201.064C110.582 201.133 110.561 202.067 110.745 203.175C110.811 203.576 110.816 204.039 110.755 204.205C110.694 204.372 110.716 204.597 110.804 204.706C110.912 204.841 110.898 204.982 110.759 205.148C110.552 205.396 110.476 209.165 110.671 209.48C110.722 209.56 110.693 209.993 110.607 210.441C110.494 211.032 110.509 211.504 110.66 212.162C110.8 212.773 110.822 213.274 110.727 213.702C110.65 214.051 110.629 214.586 110.682 214.891C110.735 215.196 110.809 216.48 110.847 217.744C110.885 219.008 110.936 220.685 110.96 221.469C110.984 222.254 111.064 222.989 111.138 223.102C111.211 223.215 111.247 223.646 111.217 224.059C111.166 224.772 111.208 224.862 112.028 225.799C113.508 227.49 114.313 227.831 116.746 227.797C119.885 227.752 120.73 227.684 121 227.455C121.207 227.28 121.34 227.27 121.604 227.41C122.029 227.636 122.589 227.566 122.843 227.255C123.014 227.046 123.038 227.048 123.042 227.276C123.045 227.418 123.168 227.632 123.316 227.751C123.552 227.941 123.572 227.934 123.482 227.693C123.406 227.492 123.451 227.429 123.651 227.46C123.801 227.483 124.014 227.558 124.124 227.626C124.251 227.705 124.323 227.661 124.323 227.502C124.323 227.367 124.395 227.255 124.483 227.255C124.571 227.255 124.642 227.347 124.642 227.459C124.642 227.571 124.786 227.663 124.961 227.663C125.137 227.663 125.28 227.607 125.28 227.538C125.28 227.327 125.64 227.401 125.946 227.676C126.106 227.82 126.237 227.874 126.237 227.795C126.237 227.716 126.578 227.671 126.995 227.695C127.412 227.72 128.363 227.761 129.109 227.787C129.854 227.813 130.536 227.86 130.624 227.891C131.03 228.034 132.16 227.498 132.455 227.024C132.624 226.751 132.91 226.36 133.089 226.154C133.269 225.948 133.416 225.684 133.416 225.567C133.416 225.449 133.523 225.353 133.655 225.353C133.786 225.353 133.894 225.225 133.894 225.068C133.894 224.713 134.251 223.929 134.413 223.928C134.478 223.927 134.532 223.819 134.532 223.689C134.532 223.558 134.608 223.451 134.7 223.451C134.878 223.451 135.268 222.634 135.388 222.007C135.428 221.798 135.511 221.503 135.572 221.35C135.639 221.184 135.61 221.073 135.501 221.073C135.37 221.073 135.365 220.986 135.484 220.766C135.574 220.598 135.649 220.265 135.649 220.026C135.649 219.787 135.762 219.467 135.901 219.315C136.04 219.163 136.232 218.532 136.329 217.913C136.425 217.294 136.55 216.861 136.606 216.952C136.662 217.042 136.7 216.254 136.691 215.199C136.681 214.145 136.727 213.25 136.792 213.21C136.857 213.17 136.873 213.039 136.827 212.92C136.781 212.801 136.824 212.654 136.922 212.594C137.046 212.518 137.049 212.424 136.935 212.287C136.842 212.175 136.759 211.159 136.746 209.963C136.732 208.793 136.654 207.75 136.57 207.645C136.487 207.54 136.462 207.385 136.515 207.3C136.568 207.215 136.537 207.1 136.446 207.044C136.356 206.988 136.315 206.889 136.356 206.824C136.396 206.759 136.468 205.997 136.514 205.131C136.561 204.265 136.673 203.307 136.762 203.002C136.875 202.619 136.874 202.43 136.759 202.392C136.646 202.354 136.65 202.268 136.771 202.124C136.904 201.964 136.882 201.77 136.683 201.354C136.537 201.048 136.463 200.725 136.519 200.635C136.681 200.376 136.733 198.72 136.582 198.628C136.507 198.582 136.532 198.388 136.638 198.197C136.859 197.798 136.817 197.272 136.55 197.094C136.42 197.008 136.443 196.927 136.628 196.819C136.829 196.7 136.876 196.476 136.833 195.831C136.767 194.83 136.701 194.409 136.579 194.201C136.529 194.115 136.515 193.902 136.549 193.728C136.583 193.554 136.607 193.304 136.602 193.173C136.571 192.381 136.706 187.233 136.762 187.07C136.792 186.983 136.756 186.773 136.682 186.604C136.595 186.403 136.614 186.275 136.737 186.234C136.84 186.2 136.925 185.968 136.925 185.719C136.925 185.47 136.998 185.221 137.087 185.166C137.176 185.112 137.203 184.992 137.146 184.901C137.089 184.81 137.032 183.941 137.018 182.97C137.005 181.999 136.938 181.116 136.87 181.007C136.802 180.898 136.805 180.809 136.876 180.809C136.947 180.808 137.006 179.935 137.007 178.867C137.01 177.333 136.96 176.887 136.773 176.743C136.582 176.596 136.535 176.09 136.531 174.127C136.528 172.789 136.465 171.6 136.391 171.486C136.307 171.356 136.351 171.173 136.508 171C136.703 170.786 136.718 170.679 136.572 170.534C136.426 170.389 136.449 170.346 136.673 170.346C136.92 170.346 136.932 170.308 136.755 170.096C136.59 169.898 136.588 169.821 136.746 169.724C136.967 169.588 136.934 168.429 136.704 168.263C136.627 168.207 136.677 168.001 136.815 167.804C136.975 167.577 137.034 167.28 136.975 166.987C136.908 166.653 136.961 166.471 137.17 166.319C137.432 166.129 137.438 166.043 137.246 165.36C137.067 164.724 137.069 164.588 137.259 164.468C137.382 164.391 137.411 164.325 137.324 164.322C137.236 164.32 137.272 164.248 137.403 164.164C137.608 164.033 137.602 164.01 137.364 164.008C137.015 164.005 137.006 163.789 137.342 163.455C137.579 163.219 137.579 163.176 137.335 162.908C137.09 162.639 137.09 162.596 137.328 162.36C137.469 162.219 137.652 162.103 137.734 162.103C137.955 162.103 137.913 161.666 137.683 161.573C137.533 161.513 137.543 161.452 137.722 161.328C138.034 161.113 138.036 160.627 137.726 160.489C137.524 160.4 137.531 160.38 137.762 160.37C137.916 160.364 138.041 160.261 138.041 160.141C138.041 160.021 138.145 159.837 138.271 159.733C138.398 159.629 138.465 159.451 138.422 159.338C138.378 159.225 138.454 159.089 138.591 159.037C138.727 158.985 138.839 158.809 138.839 158.645C138.839 158.482 139.123 157.911 139.471 157.377C139.818 156.843 140.221 156.172 140.366 155.886C140.511 155.6 140.767 155.223 140.935 155.049C142.462 153.464 143.203 152.653 143.413 152.335C143.549 152.127 143.737 151.958 143.829 151.958C143.921 151.958 144.442 151.548 144.988 151.046C146.34 149.804 146.267 149.849 147.612 149.429C148.27 149.223 148.916 148.965 149.048 148.854C149.468 148.501 152.442 147.362 153.036 147.327C153.167 147.319 153.311 147.267 153.355 147.211C153.454 147.085 156.011 146.251 156.299 146.251C156.414 146.251 156.714 146.144 156.966 146.014C157.217 145.884 157.53 145.777 157.662 145.775C157.793 145.774 158.085 145.678 158.309 145.562C158.534 145.445 159.036 145.3 159.426 145.239C160.117 145.131 161.568 144.748 162.208 144.505C162.383 144.438 162.85 144.297 163.245 144.192C163.64 144.087 164.07 143.91 164.202 143.8C164.333 143.689 164.656 143.55 164.92 143.491C165.486 143.365 165.933 143.166 168.994 141.674C170.27 141.053 171.432 140.544 171.576 140.544C171.719 140.544 171.883 140.401 171.939 140.226C172.032 139.933 173.195 139.276 173.62 139.276C173.721 139.276 173.999 139.08 174.237 138.84C174.804 138.268 176.35 136.939 177.404 136.116C177.865 135.756 178.404 135.215 178.6 134.913C178.796 134.612 179.047 134.365 179.156 134.364C179.266 134.363 179.356 134.284 179.356 134.188C179.356 134.093 179.517 133.79 179.715 133.515C179.912 133.24 180.207 132.766 180.37 132.46C180.533 132.155 180.764 131.794 180.884 131.66C181.214 131.287 181.84 130.062 181.974 129.527C182.039 129.265 182.189 128.944 182.307 128.814C182.425 128.683 182.698 128.056 182.913 127.42C183.128 126.784 183.349 126.219 183.404 126.165C183.458 126.11 183.505 125.917 183.508 125.736C183.511 125.554 183.619 125.267 183.747 125.098C183.876 124.928 183.982 124.648 183.982 124.475C183.982 124.302 184.052 123.941 184.138 123.673C184.223 123.405 184.433 122.758 184.604 122.235C184.774 121.712 184.963 120.82 185.024 120.253C185.084 119.687 185.206 119.134 185.295 119.025C185.384 118.916 185.403 118.827 185.338 118.827C185.272 118.827 185.302 118.727 185.403 118.606C185.505 118.484 185.577 118.324 185.564 118.249C185.471 117.737 185.614 116.593 185.793 116.416C185.977 116.232 186.328 114.458 186.447 113.106C186.466 112.881 186.524 112.629 186.575 112.547C186.626 112.465 186.675 111.794 186.684 111.055C186.693 110.316 186.732 109.07 186.771 108.285C187.041 102.858 187.053 102.029 186.909 98.8531C186.855 97.6761 186.825 95.9238 186.842 94.9592C186.875 93.0319 186.49 89.8134 186.121 88.9354C185.991 88.6277 185.9 88.29 185.918 88.1851C185.949 88.0066 185.728 87.4012 185.4 86.7681C185.322 86.6167 185.258 86.3526 185.258 86.1814C185.258 86.0102 185.167 85.8131 185.057 85.7434C184.947 85.6736 184.722 85.2242 184.557 84.7447C184.393 84.2652 184.172 83.8015 184.067 83.7143C183.961 83.6271 183.69 83.2705 183.465 82.9217C183.24 82.573 182.762 81.9695 182.402 81.5806C182.043 81.1918 181.748 80.8173 181.748 80.7484C181.748 80.6796 181.605 80.6232 181.429 80.6232C181.254 80.6232 181.11 80.5518 181.11 80.4646C181.11 80.3774 180.985 80.3056 180.831 80.3052C180.678 80.3045 180.371 80.21 180.149 80.0951C178.869 79.4312 176.043 79.2808 174.48 79.7936C172.439 80.4635 171.358 81.2522 170.206 82.9109C169.094 84.5131 168.702 85.2895 168.603 86.0886C168.566 86.3816 168.433 86.8589 168.307 87.1493C167.962 87.946 167.53 89.28 167.485 89.6906C167.462 89.8911 167.362 90.3048 167.262 90.61C167.162 90.9151 167.04 91.4858 166.992 91.8782C166.944 92.2705 166.839 93.0909 166.758 93.7012C166.678 94.3115 166.576 95.5242 166.532 96.396C166.488 97.2679 166.374 98.2964 166.277 98.6816C166.181 99.0666 166.138 99.4748 166.182 99.5885C166.226 99.7023 166.197 99.9935 166.118 100.236C166.038 100.478 165.932 101.496 165.883 102.499C165.771 104.77 165.69 105.577 165.493 106.383C165.317 107.099 165.133 108.651 165.069 109.95C165.024 110.868 164.52 112.922 164.101 113.892C163.965 114.209 163.819 114.681 163.777 114.943C163.571 116.218 161.713 119.009 159.935 120.714C159.299 121.324 158.778 121.885 158.778 121.96C158.778 122.036 158.505 122.25 158.172 122.436C157.838 122.622 157.435 122.918 157.276 123.092C157.115 123.269 156.676 123.456 156.286 123.514C155.9 123.572 155.546 123.68 155.5 123.755C155.453 123.83 155.149 124.012 154.824 124.16C154.498 124.308 154.132 124.506 154.01 124.6C153.485 125.004 151.768 125.211 148.809 125.229C145.561 125.248 144.074 125.074 142.971 124.544C142.596 124.364 142.205 124.217 142.103 124.217C141.764 124.217 139.881 122.712 139.668 122.271C139.554 122.033 139.392 121.839 139.309 121.839C139.226 121.839 139.158 121.732 139.158 121.601C139.158 121.47 139.086 121.363 138.999 121.363C138.911 121.363 138.839 121.272 138.839 121.161C138.839 121.051 138.634 120.712 138.383 120.409C137.888 119.81 137.639 119.22 137.701 118.793C137.723 118.644 137.655 118.364 137.551 118.171C137.278 117.663 136.963 116.222 136.848 114.955C136.794 114.351 136.72 113.809 136.683 113.75C136.625 113.656 136.42 107.676 136.412 105.828C136.398 102.703 136.798 96.1619 137.056 95.2864C137.133 95.0248 137.2 94.0112 137.203 93.0341C137.211 91.0099 137.36 89.1305 137.557 88.5492C137.632 88.3312 137.815 87.6179 137.964 86.964C138.114 86.3101 138.328 85.5968 138.439 85.3788C138.55 85.1608 138.712 84.8042 138.798 84.5862C139.124 83.7674 139.396 83.2243 139.711 82.7632C139.889 82.5016 140.188 81.9666 140.373 81.5743C140.559 81.1819 140.936 80.5837 141.211 80.2446C141.486 79.9057 141.71 79.5758 141.71 79.5116C141.71 79.2713 143.099 77.9583 145.052 76.352C145.892 75.6616 148.414 74.2823 148.838 74.2823C149.759 74.2823 154.421 69.9169 155.257 68.2712C155.416 67.959 155.806 67.226 156.125 66.6424C156.444 66.0587 156.705 65.3989 156.705 65.176C156.705 64.9533 156.783 64.771 156.877 64.771C156.973 64.771 157.019 64.6818 156.98 64.5729C156.942 64.464 156.973 64.2048 157.051 63.9971C157.428 62.9851 157.44 58.2265 157.067 57.7596C156.978 57.6488 156.82 57.273 156.714 56.9242C156.472 56.1224 156.22 55.5697 155.943 55.2357C155.824 55.0916 155.749 54.8585 155.777 54.7176C155.805 54.5727 155.66 54.3765 155.442 54.2661C155.23 54.1587 154.943 53.84 154.804 53.558C154.665 53.2759 154.434 53.0062 154.29 52.9585C154.146 52.9108 153.848 52.7136 153.627 52.5202C152.633 51.6488 152.155 51.2967 151.965 51.2967C151.852 51.2967 151.76 51.2254 151.76 51.1382C151.76 51.051 151.663 50.9797 151.545 50.9797C151.427 50.9797 151.198 50.8345 151.037 50.6571C150.875 50.4795 150.646 50.3714 150.527 50.4166C150.409 50.4618 150.271 50.393 150.221 50.2636C150.171 50.1343 149.959 50.0285 149.749 50.0285C149.539 50.0285 149.367 49.9653 149.367 49.8879C149.367 49.7397 148.8 49.5994 147.612 49.4537C146.574 49.3265 142.395 49.3469 142.178 49.4804C142.077 49.5427 141.517 49.6153 140.935 49.6419C139.554 49.705 138.852 49.8204 138.604 50.0251C138.331 50.2506 137.976 49.8185 138.087 49.3953C138.134 49.2204 138.106 49.0774 138.027 49.0774C137.947 49.0774 137.882 49.163 137.882 49.2676C137.882 49.4083 137.835 49.4114 137.703 49.28C137.605 49.1822 137.435 49.1364 137.325 49.1781C137.216 49.2198 137.088 49.1072 137.041 48.9279C136.988 48.7298 136.824 48.6019 136.621 48.6019C136.437 48.6019 136.287 48.5305 136.287 48.4433C136.287 48.3561 136.377 48.2837 136.486 48.2824C136.626 48.2807 136.633 48.2453 136.508 48.1635C136.41 48.0995 136.276 47.8687 136.211 47.6507C136.145 47.4328 135.916 47.0682 135.702 46.8405C135.414 46.5349 135.339 46.3226 135.413 46.0292C135.491 45.718 135.419 45.5582 135.081 45.2938C134.77 45.0505 134.722 44.9559 134.909 44.9559C135.298 44.9559 135.245 44.2143 134.841 43.9992C134.587 43.8641 134.553 43.775 134.691 43.6097C134.793 43.487 134.836 43.1021 134.791 42.7093C134.747 42.332 134.707 41.8228 134.702 41.5779C134.696 41.333 134.629 41.1709 134.553 41.2175C134.476 41.2653 134.475 40.9843 134.552 40.5735C134.699 39.7939 134.585 38.6659 134.344 38.5182C134.26 38.4663 134.274 38.3367 134.379 38.2116C134.48 38.0906 134.503 37.9042 134.431 37.7898C134.36 37.6769 134.28 37.4063 134.253 37.1883C134.109 36.0392 134.041 35.2647 134.001 34.3315C133.977 33.7627 133.897 33.199 133.822 33.0788C133.639 32.7848 133.607 31.7642 133.774 31.5364C133.984 31.2492 133.737 30.5556 133.305 30.2177C133.049 30.0175 132.942 29.8104 133 29.6256C133.203 28.9795 132.238 26.8935 131.603 26.6059C131.341 26.4875 131.134 26.2056 131.012 25.8028C130.893 25.4075 130.735 25.1891 130.576 25.2011C130.434 25.2119 130.285 25.0492 130.229 24.8237C130.166 24.5697 130.018 24.4274 129.819 24.4274C129.583 24.4274 129.495 24.3002 129.457 23.9025C129.426 23.5809 129.333 23.4043 129.217 23.4464C129.114 23.4842 128.885 23.3916 128.71 23.2405C128.352 22.9319 125.712 22.2543 125.372 22.3839C125.252 22.4298 125.106 22.3913 125.048 22.2981C124.99 22.205 124.893 22.1386 124.832 22.1505C124.772 22.1624 124.291 22.2263 123.765 22.2924ZM129.986 24.0311C130.04 24.1182 130.116 24.1896 130.155 24.1896C130.194 24.1896 130.225 24.1182 130.225 24.0311C130.225 23.9439 130.149 23.8725 130.056 23.8725C129.964 23.8725 129.932 23.9439 129.986 24.0311ZM138.201 49.7115C138.201 49.7987 138.277 49.87 138.37 49.87C138.463 49.87 138.495 49.7987 138.44 49.7115C138.386 49.6243 138.31 49.553 138.271 49.553C138.233 49.553 138.201 49.6243 138.201 49.7115ZM137.621 49.9493C137.671 50.0801 137.651 50.1871 137.575 50.1871C137.499 50.1871 137.396 50.0801 137.346 49.9493C137.295 49.8185 137.316 49.7115 137.391 49.7115C137.467 49.7115 137.57 49.8185 137.621 49.9493ZM94.0155 133.252C94.0155 133.339 94.0916 133.411 94.1845 133.411C94.2773 133.411 94.309 133.339 94.2548 133.252C94.2006 133.165 94.1246 133.094 94.0859 133.094C94.0471 133.094 94.0155 133.165 94.0155 133.252ZM95.6107 134.52C95.6107 134.608 95.6825 134.679 95.7702 134.679C95.8579 134.679 95.9297 134.608 95.9297 134.52C95.9297 134.433 95.8579 134.362 95.7702 134.362C95.6825 134.362 95.6107 134.433 95.6107 134.52ZM96.488 136.423C96.5422 136.51 96.5148 136.581 96.4271 136.581C96.3393 136.581 96.2232 136.51 96.169 136.423C96.1147 136.335 96.1422 136.264 96.2299 136.264C96.3177 136.264 96.4338 136.335 96.488 136.423ZM97.8439 136.898C97.8439 136.985 97.92 137.057 98.0128 137.057C98.1057 137.057 98.1374 136.985 98.0832 136.898C98.0289 136.811 97.953 136.74 97.9142 136.74C97.8755 136.74 97.8439 136.811 97.8439 136.898ZM137.403 162.588C137.403 162.68 137.475 162.712 137.563 162.658C137.651 162.604 137.722 162.529 137.722 162.49C137.722 162.452 137.651 162.42 137.563 162.42C137.475 162.42 137.403 162.496 137.403 162.588Z" fill="#132B12"/>
<path d="M99.3353 184.347C99.4998 183.712 100.316 182.683 100.718 182.605C101.374 182.477 102.149 182.522 102.578 182.713C103.422 183.088 104.111 183.545 104.111 183.728C104.111 183.909 104.366 184.262 104.953 184.892C105.153 185.107 105.257 185.388 105.259 185.717C105.26 185.992 105.353 186.481 105.466 186.806C105.598 187.185 105.651 187.697 105.616 188.244C105.585 188.711 105.609 189.143 105.668 189.204C105.728 189.265 105.809 189.67 105.849 190.103C105.888 190.537 105.973 190.961 106.037 191.047C106.101 191.132 106.14 191.414 106.123 191.673C106.105 191.932 106.147 192.212 106.215 192.295C106.288 192.384 106.29 192.578 106.221 192.766C106.139 192.986 106.156 193.127 106.275 193.221C106.408 193.325 106.419 193.54 106.321 194.14C106.251 194.57 106.24 194.994 106.296 195.083C106.439 195.307 106.429 198.14 106.285 198.14C106.22 198.14 106.242 198.231 106.334 198.341C106.426 198.452 106.47 198.707 106.431 198.909C106.384 199.155 106.434 199.329 106.584 199.44C106.788 199.592 106.784 199.623 106.537 199.824C106.368 199.962 106.324 200.067 106.42 200.108C106.524 200.153 106.538 200.33 106.461 200.668C106.39 200.987 106.402 201.225 106.496 201.339C106.577 201.436 106.604 201.553 106.557 201.6C106.51 201.647 106.538 201.766 106.62 201.864C106.724 201.989 106.726 202.16 106.628 202.441C106.526 202.734 106.531 202.855 106.648 202.898C106.766 202.941 106.762 203.031 106.629 203.255C106.478 203.509 106.483 203.578 106.664 203.71C106.828 203.832 106.849 203.96 106.754 204.286C106.688 204.517 106.672 204.769 106.72 204.846C106.767 204.924 106.806 205.355 106.806 205.806C106.806 206.37 106.863 206.647 106.989 206.695C107.089 206.734 107.138 206.851 107.098 206.956C107.058 207.062 107.101 207.211 107.193 207.288C107.317 207.39 107.481 207.32 107.8 207.028C108.041 206.808 108.189 206.626 108.129 206.624C108.068 206.622 108.125 206.558 108.255 206.483C108.506 206.337 108.883 205.589 109.245 204.522C109.367 204.161 109.663 203.472 109.903 202.991C110.143 202.509 110.379 201.948 110.428 201.744C110.477 201.54 110.577 201.374 110.65 201.374C110.723 201.374 110.782 201.261 110.782 201.124C110.782 200.987 110.934 200.59 111.119 200.241C111.304 199.893 111.456 199.517 111.456 199.406C111.456 199.295 111.607 198.981 111.793 198.708C111.978 198.435 112.13 198.157 112.13 198.089C112.13 198.021 112.327 197.656 112.568 197.277C113.256 196.195 113.322 196.085 113.629 195.513C114.018 194.79 115.427 193.477 115.952 193.349C116.568 193.198 117.652 193.176 117.736 193.312C117.776 193.376 117.858 193.398 117.918 193.361C117.978 193.324 118.322 193.584 118.683 193.939C119.044 194.293 119.447 194.624 119.578 194.674C119.853 194.779 120.061 195.26 120.135 195.963C120.164 196.234 120.25 196.652 120.326 196.892C120.403 197.132 120.417 197.358 120.358 197.394C120.253 197.46 120.123 197.946 119.997 198.746C119.962 198.969 119.897 199.242 119.852 199.353C119.808 199.464 119.749 199.676 119.723 199.824C119.663 200.158 119.262 200.972 119.04 201.209C118.949 201.307 118.778 201.611 118.661 201.885C118.23 202.889 118.112 203.059 117.819 203.101C117.637 203.127 117.52 203.239 117.52 203.388C117.52 203.522 117.427 203.709 117.312 203.804C117.197 203.899 117.134 204.056 117.172 204.154C117.209 204.251 117.162 204.378 117.066 204.435C116.803 204.594 116.48 205.259 116.239 206.138C116.085 206.696 115.945 206.947 115.76 206.996C115.614 207.034 115.499 207.18 115.499 207.327C115.499 207.471 115.347 207.788 115.162 208.031C114.977 208.274 114.825 208.543 114.825 208.628C114.825 208.714 114.769 208.784 114.701 208.784C114.632 208.784 114.508 208.99 114.425 209.243C114.342 209.495 114.121 209.865 113.935 210.066C113.58 210.449 113.59 210.698 113.949 210.401C114.064 210.306 114.19 210.26 114.23 210.3C114.269 210.339 114.116 210.504 113.889 210.665C113.409 211.007 113.374 211.151 113.747 211.248C113.895 211.287 114.016 211.419 114.016 211.541C114.016 211.664 114.077 211.727 114.152 211.681C114.242 211.625 114.242 211.513 114.152 211.345C113.961 210.988 113.984 210.805 114.219 210.805C114.33 210.805 114.421 210.896 114.421 211.007C114.421 211.118 114.488 211.209 114.57 211.209C114.662 211.209 114.69 211.066 114.643 210.839C114.601 210.635 114.599 210.544 114.639 210.637C114.68 210.729 114.814 210.806 114.937 210.807C115.115 210.809 115.124 210.834 114.979 210.925C114.879 210.989 114.849 211.073 114.913 211.113C114.978 211.153 115.15 211.097 115.298 210.99C115.527 210.822 115.536 210.776 115.363 210.667C115.191 210.558 115.196 210.539 115.394 210.538C115.551 210.536 115.598 210.466 115.542 210.318C115.474 210.142 115.517 210.119 115.768 210.199C116.034 210.283 116.067 210.258 116.004 210.017C115.964 209.863 115.98 209.749 116.039 209.766C116.099 209.782 116.684 209.248 117.339 208.58C118.599 207.297 119.155 206.833 119.984 206.372C120.612 206.023 120.767 206.021 121.417 206.353C121.702 206.498 121.967 206.584 122.007 206.544C122.134 206.417 123.046 206.919 123.046 207.115C123.046 207.218 123.16 207.302 123.3 207.302C123.458 207.302 123.639 207.48 123.778 207.774C123.901 208.033 124.065 208.245 124.142 208.245C124.218 208.245 124.255 208.321 124.223 208.414C124.192 208.506 124.223 208.764 124.293 208.986C124.363 209.209 124.413 209.566 124.404 209.781C124.386 210.181 123.734 211.478 123.551 211.479C123.496 211.479 123.45 211.593 123.45 211.732C123.45 211.871 123.359 212.06 123.248 212.152C123.137 212.245 123.044 212.419 123.042 212.539C123.037 212.792 122.737 213.227 122.559 213.238C122.493 213.243 122.285 213.561 122.096 213.946C121.908 214.33 121.696 214.634 121.625 214.621C121.41 214.581 121.024 215.007 121.024 215.285C121.024 215.429 120.915 215.575 120.781 215.61C120.519 215.678 119.893 216.707 119.968 216.946C119.993 217.026 119.801 217.298 119.542 217.552C119.282 217.806 118.867 218.332 118.618 218.721C118.37 219.11 118.105 219.428 118.031 219.428C117.957 219.428 117.929 219.513 117.969 219.618C118.051 219.833 117.6 220.302 117.418 220.189C117.353 220.149 117.199 220.232 117.078 220.374C116.941 220.533 116.909 220.663 116.993 220.715C117.166 220.822 116.888 221.18 116.633 221.18C116.343 221.18 116.123 221.698 116.315 221.929C116.442 222.082 116.434 222.123 116.277 222.123C116.169 222.123 115.97 222.244 115.836 222.392C115.628 222.622 115.623 222.662 115.802 222.662C115.946 222.662 115.99 222.747 115.942 222.931C115.855 223.263 115.669 223.283 115.608 222.967C115.575 222.795 115.475 222.875 115.23 223.27C115.047 223.565 114.84 223.898 114.77 224.009C114.659 224.184 114.673 224.186 114.872 224.023C115.081 223.852 115.099 223.877 115.071 224.293C115.026 224.962 114.384 225.922 113.553 226.562C113.154 226.871 112.796 227.202 112.759 227.298C112.688 227.484 112.186 227.621 111.186 227.728C110.853 227.764 110.337 227.824 110.041 227.862C109.182 227.973 108.335 227.991 108.278 227.9C108.2 227.773 107.513 227.795 107.253 227.932C107.124 227.999 106.993 228.001 106.953 227.935C106.913 227.87 106.734 227.846 106.556 227.88C106.377 227.914 106.189 227.872 106.136 227.788C106.065 227.673 105.993 227.674 105.851 227.792C105.721 227.9 105.608 227.906 105.492 227.813C105.39 227.729 105.069 227.715 104.674 227.776C104.053 227.872 103.169 227.788 102.873 227.606C102.797 227.559 102.532 227.578 102.284 227.649C101.962 227.741 101.806 227.733 101.736 227.62C101.663 227.501 101.586 227.506 101.426 227.638C101.309 227.735 101.213 227.757 101.213 227.686C101.213 227.541 100.818 227.542 100.582 227.688C100.497 227.74 100.408 227.722 100.383 227.648C100.353 227.559 100.186 227.555 99.9014 227.637C99.6615 227.705 99.237 227.731 98.958 227.693C98.679 227.654 98.2991 227.615 98.1138 227.606C97.9285 227.596 97.7342 227.527 97.6821 227.452C97.6211 227.363 97.192 227.447 96.4799 227.687C95.8384 227.903 95.3392 228.006 95.2937 227.932C95.1978 227.778 93.953 227.78 93.857 227.935C93.8194 227.996 93.6855 227.99 93.5592 227.923C93.4329 227.855 92.9506 227.722 92.4872 227.628C91.9765 227.524 91.6449 227.388 91.6449 227.282C91.6449 227.186 91.5843 227.108 91.5102 227.108C91.4361 227.108 91.3754 227.013 91.3754 226.897C91.3754 226.751 91.2964 226.711 91.1216 226.766C90.8273 226.859 90.3897 226.226 90.2287 225.474C90.1752 225.224 90.0861 224.959 90.0307 224.885C89.932 224.753 89.7649 224.199 89.6664 223.678C89.6391 223.533 89.5693 223.381 89.5113 223.341C89.4534 223.301 89.3275 223.056 89.2317 222.796C88.8795 221.844 87.9349 219.973 87.8041 219.97C87.7299 219.968 87.5535 219.678 87.412 219.327C87.2705 218.975 87.0507 218.586 86.9238 218.462C86.7967 218.338 86.4879 217.81 86.2377 217.289C85.9874 216.767 85.7181 216.338 85.6394 216.335C85.4716 216.328 84.9066 215.598 84.9066 215.387C84.9066 215.308 84.8156 215.208 84.7044 215.165C84.5932 215.123 84.5023 215.003 84.5023 214.9C84.5023 214.797 84.4529 214.712 84.3926 214.712C84.3322 214.712 84.0783 214.44 83.8284 214.106C83.5786 213.773 83.3322 213.5 83.2813 213.5C83.2302 213.5 82.9534 213.284 82.6662 213.02C82.3789 212.756 81.9316 212.439 81.6721 212.317C81.4127 212.194 81.0829 211.986 80.9391 211.854C80.7955 211.722 80.5959 211.614 80.4955 211.614C80.3952 211.614 80.2398 211.552 80.1503 211.476C79.4161 210.856 79.1602 210.671 79.0405 210.671C78.9644 210.671 78.7306 210.475 78.5211 210.236C78.164 209.829 78.1458 209.752 78.2307 208.99C78.3439 207.974 78.8719 206.796 79.4043 206.372C80.0455 205.861 82.4146 205.36 82.62 205.692C82.6677 205.769 82.9574 205.842 83.264 205.855C83.5724 205.867 83.8508 205.953 83.8872 206.048C83.9234 206.142 84.0311 206.19 84.1265 206.154C84.2219 206.118 84.5124 206.224 84.7718 206.389C85.0312 206.555 85.4548 206.754 85.713 206.831C85.9793 206.911 86.2518 207.112 86.3425 207.293C86.4304 207.469 86.6436 207.63 86.8162 207.65C87.3188 207.707 88.141 208.099 88.1411 208.281C88.1414 208.518 89.46 209.862 89.6923 209.862C89.7989 209.862 89.9802 210.044 90.0951 210.266C90.2101 210.488 90.3936 210.67 90.5029 210.67C90.6122 210.67 90.7086 210.776 90.7172 210.906C90.732 211.131 90.7358 211.131 90.7944 210.906C90.8284 210.776 90.9029 210.67 90.9601 210.67C91.1331 210.67 91.5173 211.157 91.4207 211.254C91.3711 211.304 91.3976 211.344 91.4797 211.344C91.6927 211.344 91.8099 211.109 91.6471 211.009C91.4416 210.882 91.4823 210.67 91.7123 210.67C91.8235 210.67 91.9195 210.564 91.9257 210.435C91.9319 210.305 91.9553 210.047 91.9777 209.862C92.0289 209.439 91.7289 208.234 91.4689 207.818C91.3609 207.645 91.2323 207.234 91.1832 206.905C91.1342 206.575 91.0432 206.241 90.9811 206.164C90.7153 205.831 90.0277 204.415 90.0277 204.201C90.0277 204.072 89.9407 203.894 89.8342 203.806C89.7279 203.718 89.6027 203.472 89.556 203.26C89.5094 203.048 89.3842 202.802 89.2779 202.714C89.1714 202.626 89.0844 202.483 89.0844 202.398C89.0844 202.1 88.2611 200.631 87.9444 200.363C87.7692 200.215 87.5581 199.839 87.4755 199.527C87.3929 199.216 87.2511 198.882 87.1604 198.786C87.0697 198.69 86.8143 198.339 86.593 198.005C86.3718 197.672 85.9115 197.066 85.5704 196.658C84.4498 195.319 83.8726 194.035 84.0102 193.187C84.1295 192.452 84.637 191.531 84.9987 191.394C85.1793 191.325 85.2944 191.216 85.2544 191.152C85.0475 190.817 86.6738 189.787 87.4088 189.787C87.6545 189.787 87.893 189.847 87.9388 189.921C87.9847 189.995 88.1324 190.056 88.2673 190.056C88.402 190.056 88.5877 190.147 88.6801 190.258C88.7724 190.369 88.9392 190.46 89.0508 190.46C89.2535 190.46 90.6956 191.381 91.1366 191.793C91.9102 192.514 92.3297 192.985 92.4046 193.217C92.4515 193.362 92.9062 193.901 93.4151 194.414C93.924 194.927 94.3403 195.399 94.3403 195.463C94.3403 195.527 94.4313 195.58 94.5425 195.58C94.6536 195.58 94.7446 195.662 94.7446 195.762C94.7446 196.045 95.1531 196.793 95.3079 196.793C95.3846 196.793 95.4141 196.879 95.3734 196.985C95.3329 197.091 95.3969 197.257 95.5158 197.356C95.6346 197.454 95.8461 197.791 95.9857 198.106C96.1254 198.421 96.3025 198.679 96.3793 198.679C96.4562 198.679 96.4916 198.755 96.458 198.847C96.4245 198.94 96.4735 199.107 96.5669 199.218C96.7768 199.467 97.385 201.015 97.5065 201.61C97.5666 201.903 97.6741 202.047 97.8325 202.047C98.1664 202.047 98.272 202.194 98.0936 202.409C97.972 202.555 97.9887 202.574 98.1757 202.502C98.3123 202.45 98.4567 202.487 98.5207 202.59C98.7038 202.887 99.1653 202.883 99.26 202.584C99.3066 202.437 99.4182 202.317 99.508 202.317C99.7124 202.317 100.111 201.859 100.27 201.442C100.38 201.152 100.284 200.635 100.007 200.026C99.9565 199.915 99.96 199.612 100.015 199.353C100.07 199.094 100.067 198.624 100.008 198.309C99.9402 197.947 99.95 197.736 100.035 197.736C100.109 197.736 100.094 197.646 100.002 197.536C99.9105 197.425 99.8708 197.243 99.9139 197.131C99.9569 197.019 99.9376 196.928 99.8712 196.928C99.7118 196.928 99.7144 194.515 99.8743 194.217C99.9504 194.075 99.9498 193.968 99.8724 193.941C99.803 193.916 99.6821 193.381 99.6035 192.751C99.525 192.121 99.4002 191.585 99.3263 191.561C99.1519 191.502 99.1522 191.04 99.3267 190.932C99.5494 190.794 99.4789 190.595 99.2074 190.595C98.9936 190.595 98.9535 190.492 98.9535 189.942C98.9535 189.582 98.8926 189.173 98.8184 189.032C98.5897 188.599 98.6507 186.932 98.9343 185.868C99.0806 185.318 99.2611 184.634 99.3353 184.347Z" fill="#00CA0A"/>
<path d="M107.413 207.167C107.339 207.167 107.278 207.107 107.278 207.033C107.278 206.958 107.339 206.898 107.413 206.898C107.487 206.898 107.548 206.958 107.548 207.033C107.548 207.107 107.487 207.167 107.413 207.167Z" fill="#00CA0A"/>
<path d="M121.386 215.142C121.343 215.249 121.311 215.217 121.305 215.06C121.299 214.918 121.331 214.839 121.375 214.884C121.42 214.928 121.425 215.045 121.386 215.142Z" fill="#00CA0A"/>
<path d="M115.139 223.829C115.1 223.79 115.107 223.693 115.156 223.614C115.266 223.436 115.499 223.425 115.499 223.597C115.499 223.756 115.236 223.926 115.139 223.829Z" fill="#00CA0A"/>
</svg>
